G04*
G04 #@! TF.GenerationSoftware,Altium Limited,Altium Designer,22.7.1 (60)*
G04*
G04 Layer_Physical_Order=2*
G04 Layer_Color=16711680*
%FSLAX25Y25*%
%MOIN*%
G70*
G04*
G04 #@! TF.SameCoordinates,EB09720E-E5E6-4C8F-983A-54733B733D7F*
G04*
G04*
G04 #@! TF.FilePolarity,Positive*
G04*
G01*
G75*
%ADD68C,0.08268*%
%ADD74C,0.01378*%
%ADD76C,0.02362*%
%ADD77C,0.03150*%
%ADD79C,0.01181*%
%ADD80C,0.07874*%
%ADD81O,0.15748X0.07874*%
%ADD82O,0.07874X0.15748*%
%ADD83O,0.14173X0.07087*%
%ADD84C,0.01378*%
%ADD85R,0.07756X0.02362*%
G36*
X418307Y231299D02*
Y229331D01*
X417598Y228622D01*
X401043D01*
Y230984D01*
X402343Y232283D01*
X417323D01*
X418307Y231299D01*
D02*
G37*
G36*
X483698Y233491D02*
X485059Y233078D01*
X485847Y232658D01*
X488563Y229941D01*
X488984Y229153D01*
X489397Y227793D01*
X489529Y226445D01*
X489516Y226378D01*
Y214381D01*
X489054Y214189D01*
X476868Y226376D01*
X476146Y226858D01*
X475295Y227027D01*
X475295Y227027D01*
X404921D01*
X404706Y226984D01*
X400043D01*
Y222622D01*
X404706D01*
X404921Y222579D01*
X474374D01*
X485965Y210988D01*
Y204993D01*
X485465Y204786D01*
X468876Y221376D01*
X468154Y221858D01*
X467303Y222027D01*
X467303Y222027D01*
X404921D01*
X404706Y221984D01*
X400043D01*
Y217622D01*
X404706D01*
X404921Y217579D01*
X466382D01*
X482028Y201933D01*
Y196824D01*
X481528Y196617D01*
X461769Y216376D01*
X461048Y216858D01*
X460197Y217027D01*
X460197Y217027D01*
X404921D01*
X404706Y216984D01*
X400043D01*
Y212622D01*
X404706D01*
X404921Y212579D01*
X459276D01*
X478091Y193764D01*
Y187550D01*
X477591Y187398D01*
X477261Y187891D01*
X477261Y187891D01*
X453777Y211376D01*
X453056Y211858D01*
X452205Y212027D01*
X452205Y212027D01*
X404921D01*
X404706Y211984D01*
X400043D01*
Y207622D01*
X404706D01*
X404921Y207579D01*
X451284D01*
X473465Y185398D01*
Y177165D01*
X472965Y177013D01*
X472931Y177065D01*
X472931Y177065D01*
X443620Y206376D01*
X442898Y206858D01*
X442047Y207027D01*
X442047Y207027D01*
X404921D01*
X404706Y206984D01*
X400043D01*
Y202622D01*
X404706D01*
X404921Y202579D01*
X441126D01*
X469134Y174571D01*
Y165600D01*
X468894Y165463D01*
X468634Y165416D01*
X432675Y201376D01*
X431953Y201858D01*
X431102Y202027D01*
X431102Y202027D01*
X404921D01*
X404706Y201984D01*
X400043D01*
Y197622D01*
X404706D01*
X404921Y197579D01*
X430181D01*
X464902Y162858D01*
Y106335D01*
X459634Y101067D01*
X116189D01*
X115799Y100989D01*
X115468Y100768D01*
X114633Y99934D01*
X114633Y99934D01*
X114412Y99603D01*
X114335Y99213D01*
Y96063D01*
X114412Y95673D01*
X114633Y95342D01*
X115446Y94529D01*
X115777Y94308D01*
X116167Y94231D01*
X461096D01*
X461486Y94308D01*
X461817Y94529D01*
X463319Y96032D01*
X463540Y96363D01*
X463618Y96753D01*
Y98720D01*
X463611Y98754D01*
X468634Y103778D01*
X469134Y103687D01*
Y94819D01*
X459634Y85319D01*
X116189D01*
X115799Y85241D01*
X115468Y85020D01*
X114633Y84185D01*
X114633Y84185D01*
X114412Y83855D01*
X114335Y83465D01*
Y80315D01*
X114412Y79925D01*
X114633Y79594D01*
X115446Y78781D01*
X115777Y78560D01*
X116167Y78483D01*
X461096D01*
X461486Y78560D01*
X461817Y78781D01*
X463319Y80284D01*
X463540Y80615D01*
X463618Y81005D01*
Y82972D01*
X463611Y83006D01*
X472931Y92326D01*
X472931Y92326D01*
X472965Y92377D01*
X473465Y92226D01*
Y83402D01*
X459634Y69571D01*
X116189D01*
X115799Y69493D01*
X115468Y69272D01*
X114633Y68437D01*
X114633Y68437D01*
X114412Y68107D01*
X114335Y67716D01*
Y64567D01*
X114412Y64177D01*
X114633Y63846D01*
X115446Y63033D01*
X115777Y62812D01*
X116167Y62735D01*
X461096D01*
X461486Y62812D01*
X461817Y63033D01*
X463319Y64536D01*
X463540Y64866D01*
X463618Y65257D01*
Y67224D01*
X463611Y67258D01*
X477261Y80909D01*
X477261Y80909D01*
X477591Y81402D01*
X478091Y81250D01*
Y65882D01*
X464925Y52716D01*
X462800D01*
X461992Y53524D01*
X461992Y53524D01*
X461661Y53745D01*
X461271Y53823D01*
X116189D01*
X115799Y53745D01*
X115468Y53524D01*
X114633Y52689D01*
X114633Y52689D01*
X114412Y52359D01*
X114335Y51968D01*
Y48819D01*
X114412Y48429D01*
X114633Y48098D01*
X115446Y47285D01*
X115777Y47064D01*
X116167Y46986D01*
X461096D01*
X461486Y47064D01*
X461817Y47285D01*
X462800Y48268D01*
X465846D01*
X465846Y48268D01*
X466698Y48438D01*
X467419Y48920D01*
X481528Y63029D01*
X482028Y62822D01*
Y50527D01*
X468469Y36968D01*
X462800D01*
X461992Y37776D01*
X461992Y37776D01*
X461661Y37997D01*
X461271Y38075D01*
X116189D01*
X115799Y37997D01*
X115468Y37776D01*
X114633Y36941D01*
X114633Y36941D01*
X114412Y36611D01*
X114335Y36220D01*
Y33071D01*
X114412Y32681D01*
X114633Y32350D01*
X115446Y31537D01*
X115777Y31316D01*
X116167Y31238D01*
X461096D01*
X461486Y31316D01*
X461817Y31537D01*
X462800Y32520D01*
X469390D01*
X469390Y32520D01*
X470241Y32690D01*
X470962Y33172D01*
X485465Y47675D01*
X485965Y47467D01*
Y39110D01*
X468075Y21220D01*
X462800D01*
X461992Y22028D01*
X461992Y22028D01*
X461661Y22249D01*
X461271Y22327D01*
X116189D01*
X115799Y22249D01*
X115468Y22028D01*
X114633Y21193D01*
X114633Y21193D01*
X114412Y20863D01*
X114335Y20472D01*
Y17323D01*
X114412Y16933D01*
X114633Y16602D01*
X115446Y15789D01*
X115777Y15568D01*
X116167Y15491D01*
X461096D01*
X461486Y15568D01*
X461817Y15789D01*
X462800Y16772D01*
X468996D01*
X468996Y16772D01*
X469847Y16941D01*
X470569Y17424D01*
X489054Y35909D01*
X489516Y35718D01*
Y9843D01*
X489529Y9775D01*
X489397Y8428D01*
X488984Y7067D01*
X488563Y6279D01*
X485847Y3563D01*
X485059Y3142D01*
X483698Y2729D01*
X482350Y2597D01*
X482283Y2610D01*
X9843D01*
X9775Y2597D01*
X8428Y2729D01*
X7067Y3142D01*
X6279Y3563D01*
X3563Y6279D01*
X3142Y7067D01*
X2729Y8428D01*
X2597Y9775D01*
X2610Y9843D01*
Y29528D01*
X80709D01*
X82677Y31496D01*
Y62008D01*
Y86614D01*
X74803Y94488D01*
X56238D01*
X56047Y94950D01*
X133361Y172264D01*
X133823Y172073D01*
Y159449D01*
X133900Y159059D01*
X134122Y158728D01*
X135106Y157744D01*
X135437Y157523D01*
X135827Y157445D01*
X137795D01*
X138186Y157523D01*
X138516Y157744D01*
X145406Y164633D01*
X145627Y164964D01*
X145705Y165354D01*
Y171260D01*
X145627Y171650D01*
X145406Y171981D01*
X144782Y172605D01*
X148714Y176537D01*
X230817D01*
X234847Y172507D01*
X235025Y172388D01*
X234873Y171888D01*
X173264D01*
Y172244D01*
X173186Y172634D01*
X172965Y172965D01*
X170997Y174934D01*
X170666Y175155D01*
X170276Y175232D01*
X153543D01*
X153153Y175155D01*
X152822Y174934D01*
X150854Y172965D01*
X150633Y172634D01*
X150555Y172244D01*
Y165511D01*
X102758Y117714D01*
X102276Y116993D01*
X102107Y116142D01*
X102107Y116142D01*
Y26559D01*
X101972Y26533D01*
X101641Y26311D01*
X100657Y25327D01*
X100436Y24996D01*
X100358Y24606D01*
Y20698D01*
X100004Y20627D01*
X99673Y20406D01*
X97704Y18438D01*
X97483Y18107D01*
X97406Y17717D01*
Y13780D01*
X97483Y13389D01*
X97704Y13058D01*
X99377Y11385D01*
X99708Y11164D01*
X100098Y11087D01*
X102854D01*
X102975Y11111D01*
X102983Y11112D01*
X103088Y10835D01*
X103088D01*
X103088Y10834D01*
X102825Y10444D01*
X102727Y10387D01*
X102211Y9871D01*
X101846Y9239D01*
X101657Y8534D01*
Y7804D01*
X101846Y7100D01*
X102211Y6467D01*
X102727Y5951D01*
X103359Y5587D01*
X104064Y5398D01*
X104794D01*
X105499Y5587D01*
X106131Y5951D01*
X106647Y6467D01*
X107012Y7100D01*
X107201Y7804D01*
Y8534D01*
X107012Y9239D01*
X106647Y9871D01*
X106131Y10387D01*
X105499Y10752D01*
X104794Y10941D01*
X104064D01*
X104012Y10927D01*
X103550Y11026D01*
X103431Y11289D01*
X103443Y11297D01*
X103575Y11385D01*
X105052Y12862D01*
X105273Y13193D01*
X105350Y13583D01*
Y19263D01*
X107020Y20933D01*
X107241Y21263D01*
X107319Y21654D01*
Y24606D01*
X107241Y24996D01*
X107020Y25327D01*
X106554Y25793D01*
Y115221D01*
X152426Y161092D01*
X152822Y160696D01*
X153153Y160475D01*
X153543Y160398D01*
X170276D01*
X170666Y160475D01*
X170996Y160696D01*
X172965Y162665D01*
X173186Y162996D01*
X173264Y163386D01*
Y166694D01*
X326736D01*
X326736Y157480D01*
X326814Y157090D01*
X327035Y156759D01*
X329004Y154791D01*
X329334Y154570D01*
X329724Y154492D01*
X358268D01*
X358658Y154570D01*
X358989Y154791D01*
X364894Y160696D01*
X365115Y161027D01*
X365193Y161417D01*
Y163386D01*
X365115Y163776D01*
X364894Y164107D01*
X359973Y169028D01*
X359642Y169249D01*
X359252Y169327D01*
X334346D01*
X332545Y171128D01*
X332007Y171540D01*
X331601Y171709D01*
X331700Y172209D01*
X376969D01*
X377359Y172286D01*
X377690Y172507D01*
X381328Y176146D01*
X406074Y176146D01*
X409712Y172507D01*
X410043Y172286D01*
X410433Y172209D01*
X425197D01*
X425587Y172286D01*
X425918Y172507D01*
X427886Y174476D01*
X428107Y174807D01*
X428185Y175197D01*
Y179134D01*
X428107Y179524D01*
X427886Y179855D01*
X426902Y180839D01*
X426571Y181060D01*
X426181Y181138D01*
X419714D01*
X414107Y186745D01*
X413776Y186966D01*
X413386Y187043D01*
X374016D01*
X373626Y186966D01*
X373295Y186745D01*
X368373Y181823D01*
X368318Y181740D01*
X318723Y181740D01*
X318598Y181940D01*
X318534Y182240D01*
X334183Y197889D01*
X334556Y198448D01*
X334687Y199107D01*
Y199803D01*
X334654Y199969D01*
Y200139D01*
X334590Y200296D01*
X334556Y200462D01*
X334462Y200603D01*
X334397Y200760D01*
X334277Y200880D01*
X334183Y201021D01*
X334042Y201115D01*
X333922Y201235D01*
X333766Y201300D01*
X333624Y201394D01*
X333458Y201427D01*
X333301Y201492D01*
X333295D01*
X333124Y201612D01*
X333014Y201757D01*
X332933Y201940D01*
X332928Y202004D01*
Y202120D01*
X332962Y202287D01*
X332928Y202453D01*
Y202623D01*
X332864Y202779D01*
X332831Y202946D01*
X332736Y203087D01*
X332671Y203243D01*
X332551Y203363D01*
X332457Y203504D01*
X332316Y203599D01*
X332196Y203719D01*
X332040Y203783D01*
X331898Y203878D01*
X331732Y203911D01*
X331575Y203976D01*
X331406D01*
X331240Y204009D01*
X331073Y203976D01*
X330904D01*
X330854Y203955D01*
X330596Y204100D01*
X330418Y204325D01*
X330462Y204547D01*
Y207677D01*
X330429Y207843D01*
Y208013D01*
X330364Y208170D01*
X330331Y208336D01*
X330237Y208477D01*
X330172Y208634D01*
X330052Y208754D01*
X329958Y208895D01*
X329817Y208989D01*
X329697Y209109D01*
X329540Y209174D01*
X329399Y209268D01*
X329233Y209301D01*
X329076Y209366D01*
X328906D01*
X328740Y209399D01*
X312008D01*
X311349Y209268D01*
X310790Y208895D01*
X294562Y192667D01*
X292340D01*
X292323Y193160D01*
X292982Y193291D01*
X293541Y193664D01*
X319611Y219735D01*
X323945D01*
X324097Y219235D01*
X324082Y219225D01*
X323098Y218241D01*
X322877Y217910D01*
X322799Y217520D01*
Y213583D01*
X322877Y213193D01*
X323098Y212862D01*
X324082Y211877D01*
X324413Y211656D01*
X324803Y211579D01*
X338976D01*
X339367Y211656D01*
X339697Y211877D01*
X341367Y213547D01*
X346260D01*
X346650Y213625D01*
X346981Y213846D01*
X347202Y214177D01*
X347279Y214567D01*
Y216142D01*
X347202Y216532D01*
X346981Y216863D01*
X346650Y217084D01*
X346260Y217161D01*
X340383D01*
X338319Y219225D01*
X338305Y219235D01*
X338457Y219735D01*
X345153D01*
X348192Y216696D01*
X348333Y216601D01*
X348453Y216482D01*
X348609Y216417D01*
X348750Y216322D01*
X348917Y216289D01*
X349074Y216224D01*
X349243D01*
X349409Y216191D01*
X349576Y216224D01*
X349745D01*
X349902Y216289D01*
X350068Y216322D01*
X350209Y216417D01*
X350366Y216482D01*
X350486Y216601D01*
X350627Y216696D01*
X350721Y216837D01*
X350841Y216957D01*
X350906Y217113D01*
X350928Y217145D01*
X351428Y217034D01*
Y210331D01*
X338349Y197252D01*
X337976Y196694D01*
X337845Y196035D01*
Y187992D01*
X337878Y187826D01*
Y187656D01*
X337943Y187499D01*
X337976Y187333D01*
X338070Y187192D01*
X338135Y187035D01*
X338255Y186916D01*
X338349Y186775D01*
X338490Y186680D01*
X338610Y186560D01*
X338767Y186495D01*
X338908Y186401D01*
X339074Y186368D01*
X339231Y186303D01*
X339401D01*
X339567Y186270D01*
X339733Y186303D01*
X339903D01*
X340060Y186368D01*
X340226Y186401D01*
X340367Y186495D01*
X340524Y186560D01*
X340644Y186680D01*
X340785Y186775D01*
X340879Y186916D01*
X340999Y187035D01*
X341064Y187192D01*
X341158Y187333D01*
X341191Y187499D01*
X341256Y187656D01*
Y187826D01*
X341289Y187992D01*
Y195321D01*
X354077Y208109D01*
X354577Y207902D01*
Y187992D01*
X354610Y187826D01*
Y187656D01*
X354675Y187499D01*
X354708Y187333D01*
X354802Y187192D01*
X354867Y187035D01*
X354987Y186916D01*
X355082Y186775D01*
X355223Y186680D01*
X355343Y186560D01*
X355499Y186495D01*
X355640Y186401D01*
X355807Y186368D01*
X355963Y186303D01*
X356133D01*
X356299Y186270D01*
X356466Y186303D01*
X356635D01*
X356792Y186368D01*
X356958Y186401D01*
X357099Y186495D01*
X357256Y186560D01*
X357376Y186680D01*
X357517Y186775D01*
X357611Y186916D01*
X357731Y187035D01*
X357796Y187192D01*
X357890Y187333D01*
X357923Y187499D01*
X357988Y187656D01*
Y187826D01*
X358021Y187992D01*
Y215354D01*
X357988Y215521D01*
Y215690D01*
X357923Y215847D01*
X357890Y216013D01*
X357796Y216154D01*
X357731Y216311D01*
X357611Y216431D01*
X357517Y216572D01*
X357376Y216666D01*
X357256Y216786D01*
X357099Y216851D01*
X356958Y216945D01*
X356792Y216978D01*
X356635Y217043D01*
X356466D01*
X356299Y217076D01*
X356133Y217043D01*
X355963D01*
X355807Y216978D01*
X355640Y216945D01*
X355499Y216851D01*
X355343Y216786D01*
X354891Y217013D01*
X354872Y217033D01*
Y222047D01*
X354839Y222214D01*
Y222383D01*
X354774Y222540D01*
X354741Y222706D01*
X354646Y222847D01*
X354581Y223004D01*
X354462Y223124D01*
X354367Y223265D01*
X354226Y223359D01*
X354106Y223479D01*
X353950Y223544D01*
X353809Y223638D01*
X353642Y223671D01*
X353486Y223736D01*
X353316D01*
X353150Y223769D01*
X352983Y223736D01*
X352814D01*
X352657Y223671D01*
X352491Y223638D01*
X352350Y223544D01*
X352193Y223479D01*
X352073Y223359D01*
X351932Y223265D01*
X351838Y223124D01*
X351718Y223004D01*
X351653Y222847D01*
X351559Y222706D01*
X351525Y222540D01*
X351461Y222383D01*
Y222214D01*
X351428Y222047D01*
Y218793D01*
X350928Y218681D01*
X350906Y218713D01*
X350841Y218870D01*
X350721Y218990D01*
X350627Y219131D01*
X347084Y222674D01*
X346525Y223048D01*
X345866Y223179D01*
X318898D01*
X318239Y223048D01*
X317680Y222674D01*
X291610Y196604D01*
X283998D01*
X283791Y197104D01*
X312131Y225443D01*
X367200D01*
X370546Y222097D01*
X370791Y221745D01*
X370615Y221429D01*
X370550Y221272D01*
X370456Y221131D01*
X370423Y220965D01*
X370358Y220808D01*
Y220639D01*
X370325Y220472D01*
X370358Y220306D01*
Y220136D01*
X370423Y219980D01*
X370456Y219813D01*
X370550Y219672D01*
X370615Y219516D01*
X370735Y219396D01*
X370830Y219255D01*
X370971Y219161D01*
X371091Y219041D01*
X371247Y218976D01*
X371388Y218882D01*
X371555Y218848D01*
X371711Y218783D01*
X371881D01*
X372047Y218750D01*
X372851D01*
X373510Y218882D01*
X373998Y219208D01*
X374317Y218819D01*
X372574Y217076D01*
X372047D01*
X371881Y217043D01*
X371711D01*
X371555Y216978D01*
X371388Y216945D01*
X371247Y216851D01*
X371091Y216786D01*
X370971Y216666D01*
X370830Y216572D01*
X370735Y216431D01*
X370615Y216311D01*
X370550Y216154D01*
X370456Y216013D01*
X370423Y215847D01*
X370358Y215690D01*
Y215521D01*
X370325Y215354D01*
X370358Y215188D01*
Y215018D01*
X370423Y214862D01*
X370456Y214695D01*
X370550Y214554D01*
X370615Y214398D01*
X370795Y214075D01*
X370615Y213752D01*
X370550Y213595D01*
X370456Y213454D01*
X370423Y213288D01*
X370358Y213131D01*
Y212962D01*
X370325Y212795D01*
X370358Y212629D01*
Y212459D01*
X370423Y212303D01*
X370456Y212136D01*
X370550Y211995D01*
X370615Y211839D01*
X370795Y211516D01*
X370615Y211193D01*
X370550Y211036D01*
X370456Y210895D01*
X370423Y210729D01*
X370358Y210572D01*
Y210403D01*
X370325Y210236D01*
X370358Y210070D01*
Y209900D01*
X370423Y209744D01*
X370456Y209577D01*
X370550Y209436D01*
X370615Y209279D01*
X370795Y208957D01*
X370615Y208634D01*
X370550Y208477D01*
X370456Y208336D01*
X370423Y208170D01*
X370358Y208013D01*
Y207843D01*
X370325Y207677D01*
X370358Y207511D01*
Y207341D01*
X370423Y207185D01*
X370456Y207018D01*
X370550Y206877D01*
X370615Y206720D01*
X370795Y206398D01*
X370615Y206075D01*
X370550Y205918D01*
X370456Y205777D01*
X370423Y205611D01*
X370358Y205454D01*
Y205285D01*
X370325Y205118D01*
X370358Y204952D01*
Y204782D01*
X370423Y204626D01*
X370456Y204459D01*
X370550Y204318D01*
X370615Y204161D01*
X370795Y203839D01*
X370615Y203516D01*
X370550Y203359D01*
X370456Y203218D01*
X370423Y203052D01*
X370358Y202895D01*
Y202725D01*
X370325Y202559D01*
X370358Y202393D01*
Y202223D01*
X370423Y202066D01*
X370456Y201900D01*
X370550Y201759D01*
X370615Y201602D01*
X370795Y201279D01*
X370615Y200957D01*
X370550Y200800D01*
X370456Y200659D01*
X370423Y200493D01*
X370358Y200336D01*
Y200166D01*
X370325Y200000D01*
X370358Y199834D01*
Y199664D01*
X370423Y199507D01*
X370456Y199341D01*
X370550Y199200D01*
X370615Y199043D01*
X370735Y198923D01*
X370830Y198782D01*
X370971Y198688D01*
X371091Y198568D01*
X371247Y198503D01*
X371388Y198409D01*
X371555Y198376D01*
X371711Y198311D01*
X371881D01*
X372047Y198278D01*
X376826D01*
X380555Y194549D01*
Y192622D01*
X390311D01*
Y196984D01*
X383283D01*
X383184Y197122D01*
X383442Y197622D01*
X390311D01*
Y201984D01*
X383283D01*
X383184Y202122D01*
X383442Y202622D01*
X390311D01*
Y206984D01*
X383442D01*
X383184Y207484D01*
X383283Y207622D01*
X390311D01*
Y211984D01*
X383442D01*
X383184Y212484D01*
X383283Y212622D01*
X390311D01*
Y216984D01*
X383442D01*
X383184Y217484D01*
X383283Y217622D01*
X390311D01*
Y221984D01*
X383442D01*
X383184Y222484D01*
X383283Y222622D01*
X390311D01*
Y226984D01*
X380555D01*
Y225057D01*
X376078Y220581D01*
X375690Y220899D01*
X376016Y221388D01*
X376147Y222046D01*
Y224016D01*
X376016Y224675D01*
X375643Y225234D01*
X368100Y232777D01*
X368000Y232844D01*
X367900Y233512D01*
X367981Y233611D01*
X401629D01*
X401780Y233111D01*
X401621Y233004D01*
X400601Y231984D01*
X400043D01*
Y231083D01*
X400024Y230984D01*
Y228622D01*
X400043Y228523D01*
Y227622D01*
X400945D01*
X401043Y227603D01*
X417598D01*
X417989Y227680D01*
X418319Y227901D01*
X418319Y227901D01*
X419028Y228610D01*
X419028Y228610D01*
X419249Y228941D01*
X419327Y229331D01*
Y231299D01*
X419249Y231689D01*
X419028Y232020D01*
X419028Y232020D01*
X418044Y233004D01*
X417885Y233111D01*
X418037Y233611D01*
X482283D01*
X482350Y233624D01*
X483698Y233491D01*
D02*
G37*
G36*
X339961Y216142D02*
X346260D01*
Y214567D01*
X340945D01*
X338976Y212598D01*
X324803D01*
X323819Y213583D01*
Y217520D01*
X324803Y218504D01*
X337598D01*
X339961Y216142D01*
D02*
G37*
G36*
X168307Y225394D02*
Y213583D01*
X167323Y212598D01*
X161417D01*
X159449Y214567D01*
Y224410D01*
X161417Y226378D01*
X167323Y226378D01*
X168307Y225394D01*
D02*
G37*
G36*
X419291Y180118D02*
X426181D01*
X427165Y179134D01*
Y175197D01*
X425197Y173228D01*
X410433D01*
X406496Y177165D01*
X380906Y177165D01*
Y177165D01*
X376969Y173228D01*
X235568D01*
X231299Y177497D01*
X231299Y179134D01*
X232886Y180720D01*
X369477Y180720D01*
X369094Y181102D01*
X374016Y186024D01*
X413386D01*
X419291Y180118D01*
D02*
G37*
G36*
X172244Y172244D02*
Y163386D01*
X170276Y161417D01*
X153543D01*
X151575Y163386D01*
Y172244D01*
X153543Y174213D01*
X170276D01*
X172244Y172244D01*
D02*
G37*
G36*
X144685Y171260D02*
Y165354D01*
X137795Y158465D01*
X135827D01*
X134843Y159449D01*
Y173228D01*
X135827Y174213D01*
X141732D01*
X144685Y171260D01*
D02*
G37*
G36*
X364173Y163386D02*
Y161417D01*
X358268Y155512D01*
X329724D01*
X327756Y157480D01*
X327756Y168307D01*
X359252D01*
X364173Y163386D01*
D02*
G37*
G36*
X462598Y98720D02*
Y96753D01*
X461096Y95250D01*
X116167D01*
X115354Y96063D01*
Y99213D01*
X116189Y100047D01*
X461271D01*
X462598Y98720D01*
D02*
G37*
G36*
X9843Y233611D02*
X243413D01*
X243494Y233512D01*
X243395Y232844D01*
X243294Y232777D01*
X239432Y228915D01*
X239268Y229010D01*
X238012Y229346D01*
X237233D01*
X237067Y229380D01*
X236901Y229346D01*
X236712D01*
X235457Y229010D01*
X234331Y228360D01*
X233412Y227441D01*
X232762Y226315D01*
X232425Y225059D01*
Y223760D01*
X232762Y222504D01*
X233412Y221378D01*
X234331Y220459D01*
X235457Y219809D01*
X236712Y219472D01*
X238012D01*
X238778Y219678D01*
X239037Y219230D01*
X238567Y218759D01*
X169327D01*
Y225394D01*
X169249Y225784D01*
X169028Y226115D01*
X168044Y227099D01*
X167713Y227320D01*
X167323Y227397D01*
X161417Y227397D01*
X161027Y227320D01*
X160696Y227099D01*
X158728Y225130D01*
X158507Y224800D01*
X158429Y224410D01*
Y214567D01*
X158507Y214177D01*
X158728Y213846D01*
X158728Y213846D01*
X160696Y211877D01*
X161027Y211656D01*
X161417Y211579D01*
X167323D01*
X167713Y211656D01*
X168044Y211877D01*
X169028Y212862D01*
X169249Y213193D01*
X169327Y213583D01*
Y214312D01*
X239488D01*
X239488Y214312D01*
X240339Y214481D01*
X241061Y214963D01*
X245812Y219714D01*
X246712Y219472D01*
X248012D01*
X249268Y219809D01*
X250394Y220459D01*
X251313Y221378D01*
X251963Y222504D01*
X252299Y223760D01*
Y225059D01*
X251963Y226315D01*
X251313Y227441D01*
X250394Y228360D01*
X249268Y229010D01*
X248012Y229346D01*
X248035Y229837D01*
X366169D01*
X366657Y229349D01*
X366466Y228887D01*
X311417D01*
X310758Y228756D01*
X310200Y228383D01*
X281373Y199557D01*
X203740D01*
X203574Y199524D01*
X203404D01*
X203247Y199459D01*
X203081Y199426D01*
X202940Y199331D01*
X202783Y199267D01*
X202663Y199147D01*
X202522Y199052D01*
X202428Y198911D01*
X202308Y198791D01*
X202243Y198635D01*
X202149Y198494D01*
X202116Y198327D01*
X202051Y198171D01*
Y198001D01*
X202018Y197835D01*
X202051Y197668D01*
Y197499D01*
X202116Y197342D01*
X202149Y197176D01*
X202197Y197104D01*
X202136Y196888D01*
X201937Y196615D01*
X201922Y196604D01*
X142306D01*
X141647Y196473D01*
X141089Y196100D01*
X70428Y125438D01*
X70333Y125297D01*
X70214Y125178D01*
X70149Y125021D01*
X70054Y124880D01*
X70021Y124714D01*
X69956Y124557D01*
Y124387D01*
X69923Y124221D01*
X69956Y124055D01*
Y123885D01*
X70021Y123728D01*
X70054Y123562D01*
X70149Y123421D01*
X70214Y123264D01*
X70333Y123144D01*
X70428Y123003D01*
X70569Y122909D01*
X70689Y122789D01*
X70845Y122724D01*
X70986Y122630D01*
X71153Y122597D01*
X71309Y122532D01*
X71479D01*
X71645Y122499D01*
X71812Y122532D01*
X71981D01*
X72138Y122597D01*
X72304Y122630D01*
X72445Y122724D01*
X72602Y122789D01*
X72722Y122909D01*
X72863Y123003D01*
X143020Y193160D01*
X218486D01*
X218738Y192660D01*
X218719Y192634D01*
X218563Y192569D01*
X218396Y192536D01*
X218255Y192442D01*
X218098Y192377D01*
X217979Y192257D01*
X217837Y192163D01*
X217743Y192022D01*
X217623Y191902D01*
X217558Y191745D01*
X217464Y191604D01*
X217431Y191437D01*
X217366Y191281D01*
Y191111D01*
X217333Y190945D01*
X217366Y190779D01*
Y190609D01*
X217431Y190452D01*
X217464Y190286D01*
X217558Y190145D01*
X217623Y189988D01*
X217743Y189868D01*
X217837Y189727D01*
X217979Y189633D01*
X218098Y189513D01*
X218255Y189448D01*
X218396Y189354D01*
X218563Y189321D01*
X218719Y189256D01*
X218889D01*
X219055Y189223D01*
X295276D01*
X295935Y189354D01*
X296493Y189727D01*
X312721Y205955D01*
X319684D01*
X319702Y205462D01*
X319042Y205331D01*
X318484Y204958D01*
X305582Y192056D01*
X305488Y191915D01*
X305368Y191795D01*
X305303Y191638D01*
X305209Y191497D01*
X305175Y191331D01*
X305111Y191174D01*
Y191005D01*
X305078Y190838D01*
X305111Y190672D01*
Y190502D01*
X305175Y190346D01*
X305209Y190179D01*
X305303Y190038D01*
X305368Y189882D01*
X305488Y189762D01*
X305582Y189620D01*
X305723Y189526D01*
X305843Y189406D01*
X305999Y189341D01*
X306141Y189247D01*
X306307Y189214D01*
X306464Y189149D01*
X306633D01*
X306800Y189116D01*
X306966Y189149D01*
X307136D01*
X307292Y189214D01*
X307459Y189247D01*
X307600Y189341D01*
X307756Y189406D01*
X307876Y189526D01*
X308017Y189620D01*
X320415Y202018D01*
X327828D01*
X327993Y201767D01*
X328049Y201531D01*
X314066Y187549D01*
X140894D01*
X140235Y187418D01*
X139676Y187045D01*
X47120Y94488D01*
X2610D01*
Y226378D01*
X2597Y226445D01*
X2729Y227793D01*
X3142Y229153D01*
X3563Y229941D01*
X6279Y232658D01*
X7067Y233078D01*
X8428Y233491D01*
X9775Y233624D01*
X9843Y233611D01*
D02*
G37*
G36*
X462598Y82972D02*
Y81005D01*
X461096Y79502D01*
X116167D01*
X115354Y80315D01*
Y83465D01*
X116189Y84299D01*
X461271D01*
X462598Y82972D01*
D02*
G37*
G36*
Y67224D02*
Y65257D01*
X461096Y63754D01*
X116167D01*
X115354Y64567D01*
Y67716D01*
X116189Y68551D01*
X461271D01*
X462598Y67224D01*
D02*
G37*
G36*
Y51476D02*
Y49509D01*
X461096Y48006D01*
X116167D01*
X115354Y48819D01*
Y51968D01*
X116189Y52803D01*
X461271D01*
X462598Y51476D01*
D02*
G37*
G36*
X56102Y61024D02*
Y47244D01*
X55118Y46260D01*
X41339D01*
X40354Y47244D01*
Y47244D01*
Y61024D01*
X41339Y62008D01*
X55118D01*
X56102Y61024D01*
D02*
G37*
G36*
X462598Y35728D02*
Y33761D01*
X461096Y32258D01*
X116167D01*
X115354Y33071D01*
Y36220D01*
X116189Y37055D01*
X461271D01*
X462598Y35728D01*
D02*
G37*
G36*
Y19980D02*
Y18012D01*
X461096Y16510D01*
X116167D01*
X115354Y17323D01*
Y20472D01*
X116189Y21307D01*
X461271D01*
X462598Y19980D01*
D02*
G37*
G36*
X106299Y24606D02*
Y21654D01*
X104331Y19685D01*
Y13583D01*
X102854Y12106D01*
X100098D01*
X98425Y13780D01*
Y17717D01*
X100394Y19685D01*
X101378D01*
Y24606D01*
X102362Y25591D01*
X105315D01*
X106299Y24606D01*
D02*
G37*
%LPC*%
G36*
X421929Y197027D02*
X421929Y197027D01*
X404921D01*
X404706Y196984D01*
X400043D01*
Y192622D01*
X404706D01*
X404921Y192579D01*
X421008D01*
X457224Y156363D01*
Y116815D01*
X116189D01*
X115799Y116737D01*
X115468Y116516D01*
X114633Y115682D01*
X114633Y115682D01*
X114412Y115351D01*
X114335Y114961D01*
Y111811D01*
X114412Y111421D01*
X114633Y111090D01*
X115446Y110277D01*
X115777Y110056D01*
X116167Y109979D01*
X461096D01*
X461486Y110056D01*
X461817Y110277D01*
X462335Y110795D01*
X462556Y111126D01*
X462634Y111516D01*
Y115452D01*
X462556Y115842D01*
X462335Y116173D01*
X461992Y116516D01*
X461672Y116730D01*
Y157284D01*
X461672Y157284D01*
X461503Y158135D01*
X461021Y158857D01*
X461021Y158857D01*
X423502Y196376D01*
X422780Y196858D01*
X421929Y197027D01*
D02*
G37*
G36*
X92983Y10941D02*
X92253D01*
X91548Y10752D01*
X90916Y10387D01*
X90400Y9871D01*
X90035Y9239D01*
X89846Y8534D01*
Y7804D01*
X90035Y7100D01*
X90400Y6467D01*
X90916Y5951D01*
X91548Y5587D01*
X92253Y5398D01*
X92983D01*
X93688Y5587D01*
X94320Y5951D01*
X94836Y6467D01*
X95201Y7100D01*
X95390Y7804D01*
Y8534D01*
X95201Y9239D01*
X94836Y9871D01*
X94320Y10387D01*
X93688Y10752D01*
X92983Y10941D01*
D02*
G37*
%LPD*%
G36*
X461614Y115452D02*
Y111516D01*
X461096Y110998D01*
X116167D01*
X115354Y111811D01*
Y114961D01*
X116189Y115795D01*
X461271D01*
X461614Y115452D01*
D02*
G37*
%LPC*%
G36*
X218012Y229346D02*
X216712D01*
X215457Y229010D01*
X214331Y228360D01*
X213412Y227441D01*
X212762Y226315D01*
X212621Y225790D01*
X212103D01*
X211963Y226315D01*
X211313Y227441D01*
X210394Y228360D01*
X209268Y229010D01*
X208012Y229346D01*
X206712D01*
X205457Y229010D01*
X204331Y228360D01*
X203412Y227441D01*
X202762Y226315D01*
X202425Y225059D01*
Y223760D01*
X202762Y222504D01*
X203412Y221378D01*
X204331Y220459D01*
X205457Y219809D01*
X206712Y219472D01*
X208012D01*
X209268Y219809D01*
X210394Y220459D01*
X211313Y221378D01*
X211963Y222504D01*
X212103Y223029D01*
X212621D01*
X212762Y222504D01*
X213412Y221378D01*
X214331Y220459D01*
X215457Y219809D01*
X216712Y219472D01*
X218012D01*
X219268Y219809D01*
X220394Y220459D01*
X221313Y221378D01*
X221963Y222504D01*
X222299Y223760D01*
Y225059D01*
X221963Y226315D01*
X221313Y227441D01*
X220394Y228360D01*
X219268Y229010D01*
X218012Y229346D01*
D02*
G37*
G36*
X37290Y232299D02*
X35938D01*
X34633Y231949D01*
X33462Y231274D01*
X32506Y230318D01*
X31830Y229147D01*
X31480Y227841D01*
Y226489D01*
X31830Y225184D01*
X32506Y224013D01*
X33462Y223057D01*
X34633Y222381D01*
X35938Y222031D01*
X37290D01*
X38596Y222381D01*
X39766Y223057D01*
X40722Y224013D01*
X41398Y225184D01*
X41748Y226489D01*
Y227841D01*
X41398Y229147D01*
X40722Y230318D01*
X39766Y231274D01*
X38596Y231949D01*
X37290Y232299D01*
D02*
G37*
G36*
X8633Y164189D02*
X7903D01*
X7198Y164000D01*
X6566Y163635D01*
X6050Y163119D01*
X5685Y162487D01*
X5496Y161782D01*
Y161052D01*
X5685Y160347D01*
X6050Y159715D01*
X6566Y159200D01*
X7198Y158835D01*
X7903Y158646D01*
X8633D01*
X9337Y158835D01*
X9970Y159200D01*
X10486Y159715D01*
X10851Y160347D01*
X11039Y161052D01*
Y161782D01*
X10851Y162487D01*
X10486Y163119D01*
X9970Y163635D01*
X9337Y164000D01*
X8633Y164189D01*
D02*
G37*
G36*
X48228Y195902D02*
X34449D01*
X34059Y195824D01*
X33728Y195603D01*
X21917Y183792D01*
X21696Y183461D01*
X21618Y183071D01*
Y165777D01*
X11090Y155248D01*
X10869Y154918D01*
X10791Y154528D01*
Y151709D01*
X10291Y151502D01*
X9970Y151824D01*
X9337Y152189D01*
X8633Y152378D01*
X7903D01*
X7198Y152189D01*
X6566Y151824D01*
X6050Y151308D01*
X5685Y150676D01*
X5496Y149971D01*
Y149241D01*
X5685Y148537D01*
X6050Y147905D01*
X6566Y147388D01*
X7198Y147023D01*
X7903Y146835D01*
X8633D01*
X9337Y147023D01*
X9970Y147388D01*
X10291Y147710D01*
X10791Y147503D01*
Y123031D01*
X10869Y122641D01*
X11090Y122310D01*
X15027Y118374D01*
X15358Y118152D01*
X15748Y118075D01*
X26575D01*
X26965Y118152D01*
X27296Y118374D01*
X31233Y122310D01*
X31454Y122641D01*
X31531Y123031D01*
Y153121D01*
X50918Y172507D01*
X51139Y172838D01*
X51216Y173228D01*
Y192913D01*
X51139Y193304D01*
X50918Y193634D01*
X48949Y195603D01*
X48619Y195824D01*
X48228Y195902D01*
D02*
G37*
%LPD*%
G36*
X50197Y192913D02*
Y173228D01*
X30512Y153543D01*
Y123031D01*
X26575Y119095D01*
X15748D01*
X11811Y123031D01*
Y154528D01*
X22638Y165354D01*
Y183071D01*
X34449Y194882D01*
X48228D01*
X50197Y192913D01*
D02*
G37*
D68*
X36614Y227165D02*
D03*
D74*
X339567Y187992D02*
Y196035D01*
X353150Y209617D01*
Y222047D01*
X356299Y187992D02*
Y215354D01*
X37795Y79134D02*
X142043Y183382D01*
X140894Y185827D02*
X314779D01*
X37992Y82925D02*
X140894Y185827D01*
X314779D02*
X331240Y202287D01*
X142043Y183382D02*
X317240D01*
X332965Y199107D01*
X33071Y79134D02*
X37795D01*
X142306Y194882D02*
X292323D01*
X71645Y124221D02*
X142306Y194882D01*
X345866Y221457D02*
X349409Y217913D01*
X332965Y199107D02*
Y199803D01*
X203740Y197835D02*
X282087D01*
X311417Y227165D01*
X237362Y224410D02*
X244512Y231559D01*
X366883D01*
X237067Y224705D02*
Y227658D01*
X328740Y204547D02*
Y207677D01*
X327933Y203740D02*
X328740Y204547D01*
X306800Y190838D02*
X319702Y203740D01*
X327933D01*
X312008Y207677D02*
X328740D01*
X292323Y194882D02*
X318898Y221457D01*
X345866D01*
X219055Y190945D02*
X295276D01*
X312008Y207677D01*
X367913Y227165D02*
X372047Y223031D01*
X311417Y227165D02*
X367913D01*
X366883Y231559D02*
X374425Y224016D01*
X372047Y220472D02*
X372851D01*
X374425Y222046D01*
Y224016D01*
X373287Y215354D02*
X382736Y224803D01*
X372047Y215354D02*
X373287D01*
X377539Y200000D02*
X382736Y194803D01*
X385433D01*
X372047Y200000D02*
X377539D01*
X379980Y202559D02*
X382736Y199803D01*
X385433D01*
X372047Y202559D02*
X379980D01*
X372047Y205118D02*
X385118D01*
X385433Y204803D01*
X380610Y207677D02*
X382736Y209803D01*
X385433D01*
X372047Y207677D02*
X380610D01*
X378169Y210236D02*
X382736Y214803D01*
X385433D01*
X372047Y210236D02*
X378169D01*
X375728Y212795D02*
X382736Y219803D01*
X385433D01*
X372047Y212795D02*
X375728D01*
X382736Y224803D02*
X385433D01*
D76*
X239488Y216535D02*
X247362Y224410D01*
X165354Y216535D02*
X239488D01*
X334646Y165354D02*
X335836Y166544D01*
X334646Y216535D02*
X335836Y215346D01*
X104331Y23622D02*
Y116142D01*
X153543Y165354D01*
X404921Y224803D02*
X475295D01*
X488189Y211910D01*
Y38189D02*
Y211910D01*
X404921Y214803D02*
X460197D01*
X480315Y64961D02*
Y194685D01*
X460197Y214803D02*
X480315Y194685D01*
X404921Y209803D02*
X452205D01*
X475689Y82481D02*
Y186319D01*
X452205Y209803D02*
X475689Y186319D01*
X404921Y204803D02*
X442047D01*
X471358Y93898D02*
Y175492D01*
X442047Y204803D02*
X471358Y175492D01*
X404921Y199803D02*
X431102D01*
X467126Y105414D02*
Y163779D01*
X431102Y199803D02*
X467126Y163779D01*
X459448Y113484D02*
Y157284D01*
X421929Y194803D02*
X459448Y157284D01*
Y97736D02*
X467126Y105414D01*
X459448Y81988D02*
X471358Y93898D01*
X459448Y66240D02*
X475689Y82481D01*
X465846Y50492D02*
X480315Y64961D01*
X484252Y49606D02*
Y202854D01*
X467303Y219803D02*
X484252Y202854D01*
X404921Y219803D02*
X467303D01*
X459448Y50492D02*
X465846D01*
X469390Y34744D02*
X484252Y49606D01*
X460464Y34744D02*
X469390D01*
X468996Y18996D02*
X488189Y38189D01*
X459448Y18996D02*
X468996D01*
X404921Y194803D02*
X421929D01*
D77*
X140748Y172244D02*
X147638Y179134D01*
X188976D02*
X192913D01*
X147638D02*
X188976D01*
X192913D02*
X233268D01*
X169291Y169291D02*
X330709D01*
X334646Y165354D01*
D79*
X51102Y59559D02*
D03*
X42835Y56804D02*
D03*
X48346Y51292D02*
D03*
X45591Y59559D02*
D03*
X51102Y48536D02*
D03*
Y54048D02*
D03*
X45591Y48536D02*
D03*
Y54048D02*
D03*
X53858Y51292D02*
D03*
Y56804D02*
D03*
X42835Y51292D02*
D03*
X48346Y56804D02*
D03*
D80*
X227362Y224410D02*
D03*
X17323Y107087D02*
D03*
Y126772D02*
D03*
X247362Y224410D02*
D03*
X237362D02*
D03*
X217362D02*
D03*
X207362D02*
D03*
D81*
X36614Y209449D02*
D03*
D82*
X17717Y196850D02*
D03*
D83*
X40945Y184646D02*
D03*
D84*
X11811Y9843D02*
D03*
X7874Y17717D02*
D03*
X104331Y212598D02*
D03*
X96457D02*
D03*
X88583D02*
D03*
X100394Y222441D02*
D03*
X92520D02*
D03*
X84646D02*
D03*
X80709Y212598D02*
D03*
X76772Y222441D02*
D03*
X295276D02*
D03*
X275590D02*
D03*
X265748Y226378D02*
D03*
X285433D02*
D03*
X349409Y212795D02*
D03*
X356299Y215354D02*
D03*
X188976Y179134D02*
D03*
X237205Y175197D02*
D03*
Y179134D02*
D03*
X153543Y169291D02*
D03*
X157480D02*
D03*
X161417D02*
D03*
X165354D02*
D03*
X192913Y179134D02*
D03*
X140748Y164370D02*
D03*
X136811Y160433D02*
D03*
Y164370D02*
D03*
Y168307D02*
D03*
X140748D02*
D03*
Y172244D02*
D03*
X136811D02*
D03*
X37992Y82925D02*
D03*
X71645Y124221D02*
D03*
X375742Y179134D02*
D03*
X356299Y187992D02*
D03*
X339567D02*
D03*
X349409Y217913D02*
D03*
X419882Y179233D02*
D03*
X423819Y175296D02*
D03*
Y179233D02*
D03*
X379921Y179134D02*
D03*
X277559D02*
D03*
X281496D02*
D03*
X325787Y175197D02*
D03*
Y179134D02*
D03*
X419882Y175296D02*
D03*
X321850D02*
D03*
X233268Y179134D02*
D03*
X408465Y230315D02*
D03*
X412402D02*
D03*
X416339D02*
D03*
X203740Y197835D02*
D03*
X331240Y202287D02*
D03*
X332965Y199803D02*
D03*
X328740Y207677D02*
D03*
X101378Y15748D02*
D03*
X104331Y23622D02*
D03*
X362256Y162874D02*
D03*
X358268Y157480D02*
D03*
X354331D02*
D03*
X350394D02*
D03*
X350399Y162087D02*
D03*
X334646Y165354D02*
D03*
Y161417D02*
D03*
Y216535D02*
D03*
X330709D02*
D03*
X326772D02*
D03*
X165354D02*
D03*
Y224410D02*
D03*
Y220472D02*
D03*
X169291Y169291D02*
D03*
Y165354D02*
D03*
X165354D02*
D03*
X161417D02*
D03*
X157480D02*
D03*
X153543D02*
D03*
X459448Y97736D02*
D03*
Y113484D02*
D03*
X460464Y34744D02*
D03*
X459448Y50492D02*
D03*
Y81988D02*
D03*
Y66240D02*
D03*
X454495Y97736D02*
D03*
Y113484D02*
D03*
Y81988D02*
D03*
Y50492D02*
D03*
Y66240D02*
D03*
X119390D02*
D03*
Y81988D02*
D03*
X123327Y66240D02*
D03*
Y81988D02*
D03*
Y97736D02*
D03*
X134102Y81988D02*
D03*
Y97736D02*
D03*
Y66240D02*
D03*
Y113484D02*
D03*
X138039Y97736D02*
D03*
Y66240D02*
D03*
Y81988D02*
D03*
Y113484D02*
D03*
X148815D02*
D03*
Y81988D02*
D03*
Y97736D02*
D03*
X299482Y66240D02*
D03*
X314096Y81988D02*
D03*
X328710Y97736D02*
D03*
X343324Y113484D02*
D03*
X295545Y66240D02*
D03*
X310159Y81988D02*
D03*
X324773Y97736D02*
D03*
X339387Y113484D02*
D03*
X343324Y97736D02*
D03*
X310159Y66240D02*
D03*
X314096D02*
D03*
X324773Y81988D02*
D03*
X357839Y113484D02*
D03*
X328710Y81988D02*
D03*
X353902Y113484D02*
D03*
X339387Y97736D02*
D03*
X295545Y81988D02*
D03*
X310159Y97736D02*
D03*
X324773Y113484D02*
D03*
X280931Y66240D02*
D03*
X295545Y97736D02*
D03*
X280931Y81988D02*
D03*
X266317Y66240D02*
D03*
X310159Y113484D02*
D03*
X119390D02*
D03*
Y97736D02*
D03*
X455511Y34744D02*
D03*
X33071Y79134D02*
D03*
X372047Y223031D02*
D03*
X353150Y222047D02*
D03*
X372047Y220472D02*
D03*
X306800Y190838D02*
D03*
X219055Y190945D02*
D03*
X251703Y113484D02*
D03*
X255640D02*
D03*
X122210Y114601D02*
D03*
X372047Y200000D02*
D03*
Y202559D02*
D03*
Y205118D02*
D03*
Y207677D02*
D03*
Y210236D02*
D03*
Y212795D02*
D03*
Y215354D02*
D03*
X444933Y113484D02*
D03*
X440996D02*
D03*
X426480D02*
D03*
X415902D02*
D03*
X430417D02*
D03*
X152752D02*
D03*
X167464D02*
D03*
X163527D02*
D03*
X182176D02*
D03*
X178239D02*
D03*
X196889D02*
D03*
X192952D02*
D03*
X211601D02*
D03*
X207664D02*
D03*
X226314D02*
D03*
X222377D02*
D03*
X241026D02*
D03*
X237089D02*
D03*
X270254D02*
D03*
X266317D02*
D03*
X284868D02*
D03*
X280931D02*
D03*
X299482D02*
D03*
X295545D02*
D03*
X314096D02*
D03*
X328710D02*
D03*
X372355D02*
D03*
X368418D02*
D03*
X386870D02*
D03*
X382933D02*
D03*
X401386D02*
D03*
X397449D02*
D03*
X411965D02*
D03*
X152752Y97736D02*
D03*
X167464D02*
D03*
X163527D02*
D03*
X182176D02*
D03*
X178239D02*
D03*
X196889D02*
D03*
X192952D02*
D03*
X211601D02*
D03*
X207664D02*
D03*
X226314D02*
D03*
X222377D02*
D03*
X241026D02*
D03*
X237089D02*
D03*
X255640D02*
D03*
X251703D02*
D03*
X270254D02*
D03*
X266317D02*
D03*
X284868D02*
D03*
X280931D02*
D03*
X299482D02*
D03*
X314096D02*
D03*
X357839D02*
D03*
X353902D02*
D03*
X372355D02*
D03*
X368418D02*
D03*
X386870D02*
D03*
X382933D02*
D03*
X401386D02*
D03*
X397449D02*
D03*
X415902D02*
D03*
X411965D02*
D03*
X430417D02*
D03*
X426480D02*
D03*
X444933D02*
D03*
X440996D02*
D03*
X152752Y81988D02*
D03*
X167464D02*
D03*
X163527D02*
D03*
X182176D02*
D03*
X178239D02*
D03*
X196889D02*
D03*
X192952D02*
D03*
X211601D02*
D03*
X207664D02*
D03*
X226314D02*
D03*
X222377D02*
D03*
X241026D02*
D03*
X237089D02*
D03*
X255640D02*
D03*
X251703D02*
D03*
X270254D02*
D03*
X266317D02*
D03*
X284868D02*
D03*
X299482D02*
D03*
X343324D02*
D03*
X339387D02*
D03*
X357839D02*
D03*
X353902D02*
D03*
X372355D02*
D03*
X368418D02*
D03*
X386870D02*
D03*
X382933D02*
D03*
X401386D02*
D03*
X397449D02*
D03*
X415902D02*
D03*
X411965D02*
D03*
X430417D02*
D03*
X426480D02*
D03*
X444933D02*
D03*
X440996D02*
D03*
X152752Y66240D02*
D03*
X148815D02*
D03*
X167464D02*
D03*
X163527D02*
D03*
X182176D02*
D03*
X178239D02*
D03*
X196889D02*
D03*
X192952D02*
D03*
X211601D02*
D03*
X207664D02*
D03*
X226314D02*
D03*
X222377D02*
D03*
X241026D02*
D03*
X237089D02*
D03*
X255640D02*
D03*
X251703D02*
D03*
X270254D02*
D03*
X284868D02*
D03*
X328710D02*
D03*
X324773D02*
D03*
X343324D02*
D03*
X339387D02*
D03*
X357839D02*
D03*
X353902D02*
D03*
X372355D02*
D03*
X368418D02*
D03*
X386870D02*
D03*
X382933D02*
D03*
X401386D02*
D03*
X397449D02*
D03*
X415902D02*
D03*
X411965D02*
D03*
X430417D02*
D03*
X426480D02*
D03*
X444933D02*
D03*
X440996D02*
D03*
X123327Y50492D02*
D03*
X119390D02*
D03*
X138039D02*
D03*
X134102D02*
D03*
X152752D02*
D03*
X148815D02*
D03*
X167464D02*
D03*
X163527D02*
D03*
X182176D02*
D03*
X178239D02*
D03*
X196889D02*
D03*
X192952D02*
D03*
X211601D02*
D03*
X207664D02*
D03*
X226314D02*
D03*
X222377D02*
D03*
X241026D02*
D03*
X237089D02*
D03*
X255640D02*
D03*
X251703D02*
D03*
X270254D02*
D03*
X266317D02*
D03*
X284868D02*
D03*
X280931D02*
D03*
X299482D02*
D03*
X295545D02*
D03*
X314096D02*
D03*
X310159D02*
D03*
X328710D02*
D03*
X324773D02*
D03*
X343324D02*
D03*
X339387D02*
D03*
X357839D02*
D03*
X353902D02*
D03*
X372355D02*
D03*
X368418D02*
D03*
X386870D02*
D03*
X382933D02*
D03*
X401386D02*
D03*
X397449D02*
D03*
X415902D02*
D03*
X411965D02*
D03*
X430417D02*
D03*
X426480D02*
D03*
X444933D02*
D03*
X440996D02*
D03*
X123327Y34744D02*
D03*
X119390D02*
D03*
X138039D02*
D03*
X134102D02*
D03*
X152752D02*
D03*
X148815D02*
D03*
X167464D02*
D03*
X163527D02*
D03*
X182176D02*
D03*
X178239D02*
D03*
X196889D02*
D03*
X192952D02*
D03*
X211601D02*
D03*
X207664D02*
D03*
X226314D02*
D03*
X222377D02*
D03*
X241026D02*
D03*
X237089D02*
D03*
X255640D02*
D03*
X251703D02*
D03*
X270254D02*
D03*
X266317D02*
D03*
X284868D02*
D03*
X280931D02*
D03*
X299482D02*
D03*
X295545D02*
D03*
X314096D02*
D03*
X310159D02*
D03*
X328710D02*
D03*
X324773D02*
D03*
X343324D02*
D03*
X339387D02*
D03*
X357839D02*
D03*
X353902D02*
D03*
X372355D02*
D03*
X368418D02*
D03*
X386870D02*
D03*
X382933D02*
D03*
X401386D02*
D03*
X397449D02*
D03*
X415902D02*
D03*
X411965D02*
D03*
X430417D02*
D03*
X426480D02*
D03*
X444933D02*
D03*
X440996D02*
D03*
X121358Y18996D02*
D03*
X455511D02*
D03*
X459448D02*
D03*
X440996D02*
D03*
X444933D02*
D03*
X426480D02*
D03*
X430417D02*
D03*
X411965D02*
D03*
X415902D02*
D03*
X397449D02*
D03*
X401386D02*
D03*
X382933D02*
D03*
X386870D02*
D03*
X368418D02*
D03*
X372355D02*
D03*
X353902D02*
D03*
X357839D02*
D03*
X339387D02*
D03*
X343324D02*
D03*
X324773D02*
D03*
X328710D02*
D03*
X310159D02*
D03*
X314096D02*
D03*
X295545D02*
D03*
X299482D02*
D03*
X280931D02*
D03*
X284868D02*
D03*
X266317D02*
D03*
X270254D02*
D03*
X251703D02*
D03*
X255640D02*
D03*
X237089D02*
D03*
X241026D02*
D03*
X222377D02*
D03*
X226314D02*
D03*
X207664D02*
D03*
X211601D02*
D03*
X192952D02*
D03*
X196889D02*
D03*
X178239D02*
D03*
X182176D02*
D03*
X163527D02*
D03*
X167464D02*
D03*
X148815D02*
D03*
X152752D02*
D03*
X134102D02*
D03*
X138039D02*
D03*
X119390D02*
D03*
X123327D02*
D03*
D85*
X385433Y229803D02*
D03*
Y194803D02*
D03*
Y199803D02*
D03*
Y204803D02*
D03*
Y209803D02*
D03*
Y214803D02*
D03*
Y219803D02*
D03*
Y224803D02*
D03*
X404921Y229803D02*
D03*
Y224803D02*
D03*
Y219803D02*
D03*
Y214803D02*
D03*
Y209803D02*
D03*
Y204803D02*
D03*
Y199803D02*
D03*
Y194803D02*
D03*
M02*
