G04*
G04 #@! TF.GenerationSoftware,Altium Limited,Altium Designer,22.7.1 (60)*
G04*
G04 Layer_Color=8421504*
%FSLAX25Y25*%
%MOIN*%
G70*
G04*
G04 #@! TF.SameCoordinates,EB09720E-E5E6-4C8F-983A-54733B733D7F*
G04*
G04*
G04 #@! TF.FilePolarity,Positive*
G04*
G01*
G75*
%ADD12R,0.06299X0.03543*%
%ADD13R,0.05118X0.02756*%
%ADD14R,0.02756X0.05118*%
%ADD15R,0.03100X0.03800*%
%ADD16R,0.03800X0.03100*%
%ADD17R,0.08268X0.08268*%
%ADD18R,0.08268X0.03937*%
%ADD19R,0.04134X0.02165*%
%ADD20R,0.03543X0.05906*%
%ADD21R,0.05906X0.03543*%
%ADD22R,0.03543X0.03543*%
%ADD23R,0.05315X0.01575*%
%ADD24R,0.02362X0.07756*%
%ADD25R,0.03937X0.02756*%
%ADD26R,0.24016X0.24803*%
%ADD27R,0.04764X0.02284*%
%ADD28R,0.38386X0.48031*%
%ADD29R,0.15354X0.24410*%
%ADD30R,0.03150X0.04331*%
%ADD31R,0.05906X0.02756*%
%ADD32R,0.03150X0.03937*%
%ADD33R,0.05906X0.10236*%
%ADD34R,0.06299X0.13780*%
%ADD35R,0.03937X0.03150*%
%ADD36R,0.02756X0.05906*%
%ADD37R,0.12992X0.17323*%
%ADD38R,0.11811X0.09843*%
%ADD39R,0.02756X0.03543*%
D12*
X168307Y182776D02*
D03*
Y171358D02*
D03*
X176307Y182776D02*
D03*
X126331Y182293D02*
D03*
Y170876D02*
D03*
X176307Y171358D02*
D03*
X457405Y131201D02*
D03*
Y142618D02*
D03*
X442875Y131201D02*
D03*
Y142618D02*
D03*
X428346Y131201D02*
D03*
Y142618D02*
D03*
X413817Y131201D02*
D03*
Y142618D02*
D03*
X399287Y131201D02*
D03*
Y142618D02*
D03*
X384758Y131201D02*
D03*
Y142618D02*
D03*
X370228Y131201D02*
D03*
Y142618D02*
D03*
X355699Y131201D02*
D03*
Y142618D02*
D03*
X341170Y131201D02*
D03*
Y142618D02*
D03*
X326640Y131201D02*
D03*
Y142618D02*
D03*
X312012Y131201D02*
D03*
Y142618D02*
D03*
X297385Y131201D02*
D03*
Y142618D02*
D03*
X282757Y131201D02*
D03*
Y142618D02*
D03*
X268129Y131201D02*
D03*
Y142618D02*
D03*
X253501Y131201D02*
D03*
Y142618D02*
D03*
X238873Y131201D02*
D03*
Y142618D02*
D03*
X224245Y131201D02*
D03*
Y142618D02*
D03*
X209519Y131201D02*
D03*
Y142618D02*
D03*
X194793Y131201D02*
D03*
Y142618D02*
D03*
X180067Y131201D02*
D03*
Y142618D02*
D03*
X165340Y131201D02*
D03*
Y142618D02*
D03*
X150614Y131201D02*
D03*
Y142618D02*
D03*
X135888Y131201D02*
D03*
Y142618D02*
D03*
X121161Y131201D02*
D03*
Y142618D02*
D03*
D13*
X57579Y171907D02*
D03*
Y164427D02*
D03*
X119193Y177854D02*
D03*
Y170374D02*
D03*
X335827Y222835D02*
D03*
Y215354D02*
D03*
X28756Y12752D02*
D03*
Y20232D02*
D03*
X362256Y170354D02*
D03*
Y162874D02*
D03*
X334252Y170669D02*
D03*
Y163189D02*
D03*
D14*
X16016Y8492D02*
D03*
X23496D02*
D03*
X16016Y14492D02*
D03*
X23496D02*
D03*
X176472Y166067D02*
D03*
X168992D02*
D03*
X126279Y165354D02*
D03*
X118799D02*
D03*
X342571Y157953D02*
D03*
X350051D02*
D03*
X38999Y146555D02*
D03*
X46479D02*
D03*
X166189Y216138D02*
D03*
X173669D02*
D03*
D15*
X63079Y171317D02*
D03*
Y165017D02*
D03*
X67579Y171317D02*
D03*
Y165017D02*
D03*
X113831Y177526D02*
D03*
Y171226D02*
D03*
X132185Y171260D02*
D03*
Y164960D02*
D03*
X162307Y177867D02*
D03*
Y171567D02*
D03*
X330709Y222147D02*
D03*
Y215846D02*
D03*
X326476Y222147D02*
D03*
Y215846D02*
D03*
X166189Y229788D02*
D03*
Y223488D02*
D03*
X49595Y130520D02*
D03*
Y124220D02*
D03*
X419882Y168996D02*
D03*
Y175296D02*
D03*
X357039Y165236D02*
D03*
Y158936D02*
D03*
X321850Y168996D02*
D03*
Y175296D02*
D03*
X233760Y169193D02*
D03*
Y175493D02*
D03*
D16*
X96457Y22047D02*
D03*
X90157D02*
D03*
X16606Y19992D02*
D03*
X22906D02*
D03*
D17*
X121358Y121358D02*
D03*
Y105610D02*
D03*
Y89862D02*
D03*
Y74114D02*
D03*
Y58366D02*
D03*
Y42618D02*
D03*
Y26870D02*
D03*
X136084Y121358D02*
D03*
Y105610D02*
D03*
X136071Y89862D02*
D03*
Y74114D02*
D03*
Y58366D02*
D03*
Y42618D02*
D03*
Y26870D02*
D03*
X150811Y121358D02*
D03*
Y105610D02*
D03*
X150783Y89862D02*
D03*
Y74114D02*
D03*
Y58366D02*
D03*
Y42618D02*
D03*
Y26870D02*
D03*
X165537Y121358D02*
D03*
Y105610D02*
D03*
X165496Y89862D02*
D03*
Y74114D02*
D03*
Y58366D02*
D03*
Y42618D02*
D03*
Y26870D02*
D03*
X180263Y121358D02*
D03*
Y105610D02*
D03*
X180208Y89862D02*
D03*
Y74114D02*
D03*
Y58366D02*
D03*
Y42618D02*
D03*
Y26870D02*
D03*
X194990Y121358D02*
D03*
Y105610D02*
D03*
X194920Y89862D02*
D03*
Y74114D02*
D03*
Y58366D02*
D03*
Y42618D02*
D03*
Y26870D02*
D03*
X209716Y121358D02*
D03*
Y105610D02*
D03*
X209633Y89862D02*
D03*
Y74114D02*
D03*
Y58366D02*
D03*
Y42618D02*
D03*
Y26870D02*
D03*
X224442Y121358D02*
D03*
Y105610D02*
D03*
X224345Y89862D02*
D03*
Y74114D02*
D03*
Y58366D02*
D03*
Y42618D02*
D03*
Y26870D02*
D03*
X239070Y121358D02*
D03*
Y105610D02*
D03*
X239057Y89862D02*
D03*
Y74114D02*
D03*
Y58366D02*
D03*
Y42618D02*
D03*
Y26870D02*
D03*
X253698Y121358D02*
D03*
Y105610D02*
D03*
X253671Y89862D02*
D03*
Y74114D02*
D03*
Y58366D02*
D03*
Y42618D02*
D03*
Y26870D02*
D03*
X268326Y121358D02*
D03*
Y105610D02*
D03*
X268285Y89862D02*
D03*
Y74114D02*
D03*
Y58366D02*
D03*
Y42618D02*
D03*
Y26870D02*
D03*
X282954Y121358D02*
D03*
Y105610D02*
D03*
X282899Y89862D02*
D03*
Y74114D02*
D03*
Y58366D02*
D03*
Y42618D02*
D03*
Y26870D02*
D03*
X297581Y121358D02*
D03*
Y105610D02*
D03*
X297513Y89862D02*
D03*
Y74114D02*
D03*
Y58366D02*
D03*
Y42618D02*
D03*
Y26870D02*
D03*
X312209Y121358D02*
D03*
Y105610D02*
D03*
X312127Y89862D02*
D03*
Y74114D02*
D03*
Y58366D02*
D03*
Y42618D02*
D03*
Y26870D02*
D03*
X326837Y121358D02*
D03*
Y105610D02*
D03*
X326741Y89862D02*
D03*
Y74114D02*
D03*
Y58366D02*
D03*
Y42618D02*
D03*
Y26870D02*
D03*
X341366Y121358D02*
D03*
Y105610D02*
D03*
X341355Y89862D02*
D03*
Y74114D02*
D03*
Y58366D02*
D03*
Y42618D02*
D03*
Y26870D02*
D03*
X355896Y121358D02*
D03*
Y105610D02*
D03*
X355871Y89862D02*
D03*
Y74114D02*
D03*
Y58366D02*
D03*
Y42618D02*
D03*
Y26870D02*
D03*
X370425Y121358D02*
D03*
Y105610D02*
D03*
X370386Y89862D02*
D03*
Y74114D02*
D03*
Y58366D02*
D03*
Y42618D02*
D03*
Y26870D02*
D03*
X384955Y121358D02*
D03*
Y105610D02*
D03*
X384902Y89862D02*
D03*
Y74114D02*
D03*
Y58366D02*
D03*
Y42618D02*
D03*
Y26870D02*
D03*
X399484Y121358D02*
D03*
Y105610D02*
D03*
X399417Y89862D02*
D03*
Y74114D02*
D03*
Y58366D02*
D03*
Y42618D02*
D03*
Y26870D02*
D03*
X414013Y121358D02*
D03*
Y105610D02*
D03*
X413933Y89862D02*
D03*
Y74114D02*
D03*
Y58366D02*
D03*
Y42618D02*
D03*
Y26870D02*
D03*
X428543Y121358D02*
D03*
Y105610D02*
D03*
X428448Y89862D02*
D03*
Y74114D02*
D03*
Y58366D02*
D03*
Y42618D02*
D03*
Y26870D02*
D03*
X443072Y121358D02*
D03*
Y105610D02*
D03*
X442964Y89862D02*
D03*
Y74114D02*
D03*
Y58366D02*
D03*
Y42618D02*
D03*
Y26870D02*
D03*
X457602Y121358D02*
D03*
Y105610D02*
D03*
X457480Y89862D02*
D03*
Y74114D02*
D03*
Y58366D02*
D03*
Y42618D02*
D03*
Y26870D02*
D03*
D18*
X121358Y113484D02*
D03*
Y97736D02*
D03*
Y81988D02*
D03*
Y66240D02*
D03*
Y50492D02*
D03*
Y34744D02*
D03*
Y18996D02*
D03*
X136084Y113484D02*
D03*
Y97736D02*
D03*
X136071Y81988D02*
D03*
Y66240D02*
D03*
Y50492D02*
D03*
Y34744D02*
D03*
Y18996D02*
D03*
X150811Y113484D02*
D03*
Y97736D02*
D03*
X150783Y81988D02*
D03*
Y66240D02*
D03*
Y50492D02*
D03*
Y34744D02*
D03*
Y18996D02*
D03*
X165537Y113484D02*
D03*
Y97736D02*
D03*
X165496Y81988D02*
D03*
Y66240D02*
D03*
Y50492D02*
D03*
Y34744D02*
D03*
Y18996D02*
D03*
X180263Y113484D02*
D03*
Y97736D02*
D03*
X180208Y81988D02*
D03*
Y66240D02*
D03*
Y50492D02*
D03*
Y34744D02*
D03*
Y18996D02*
D03*
X194990Y113484D02*
D03*
Y97736D02*
D03*
X194920Y81988D02*
D03*
Y66240D02*
D03*
Y50492D02*
D03*
Y34744D02*
D03*
Y18996D02*
D03*
X209716Y113484D02*
D03*
Y97736D02*
D03*
X209633Y81988D02*
D03*
Y66240D02*
D03*
Y50492D02*
D03*
Y34744D02*
D03*
Y18996D02*
D03*
X224442Y113484D02*
D03*
Y97736D02*
D03*
X224345Y81988D02*
D03*
Y66240D02*
D03*
Y50492D02*
D03*
Y34744D02*
D03*
Y18996D02*
D03*
X239070Y113484D02*
D03*
Y97736D02*
D03*
X239057Y81988D02*
D03*
Y66240D02*
D03*
Y50492D02*
D03*
Y34744D02*
D03*
Y18996D02*
D03*
X253698Y113484D02*
D03*
Y97736D02*
D03*
X253671Y81988D02*
D03*
Y66240D02*
D03*
Y50492D02*
D03*
Y34744D02*
D03*
Y18996D02*
D03*
X268326Y113484D02*
D03*
Y97736D02*
D03*
X268285Y81988D02*
D03*
Y66240D02*
D03*
Y50492D02*
D03*
Y34744D02*
D03*
Y18996D02*
D03*
X282954Y113484D02*
D03*
Y97736D02*
D03*
X282899Y81988D02*
D03*
Y66240D02*
D03*
Y50492D02*
D03*
Y34744D02*
D03*
Y18996D02*
D03*
X297581Y113484D02*
D03*
Y97736D02*
D03*
X297513Y81988D02*
D03*
Y66240D02*
D03*
Y50492D02*
D03*
Y34744D02*
D03*
Y18996D02*
D03*
X312209Y113484D02*
D03*
Y97736D02*
D03*
X312127Y81988D02*
D03*
Y66240D02*
D03*
Y50492D02*
D03*
Y34744D02*
D03*
Y18996D02*
D03*
X326837Y113484D02*
D03*
Y97736D02*
D03*
X326741Y81988D02*
D03*
Y66240D02*
D03*
Y50492D02*
D03*
Y34744D02*
D03*
Y18996D02*
D03*
X341366Y113484D02*
D03*
Y97736D02*
D03*
X341355Y81988D02*
D03*
Y66240D02*
D03*
Y50492D02*
D03*
Y34744D02*
D03*
Y18996D02*
D03*
X355896Y113484D02*
D03*
Y97736D02*
D03*
X355871Y81988D02*
D03*
Y66240D02*
D03*
Y50492D02*
D03*
Y34744D02*
D03*
Y18996D02*
D03*
X370425Y113484D02*
D03*
Y97736D02*
D03*
X370386Y81988D02*
D03*
Y66240D02*
D03*
Y50492D02*
D03*
Y34744D02*
D03*
Y18996D02*
D03*
X384955Y113484D02*
D03*
Y97736D02*
D03*
X384902Y81988D02*
D03*
Y66240D02*
D03*
Y50492D02*
D03*
Y34744D02*
D03*
Y18996D02*
D03*
X399484Y113484D02*
D03*
Y97736D02*
D03*
X399417Y81988D02*
D03*
Y66240D02*
D03*
Y50492D02*
D03*
Y34744D02*
D03*
Y18996D02*
D03*
X414013Y113484D02*
D03*
Y97736D02*
D03*
X413933Y81988D02*
D03*
Y66240D02*
D03*
Y50492D02*
D03*
Y34744D02*
D03*
Y18996D02*
D03*
X428543Y113484D02*
D03*
Y97736D02*
D03*
X428448Y81988D02*
D03*
Y66240D02*
D03*
Y50492D02*
D03*
Y34744D02*
D03*
Y18996D02*
D03*
X443072Y113484D02*
D03*
Y97736D02*
D03*
X442964Y81988D02*
D03*
Y66240D02*
D03*
Y50492D02*
D03*
Y34744D02*
D03*
Y18996D02*
D03*
X457602Y113484D02*
D03*
Y97736D02*
D03*
X457480Y81988D02*
D03*
Y66240D02*
D03*
Y50492D02*
D03*
Y34744D02*
D03*
Y18996D02*
D03*
D19*
X34373Y146752D02*
D03*
X23349D02*
D03*
D20*
X17992Y93457D02*
D03*
X22992D02*
D03*
X27992D02*
D03*
X32992D02*
D03*
X37992D02*
D03*
X42992D02*
D03*
X47992D02*
D03*
X52992D02*
D03*
X57992D02*
D03*
X62992D02*
D03*
X67992D02*
D03*
X72992D02*
D03*
X77992D02*
D03*
X82992D02*
D03*
Y26528D02*
D03*
X77992D02*
D03*
X72992D02*
D03*
X67992D02*
D03*
X62992D02*
D03*
X57992D02*
D03*
X52992D02*
D03*
X47992D02*
D03*
X42992D02*
D03*
X37992D02*
D03*
X32992D02*
D03*
X27992D02*
D03*
X22992D02*
D03*
X17992D02*
D03*
D21*
X86929Y82492D02*
D03*
Y77492D02*
D03*
Y72492D02*
D03*
Y67492D02*
D03*
Y62492D02*
D03*
Y57492D02*
D03*
Y52492D02*
D03*
Y47492D02*
D03*
Y42492D02*
D03*
Y37492D02*
D03*
D22*
X48346Y54048D02*
D03*
X42835D02*
D03*
X48346Y48536D02*
D03*
X53858Y54048D02*
D03*
X42835Y48536D02*
D03*
X53858D02*
D03*
X42835Y59559D02*
D03*
X53858D02*
D03*
X48346D02*
D03*
D23*
X343602Y212795D02*
D03*
Y223031D02*
D03*
Y220472D02*
D03*
Y217913D02*
D03*
Y215354D02*
D03*
Y210236D02*
D03*
Y207677D02*
D03*
Y205118D02*
D03*
Y202559D02*
D03*
Y200000D02*
D03*
X366240D02*
D03*
Y202559D02*
D03*
Y205118D02*
D03*
Y207677D02*
D03*
Y210236D02*
D03*
Y212795D02*
D03*
Y215354D02*
D03*
Y217913D02*
D03*
Y220472D02*
D03*
Y223031D02*
D03*
D24*
X394654Y181890D02*
D03*
X296470D02*
D03*
X208819Y181890D02*
D03*
X414654Y162402D02*
D03*
X316471D02*
D03*
X228819Y162402D02*
D03*
X193819D02*
D03*
X198819D02*
D03*
X203819D02*
D03*
X208819D02*
D03*
X213819D02*
D03*
X218819D02*
D03*
X223819D02*
D03*
X228819Y181890D02*
D03*
X223819D02*
D03*
X218819D02*
D03*
X213819D02*
D03*
X203819D02*
D03*
X198819D02*
D03*
X193819D02*
D03*
X379654Y162402D02*
D03*
X384654D02*
D03*
X389654D02*
D03*
X394654D02*
D03*
X399654D02*
D03*
X404654D02*
D03*
X409654D02*
D03*
X414654Y181890D02*
D03*
X409654D02*
D03*
X404654D02*
D03*
X399654D02*
D03*
X389654D02*
D03*
X384654D02*
D03*
X379654D02*
D03*
X281470Y162402D02*
D03*
X286471D02*
D03*
X291471D02*
D03*
X296470D02*
D03*
X301470D02*
D03*
X306470D02*
D03*
X311471D02*
D03*
X316471Y181890D02*
D03*
X311471D02*
D03*
X306470D02*
D03*
X301470D02*
D03*
X291471D02*
D03*
X286471D02*
D03*
X281470D02*
D03*
D25*
X171315Y230370D02*
D03*
X187063D02*
D03*
Y221905D02*
D03*
X171315D02*
D03*
D26*
X146866Y192807D02*
D03*
D27*
X351378Y166969D02*
D03*
X341496D02*
D03*
X351378Y163228D02*
D03*
Y170709D02*
D03*
X341496Y163228D02*
D03*
Y170709D02*
D03*
D28*
X90996Y206102D02*
D03*
D29*
X62008Y212205D02*
D03*
X11220D02*
D03*
D30*
X54134Y110827D02*
D03*
X57874Y103386D02*
D03*
X61614Y110827D02*
D03*
D31*
X15157Y164370D02*
D03*
Y152559D02*
D03*
Y146653D02*
D03*
D32*
X12205Y141142D02*
D03*
Y169882D02*
D03*
X4331Y141142D02*
D03*
Y169882D02*
D03*
D33*
X155866Y168201D02*
D03*
X137866D02*
D03*
D34*
X80996Y165650D02*
D03*
X100996D02*
D03*
D35*
X84153Y4232D02*
D03*
X112894D02*
D03*
X84153Y12106D02*
D03*
X112894D02*
D03*
D36*
X107382Y15059D02*
D03*
X101476D02*
D03*
X89665D02*
D03*
D37*
X34055Y176969D02*
D03*
D38*
X58846Y133870D02*
D03*
X90342D02*
D03*
D39*
X66142Y111319D02*
D03*
X72047D02*
D03*
M02*
