G04*
G04 #@! TF.GenerationSoftware,Altium Limited,Altium Designer,22.7.1 (60)*
G04*
G04 Layer_Color=128*
%FSLAX25Y25*%
%MOIN*%
G70*
G04*
G04 #@! TF.SameCoordinates,EB09720E-E5E6-4C8F-983A-54733B733D7F*
G04*
G04*
G04 #@! TF.FilePolarity,Positive*
G04*
G01*
G75*
%ADD89C,0.00200*%
D89*
X50709Y59559D02*
X51496D01*
X51102Y59166D02*
Y59953D01*
X42441Y56804D02*
X43228D01*
X42835Y56410D02*
Y57197D01*
X47953Y51292D02*
X48740D01*
X48346Y50898D02*
Y51685D01*
X45197Y59559D02*
X45984D01*
X45591Y59166D02*
Y59953D01*
X50709Y48536D02*
X51496D01*
X51102Y48142D02*
Y48930D01*
X50709Y54048D02*
X51496D01*
X51102Y53654D02*
Y54441D01*
X45197Y48536D02*
X45984D01*
X45591Y48142D02*
Y48930D01*
X45197Y54048D02*
X45984D01*
X45591Y53654D02*
Y54441D01*
X53465Y51292D02*
X54252D01*
X53858Y50898D02*
Y51685D01*
X53465Y56804D02*
X54252D01*
X53858Y56410D02*
Y57197D01*
X42441Y51292D02*
X43228D01*
X42835Y50898D02*
Y51685D01*
X47953Y56804D02*
X48740D01*
X48346Y56410D02*
Y57197D01*
X225295Y224410D02*
X229429D01*
X227362Y222342D02*
Y226476D01*
X34646Y209449D02*
X38583D01*
X36614Y207480D02*
Y211417D01*
X15354Y196850D02*
X20079D01*
X17717Y194488D02*
Y199213D01*
X14567Y107087D02*
X20079D01*
X17323Y104331D02*
Y109843D01*
X6496Y161417D02*
X10039D01*
X8268Y159646D02*
Y163189D01*
X6496Y149606D02*
X10039D01*
X8268Y147835D02*
Y151378D01*
X102657Y8169D02*
X106201D01*
X104429Y6398D02*
Y9941D01*
X90847Y8169D02*
X94390D01*
X92618Y6398D02*
Y9941D01*
X14567Y126772D02*
X20079D01*
X17323Y124016D02*
Y129527D01*
X245295Y224410D02*
X249429D01*
X247362Y222342D02*
Y226476D01*
X235295Y224410D02*
X239429D01*
X237362Y222342D02*
Y226476D01*
X215295Y224410D02*
X219429D01*
X217362Y222342D02*
Y226476D01*
X205295Y224410D02*
X209429D01*
X207362Y222342D02*
Y226476D01*
X32480Y227165D02*
X40748D01*
X36614Y223031D02*
Y231299D01*
X38583Y184646D02*
X43307D01*
X40945Y182283D02*
Y187008D01*
X11516Y9843D02*
X12106D01*
X11811Y9547D02*
Y10138D01*
X7579Y17717D02*
X8169D01*
X7874Y17421D02*
Y18012D01*
X104035Y212598D02*
X104626D01*
X104331Y212303D02*
Y212894D01*
X96161Y212598D02*
X96752D01*
X96457Y212303D02*
Y212894D01*
X88287Y212598D02*
X88878D01*
X88583Y212303D02*
Y212894D01*
X100098Y222441D02*
X100689D01*
X100394Y222146D02*
Y222736D01*
X92224Y222441D02*
X92815D01*
X92520Y222146D02*
Y222736D01*
X84350Y222441D02*
X84941D01*
X84646Y222146D02*
Y222736D01*
X80413Y212598D02*
X81004D01*
X80709Y212303D02*
Y212894D01*
X76476Y222441D02*
X77067D01*
X76772Y222146D02*
Y222736D01*
X294980Y222441D02*
X295571D01*
X295276Y222146D02*
Y222736D01*
X275295Y222441D02*
X275886D01*
X275590Y222146D02*
Y222736D01*
X265453Y226378D02*
X266043D01*
X265748Y226083D02*
Y226673D01*
X285138Y226378D02*
X285728D01*
X285433Y226083D02*
Y226673D01*
X349114Y212795D02*
X349705D01*
X349409Y212500D02*
Y213090D01*
X356004Y215354D02*
X356594D01*
X356299Y215059D02*
Y215650D01*
X188681Y179134D02*
X189272D01*
X188976Y178839D02*
Y179429D01*
X236910Y175197D02*
X237500D01*
X237205Y174902D02*
Y175492D01*
X236910Y179134D02*
X237500D01*
X237205Y178839D02*
Y179429D01*
X153248Y169291D02*
X153839D01*
X153543Y168996D02*
Y169587D01*
X157185Y169291D02*
X157776D01*
X157480Y168996D02*
Y169587D01*
X161122Y169291D02*
X161713D01*
X161417Y168996D02*
Y169587D01*
X165059Y169291D02*
X165650D01*
X165354Y168996D02*
Y169587D01*
X192618Y179134D02*
X193209D01*
X192913Y178839D02*
Y179429D01*
X140453Y164370D02*
X141043D01*
X140748Y164075D02*
Y164665D01*
X136516Y160433D02*
X137106D01*
X136811Y160138D02*
Y160728D01*
X136516Y164370D02*
X137106D01*
X136811Y164075D02*
Y164665D01*
X136516Y168307D02*
X137106D01*
X136811Y168012D02*
Y168602D01*
X140453Y168307D02*
X141043D01*
X140748Y168012D02*
Y168602D01*
X140453Y172244D02*
X141043D01*
X140748Y171949D02*
Y172539D01*
X136516Y172244D02*
X137106D01*
X136811Y171949D02*
Y172539D01*
X37697Y82925D02*
X38287D01*
X37992Y82630D02*
Y83220D01*
X71350Y124221D02*
X71941D01*
X71645Y123926D02*
Y124516D01*
X375447Y179134D02*
X376038D01*
X375742Y178839D02*
Y179429D01*
X356004Y187992D02*
X356594D01*
X356299Y187697D02*
Y188287D01*
X339272Y187992D02*
X339862D01*
X339567Y187697D02*
Y188287D01*
X349114Y217913D02*
X349705D01*
X349409Y217618D02*
Y218209D01*
X419587Y179233D02*
X420177D01*
X419882Y178937D02*
Y179528D01*
X423524Y175296D02*
X424114D01*
X423819Y175000D02*
Y175591D01*
X423524Y179233D02*
X424114D01*
X423819Y178937D02*
Y179528D01*
X379626Y179134D02*
X380217D01*
X379921Y178839D02*
Y179429D01*
X277264Y179134D02*
X277854D01*
X277559Y178839D02*
Y179429D01*
X281201Y179134D02*
X281791D01*
X281496Y178839D02*
Y179429D01*
X325492Y175197D02*
X326083D01*
X325787Y174902D02*
Y175492D01*
X325492Y179134D02*
X326083D01*
X325787Y178839D02*
Y179429D01*
X419587Y175296D02*
X420177D01*
X419882Y175000D02*
Y175591D01*
X321555Y175296D02*
X322146D01*
X321850Y175000D02*
Y175591D01*
X232972Y179134D02*
X233563D01*
X233268Y178839D02*
Y179429D01*
X408169Y230315D02*
X408760D01*
X408465Y230020D02*
Y230610D01*
X412106Y230315D02*
X412697D01*
X412402Y230020D02*
Y230610D01*
X416043Y230315D02*
X416634D01*
X416339Y230020D02*
Y230610D01*
X203445Y197835D02*
X204035D01*
X203740Y197539D02*
Y198130D01*
X330944Y202287D02*
X331535D01*
X331240Y201992D02*
Y202582D01*
X332670Y199803D02*
X333261D01*
X332965Y199508D02*
Y200098D01*
X328445Y207677D02*
X329035D01*
X328740Y207382D02*
Y207972D01*
X101083Y15748D02*
X101673D01*
X101378Y15453D02*
Y16043D01*
X104035Y23622D02*
X104626D01*
X104331Y23327D02*
Y23917D01*
X361961Y162874D02*
X362551D01*
X362256Y162579D02*
Y163169D01*
X357972Y157480D02*
X358563D01*
X358268Y157185D02*
Y157776D01*
X354035Y157480D02*
X354626D01*
X354331Y157185D02*
Y157776D01*
X350098Y157480D02*
X350689D01*
X350394Y157185D02*
Y157776D01*
X350103Y162087D02*
X350694D01*
X350399Y161791D02*
Y162382D01*
X334350Y165354D02*
X334941D01*
X334646Y165059D02*
Y165650D01*
X334350Y161417D02*
X334941D01*
X334646Y161122D02*
Y161713D01*
X334350Y216535D02*
X334941D01*
X334646Y216240D02*
Y216831D01*
X330413Y216535D02*
X331004D01*
X330709Y216240D02*
Y216831D01*
X326476Y216535D02*
X327067D01*
X326772Y216240D02*
Y216831D01*
X165059Y216535D02*
X165650D01*
X165354Y216240D02*
Y216831D01*
X165059Y224410D02*
X165650D01*
X165354Y224114D02*
Y224705D01*
X165059Y220472D02*
X165650D01*
X165354Y220177D02*
Y220768D01*
X168996Y169291D02*
X169587D01*
X169291Y168996D02*
Y169587D01*
X168996Y165354D02*
X169587D01*
X169291Y165059D02*
Y165650D01*
X165059Y165354D02*
X165650D01*
X165354Y165059D02*
Y165650D01*
X161122Y165354D02*
X161713D01*
X161417Y165059D02*
Y165650D01*
X157185Y165354D02*
X157776D01*
X157480Y165059D02*
Y165650D01*
X153248Y165354D02*
X153839D01*
X153543Y165059D02*
Y165650D01*
X459153Y97736D02*
X459743D01*
X459448Y97441D02*
Y98032D01*
X459153Y113484D02*
X459743D01*
X459448Y113189D02*
Y113779D01*
X460169Y34744D02*
X460759D01*
X460464Y34449D02*
Y35039D01*
X459153Y50492D02*
X459743D01*
X459448Y50197D02*
Y50787D01*
X459153Y81988D02*
X459743D01*
X459448Y81693D02*
Y82284D01*
X459153Y66240D02*
X459743D01*
X459448Y65945D02*
Y66535D01*
X454200Y97736D02*
X454791D01*
X454495Y97441D02*
Y98032D01*
X454200Y113484D02*
X454791D01*
X454495Y113189D02*
Y113779D01*
X454200Y81988D02*
X454791D01*
X454495Y81693D02*
Y82284D01*
X454200Y50492D02*
X454791D01*
X454495Y50197D02*
Y50787D01*
X454200Y66240D02*
X454791D01*
X454495Y65945D02*
Y66535D01*
X119095Y66240D02*
X119685D01*
X119390Y65945D02*
Y66535D01*
X119095Y81988D02*
X119685D01*
X119390Y81693D02*
Y82284D01*
X123031Y66240D02*
X123622D01*
X123327Y65945D02*
Y66535D01*
X123031Y81988D02*
X123622D01*
X123327Y81693D02*
Y82284D01*
X123031Y97736D02*
X123622D01*
X123327Y97441D02*
Y98032D01*
X133807Y81988D02*
X134397D01*
X134102Y81693D02*
Y82284D01*
X133807Y97736D02*
X134397D01*
X134102Y97441D02*
Y98032D01*
X133807Y66240D02*
X134397D01*
X134102Y65945D02*
Y66535D01*
X133807Y113484D02*
X134397D01*
X134102Y113189D02*
Y113779D01*
X137744Y97736D02*
X138334D01*
X138039Y97441D02*
Y98032D01*
X137744Y66240D02*
X138334D01*
X138039Y65945D02*
Y66535D01*
X137744Y81988D02*
X138334D01*
X138039Y81693D02*
Y82284D01*
X137744Y113484D02*
X138334D01*
X138039Y113189D02*
Y113779D01*
X148519Y113484D02*
X149110D01*
X148815Y113189D02*
Y113779D01*
X148519Y81988D02*
X149110D01*
X148815Y81693D02*
Y82284D01*
X148519Y97736D02*
X149110D01*
X148815Y97441D02*
Y98032D01*
X299187Y66240D02*
X299777D01*
X299482Y65945D02*
Y66535D01*
X313801Y81988D02*
X314391D01*
X314096Y81693D02*
Y82284D01*
X328415Y97736D02*
X329005D01*
X328710Y97441D02*
Y98032D01*
X343028Y113484D02*
X343619D01*
X343324Y113189D02*
Y113779D01*
X295250Y66240D02*
X295840D01*
X295545Y65945D02*
Y66535D01*
X309863Y81988D02*
X310454D01*
X310159Y81693D02*
Y82284D01*
X324478Y97736D02*
X325068D01*
X324773Y97441D02*
Y98032D01*
X339091Y113484D02*
X339682D01*
X339387Y113189D02*
Y113779D01*
X343028Y97736D02*
X343619D01*
X343324Y97441D02*
Y98032D01*
X309863Y66240D02*
X310454D01*
X310159Y65945D02*
Y66535D01*
X313801Y66240D02*
X314391D01*
X314096Y65945D02*
Y66535D01*
X324478Y81988D02*
X325068D01*
X324773Y81693D02*
Y82284D01*
X357544Y113484D02*
X358135D01*
X357839Y113189D02*
Y113779D01*
X328415Y81988D02*
X329005D01*
X328710Y81693D02*
Y82284D01*
X353607Y113484D02*
X354198D01*
X353902Y113189D02*
Y113779D01*
X339091Y97736D02*
X339682D01*
X339387Y97441D02*
Y98032D01*
X295250Y81988D02*
X295840D01*
X295545Y81693D02*
Y82284D01*
X309863Y97736D02*
X310454D01*
X310159Y97441D02*
Y98032D01*
X324478Y113484D02*
X325068D01*
X324773Y113189D02*
Y113779D01*
X280636Y66240D02*
X281226D01*
X280931Y65945D02*
Y66535D01*
X295250Y97736D02*
X295840D01*
X295545Y97441D02*
Y98032D01*
X280636Y81988D02*
X281226D01*
X280931Y81693D02*
Y82284D01*
X266022Y66240D02*
X266612D01*
X266317Y65945D02*
Y66535D01*
X309863Y113484D02*
X310454D01*
X310159Y113189D02*
Y113779D01*
X119095Y113484D02*
X119685D01*
X119390Y113189D02*
Y113779D01*
X119095Y97736D02*
X119685D01*
X119390Y97441D02*
Y98032D01*
X455216Y34744D02*
X455806D01*
X455511Y34449D02*
Y35039D01*
X32776Y79134D02*
X33366D01*
X33071Y78839D02*
Y79429D01*
X371752Y223031D02*
X372342D01*
X372047Y222736D02*
Y223327D01*
X352854Y222047D02*
X353445D01*
X353150Y221752D02*
Y222342D01*
X371752Y220472D02*
X372342D01*
X372047Y220177D02*
Y220768D01*
X306504Y190838D02*
X307095D01*
X306800Y190543D02*
Y191133D01*
X218760Y190945D02*
X219350D01*
X219055Y190650D02*
Y191240D01*
X251408Y113484D02*
X251998D01*
X251703Y113189D02*
Y113779D01*
X255345Y113484D02*
X255935D01*
X255640Y113189D02*
Y113779D01*
X121915Y114601D02*
X122505D01*
X122210Y114305D02*
Y114896D01*
X371752Y200000D02*
X372342D01*
X372047Y199705D02*
Y200295D01*
X371752Y202559D02*
X372342D01*
X372047Y202264D02*
Y202854D01*
X371752Y205118D02*
X372342D01*
X372047Y204823D02*
Y205413D01*
X371752Y207677D02*
X372342D01*
X372047Y207382D02*
Y207972D01*
X371752Y210236D02*
X372342D01*
X372047Y209941D02*
Y210531D01*
X371752Y212795D02*
X372342D01*
X372047Y212500D02*
Y213090D01*
X371752Y215354D02*
X372342D01*
X372047Y215059D02*
Y215650D01*
X444637Y113484D02*
X445228D01*
X444933Y113189D02*
Y113779D01*
X440700Y113484D02*
X441291D01*
X440996Y113189D02*
Y113779D01*
X426185Y113484D02*
X426775D01*
X426480Y113189D02*
Y113779D01*
X415606Y113484D02*
X416197D01*
X415902Y113189D02*
Y113779D01*
X430122Y113484D02*
X430712D01*
X430417Y113189D02*
Y113779D01*
X152456Y113484D02*
X153047D01*
X152752Y113189D02*
Y113779D01*
X167169Y113484D02*
X167759D01*
X167464Y113189D02*
Y113779D01*
X163232Y113484D02*
X163822D01*
X163527Y113189D02*
Y113779D01*
X181881Y113484D02*
X182472D01*
X182176Y113189D02*
Y113779D01*
X177944Y113484D02*
X178535D01*
X178239Y113189D02*
Y113779D01*
X196593Y113484D02*
X197184D01*
X196889Y113189D02*
Y113779D01*
X192657Y113484D02*
X193247D01*
X192952Y113189D02*
Y113779D01*
X211306Y113484D02*
X211896D01*
X211601Y113189D02*
Y113779D01*
X207369Y113484D02*
X207959D01*
X207664Y113189D02*
Y113779D01*
X226018Y113484D02*
X226609D01*
X226314Y113189D02*
Y113779D01*
X222081Y113484D02*
X222672D01*
X222377Y113189D02*
Y113779D01*
X240731Y113484D02*
X241321D01*
X241026Y113189D02*
Y113779D01*
X236794Y113484D02*
X237384D01*
X237089Y113189D02*
Y113779D01*
X269959Y113484D02*
X270549D01*
X270254Y113189D02*
Y113779D01*
X266022Y113484D02*
X266612D01*
X266317Y113189D02*
Y113779D01*
X284573Y113484D02*
X285163D01*
X284868Y113189D02*
Y113779D01*
X280636Y113484D02*
X281226D01*
X280931Y113189D02*
Y113779D01*
X299187Y113484D02*
X299777D01*
X299482Y113189D02*
Y113779D01*
X295250Y113484D02*
X295840D01*
X295545Y113189D02*
Y113779D01*
X313801Y113484D02*
X314391D01*
X314096Y113189D02*
Y113779D01*
X328415Y113484D02*
X329005D01*
X328710Y113189D02*
Y113779D01*
X372060Y113484D02*
X372650D01*
X372355Y113189D02*
Y113779D01*
X368123Y113484D02*
X368713D01*
X368418Y113189D02*
Y113779D01*
X386575Y113484D02*
X387166D01*
X386870Y113189D02*
Y113779D01*
X382638Y113484D02*
X383229D01*
X382933Y113189D02*
Y113779D01*
X401091Y113484D02*
X401681D01*
X401386Y113189D02*
Y113779D01*
X397154Y113484D02*
X397744D01*
X397449Y113189D02*
Y113779D01*
X411669Y113484D02*
X412260D01*
X411965Y113189D02*
Y113779D01*
X152456Y97736D02*
X153047D01*
X152752Y97441D02*
Y98032D01*
X167169Y97736D02*
X167759D01*
X167464Y97441D02*
Y98032D01*
X163232Y97736D02*
X163822D01*
X163527Y97441D02*
Y98032D01*
X181881Y97736D02*
X182472D01*
X182176Y97441D02*
Y98032D01*
X177944Y97736D02*
X178535D01*
X178239Y97441D02*
Y98032D01*
X196593Y97736D02*
X197184D01*
X196889Y97441D02*
Y98032D01*
X192657Y97736D02*
X193247D01*
X192952Y97441D02*
Y98032D01*
X211306Y97736D02*
X211896D01*
X211601Y97441D02*
Y98032D01*
X207369Y97736D02*
X207959D01*
X207664Y97441D02*
Y98032D01*
X226018Y97736D02*
X226609D01*
X226314Y97441D02*
Y98032D01*
X222081Y97736D02*
X222672D01*
X222377Y97441D02*
Y98032D01*
X240731Y97736D02*
X241321D01*
X241026Y97441D02*
Y98032D01*
X236794Y97736D02*
X237384D01*
X237089Y97441D02*
Y98032D01*
X255345Y97736D02*
X255935D01*
X255640Y97441D02*
Y98032D01*
X251408Y97736D02*
X251998D01*
X251703Y97441D02*
Y98032D01*
X269959Y97736D02*
X270549D01*
X270254Y97441D02*
Y98032D01*
X266022Y97736D02*
X266612D01*
X266317Y97441D02*
Y98032D01*
X284573Y97736D02*
X285163D01*
X284868Y97441D02*
Y98032D01*
X280636Y97736D02*
X281226D01*
X280931Y97441D02*
Y98032D01*
X299187Y97736D02*
X299777D01*
X299482Y97441D02*
Y98032D01*
X313801Y97736D02*
X314391D01*
X314096Y97441D02*
Y98032D01*
X357544Y97736D02*
X358135D01*
X357839Y97441D02*
Y98032D01*
X353607Y97736D02*
X354198D01*
X353902Y97441D02*
Y98032D01*
X372060Y97736D02*
X372650D01*
X372355Y97441D02*
Y98032D01*
X368123Y97736D02*
X368713D01*
X368418Y97441D02*
Y98032D01*
X386575Y97736D02*
X387166D01*
X386870Y97441D02*
Y98032D01*
X382638Y97736D02*
X383229D01*
X382933Y97441D02*
Y98032D01*
X401091Y97736D02*
X401681D01*
X401386Y97441D02*
Y98032D01*
X397154Y97736D02*
X397744D01*
X397449Y97441D02*
Y98032D01*
X415606Y97736D02*
X416197D01*
X415902Y97441D02*
Y98032D01*
X411669Y97736D02*
X412260D01*
X411965Y97441D02*
Y98032D01*
X430122Y97736D02*
X430712D01*
X430417Y97441D02*
Y98032D01*
X426185Y97736D02*
X426775D01*
X426480Y97441D02*
Y98032D01*
X444637Y97736D02*
X445228D01*
X444933Y97441D02*
Y98032D01*
X440700Y97736D02*
X441291D01*
X440996Y97441D02*
Y98032D01*
X152456Y81988D02*
X153047D01*
X152752Y81693D02*
Y82284D01*
X167169Y81988D02*
X167759D01*
X167464Y81693D02*
Y82284D01*
X163232Y81988D02*
X163822D01*
X163527Y81693D02*
Y82284D01*
X181881Y81988D02*
X182472D01*
X182176Y81693D02*
Y82284D01*
X177944Y81988D02*
X178535D01*
X178239Y81693D02*
Y82284D01*
X196593Y81988D02*
X197184D01*
X196889Y81693D02*
Y82284D01*
X192657Y81988D02*
X193247D01*
X192952Y81693D02*
Y82284D01*
X211306Y81988D02*
X211896D01*
X211601Y81693D02*
Y82284D01*
X207369Y81988D02*
X207959D01*
X207664Y81693D02*
Y82284D01*
X226018Y81988D02*
X226609D01*
X226314Y81693D02*
Y82284D01*
X222081Y81988D02*
X222672D01*
X222377Y81693D02*
Y82284D01*
X240731Y81988D02*
X241321D01*
X241026Y81693D02*
Y82284D01*
X236794Y81988D02*
X237384D01*
X237089Y81693D02*
Y82284D01*
X255345Y81988D02*
X255935D01*
X255640Y81693D02*
Y82284D01*
X251408Y81988D02*
X251998D01*
X251703Y81693D02*
Y82284D01*
X269959Y81988D02*
X270549D01*
X270254Y81693D02*
Y82284D01*
X266022Y81988D02*
X266612D01*
X266317Y81693D02*
Y82284D01*
X284573Y81988D02*
X285163D01*
X284868Y81693D02*
Y82284D01*
X299187Y81988D02*
X299777D01*
X299482Y81693D02*
Y82284D01*
X343028Y81988D02*
X343619D01*
X343324Y81693D02*
Y82284D01*
X339091Y81988D02*
X339682D01*
X339387Y81693D02*
Y82284D01*
X357544Y81988D02*
X358135D01*
X357839Y81693D02*
Y82284D01*
X353607Y81988D02*
X354198D01*
X353902Y81693D02*
Y82284D01*
X372060Y81988D02*
X372650D01*
X372355Y81693D02*
Y82284D01*
X368123Y81988D02*
X368713D01*
X368418Y81693D02*
Y82284D01*
X386575Y81988D02*
X387166D01*
X386870Y81693D02*
Y82284D01*
X382638Y81988D02*
X383229D01*
X382933Y81693D02*
Y82284D01*
X401091Y81988D02*
X401681D01*
X401386Y81693D02*
Y82284D01*
X397154Y81988D02*
X397744D01*
X397449Y81693D02*
Y82284D01*
X415606Y81988D02*
X416197D01*
X415902Y81693D02*
Y82284D01*
X411669Y81988D02*
X412260D01*
X411965Y81693D02*
Y82284D01*
X430122Y81988D02*
X430712D01*
X430417Y81693D02*
Y82284D01*
X426185Y81988D02*
X426775D01*
X426480Y81693D02*
Y82284D01*
X444637Y81988D02*
X445228D01*
X444933Y81693D02*
Y82284D01*
X440700Y81988D02*
X441291D01*
X440996Y81693D02*
Y82284D01*
X152456Y66240D02*
X153047D01*
X152752Y65945D02*
Y66535D01*
X148519Y66240D02*
X149110D01*
X148815Y65945D02*
Y66535D01*
X167169Y66240D02*
X167759D01*
X167464Y65945D02*
Y66535D01*
X163232Y66240D02*
X163822D01*
X163527Y65945D02*
Y66535D01*
X181881Y66240D02*
X182472D01*
X182176Y65945D02*
Y66535D01*
X177944Y66240D02*
X178535D01*
X178239Y65945D02*
Y66535D01*
X196593Y66240D02*
X197184D01*
X196889Y65945D02*
Y66535D01*
X192657Y66240D02*
X193247D01*
X192952Y65945D02*
Y66535D01*
X211306Y66240D02*
X211896D01*
X211601Y65945D02*
Y66535D01*
X207369Y66240D02*
X207959D01*
X207664Y65945D02*
Y66535D01*
X226018Y66240D02*
X226609D01*
X226314Y65945D02*
Y66535D01*
X222081Y66240D02*
X222672D01*
X222377Y65945D02*
Y66535D01*
X240731Y66240D02*
X241321D01*
X241026Y65945D02*
Y66535D01*
X236794Y66240D02*
X237384D01*
X237089Y65945D02*
Y66535D01*
X255345Y66240D02*
X255935D01*
X255640Y65945D02*
Y66535D01*
X251408Y66240D02*
X251998D01*
X251703Y65945D02*
Y66535D01*
X269959Y66240D02*
X270549D01*
X270254Y65945D02*
Y66535D01*
X284573Y66240D02*
X285163D01*
X284868Y65945D02*
Y66535D01*
X328415Y66240D02*
X329005D01*
X328710Y65945D02*
Y66535D01*
X324478Y66240D02*
X325068D01*
X324773Y65945D02*
Y66535D01*
X343028Y66240D02*
X343619D01*
X343324Y65945D02*
Y66535D01*
X339091Y66240D02*
X339682D01*
X339387Y65945D02*
Y66535D01*
X357544Y66240D02*
X358135D01*
X357839Y65945D02*
Y66535D01*
X353607Y66240D02*
X354198D01*
X353902Y65945D02*
Y66535D01*
X372060Y66240D02*
X372650D01*
X372355Y65945D02*
Y66535D01*
X368123Y66240D02*
X368713D01*
X368418Y65945D02*
Y66535D01*
X386575Y66240D02*
X387166D01*
X386870Y65945D02*
Y66535D01*
X382638Y66240D02*
X383229D01*
X382933Y65945D02*
Y66535D01*
X401091Y66240D02*
X401681D01*
X401386Y65945D02*
Y66535D01*
X397154Y66240D02*
X397744D01*
X397449Y65945D02*
Y66535D01*
X415606Y66240D02*
X416197D01*
X415902Y65945D02*
Y66535D01*
X411669Y66240D02*
X412260D01*
X411965Y65945D02*
Y66535D01*
X430122Y66240D02*
X430712D01*
X430417Y65945D02*
Y66535D01*
X426185Y66240D02*
X426775D01*
X426480Y65945D02*
Y66535D01*
X444637Y66240D02*
X445228D01*
X444933Y65945D02*
Y66535D01*
X440700Y66240D02*
X441291D01*
X440996Y65945D02*
Y66535D01*
X123031Y50492D02*
X123622D01*
X123327Y50197D02*
Y50787D01*
X119095Y50492D02*
X119685D01*
X119390Y50197D02*
Y50787D01*
X137744Y50492D02*
X138334D01*
X138039Y50197D02*
Y50787D01*
X133807Y50492D02*
X134397D01*
X134102Y50197D02*
Y50787D01*
X152456Y50492D02*
X153047D01*
X152752Y50197D02*
Y50787D01*
X148519Y50492D02*
X149110D01*
X148815Y50197D02*
Y50787D01*
X167169Y50492D02*
X167759D01*
X167464Y50197D02*
Y50787D01*
X163232Y50492D02*
X163822D01*
X163527Y50197D02*
Y50787D01*
X181881Y50492D02*
X182472D01*
X182176Y50197D02*
Y50787D01*
X177944Y50492D02*
X178535D01*
X178239Y50197D02*
Y50787D01*
X196593Y50492D02*
X197184D01*
X196889Y50197D02*
Y50787D01*
X192657Y50492D02*
X193247D01*
X192952Y50197D02*
Y50787D01*
X211306Y50492D02*
X211896D01*
X211601Y50197D02*
Y50787D01*
X207369Y50492D02*
X207959D01*
X207664Y50197D02*
Y50787D01*
X226018Y50492D02*
X226609D01*
X226314Y50197D02*
Y50787D01*
X222081Y50492D02*
X222672D01*
X222377Y50197D02*
Y50787D01*
X240731Y50492D02*
X241321D01*
X241026Y50197D02*
Y50787D01*
X236794Y50492D02*
X237384D01*
X237089Y50197D02*
Y50787D01*
X255345Y50492D02*
X255935D01*
X255640Y50197D02*
Y50787D01*
X251408Y50492D02*
X251998D01*
X251703Y50197D02*
Y50787D01*
X269959Y50492D02*
X270549D01*
X270254Y50197D02*
Y50787D01*
X266022Y50492D02*
X266612D01*
X266317Y50197D02*
Y50787D01*
X284573Y50492D02*
X285163D01*
X284868Y50197D02*
Y50787D01*
X280636Y50492D02*
X281226D01*
X280931Y50197D02*
Y50787D01*
X299187Y50492D02*
X299777D01*
X299482Y50197D02*
Y50787D01*
X295250Y50492D02*
X295840D01*
X295545Y50197D02*
Y50787D01*
X313801Y50492D02*
X314391D01*
X314096Y50197D02*
Y50787D01*
X309863Y50492D02*
X310454D01*
X310159Y50197D02*
Y50787D01*
X328415Y50492D02*
X329005D01*
X328710Y50197D02*
Y50787D01*
X324478Y50492D02*
X325068D01*
X324773Y50197D02*
Y50787D01*
X343028Y50492D02*
X343619D01*
X343324Y50197D02*
Y50787D01*
X339091Y50492D02*
X339682D01*
X339387Y50197D02*
Y50787D01*
X357544Y50492D02*
X358135D01*
X357839Y50197D02*
Y50787D01*
X353607Y50492D02*
X354198D01*
X353902Y50197D02*
Y50787D01*
X372060Y50492D02*
X372650D01*
X372355Y50197D02*
Y50787D01*
X368123Y50492D02*
X368713D01*
X368418Y50197D02*
Y50787D01*
X386575Y50492D02*
X387166D01*
X386870Y50197D02*
Y50787D01*
X382638Y50492D02*
X383229D01*
X382933Y50197D02*
Y50787D01*
X401091Y50492D02*
X401681D01*
X401386Y50197D02*
Y50787D01*
X397154Y50492D02*
X397744D01*
X397449Y50197D02*
Y50787D01*
X415606Y50492D02*
X416197D01*
X415902Y50197D02*
Y50787D01*
X411669Y50492D02*
X412260D01*
X411965Y50197D02*
Y50787D01*
X430122Y50492D02*
X430712D01*
X430417Y50197D02*
Y50787D01*
X426185Y50492D02*
X426775D01*
X426480Y50197D02*
Y50787D01*
X444637Y50492D02*
X445228D01*
X444933Y50197D02*
Y50787D01*
X440700Y50492D02*
X441291D01*
X440996Y50197D02*
Y50787D01*
X123031Y34744D02*
X123622D01*
X123327Y34449D02*
Y35039D01*
X119095Y34744D02*
X119685D01*
X119390Y34449D02*
Y35039D01*
X137744Y34744D02*
X138334D01*
X138039Y34449D02*
Y35039D01*
X133807Y34744D02*
X134397D01*
X134102Y34449D02*
Y35039D01*
X152456Y34744D02*
X153047D01*
X152752Y34449D02*
Y35039D01*
X148519Y34744D02*
X149110D01*
X148815Y34449D02*
Y35039D01*
X167169Y34744D02*
X167759D01*
X167464Y34449D02*
Y35039D01*
X163232Y34744D02*
X163822D01*
X163527Y34449D02*
Y35039D01*
X181881Y34744D02*
X182472D01*
X182176Y34449D02*
Y35039D01*
X177944Y34744D02*
X178535D01*
X178239Y34449D02*
Y35039D01*
X196593Y34744D02*
X197184D01*
X196889Y34449D02*
Y35039D01*
X192657Y34744D02*
X193247D01*
X192952Y34449D02*
Y35039D01*
X211306Y34744D02*
X211896D01*
X211601Y34449D02*
Y35039D01*
X207369Y34744D02*
X207959D01*
X207664Y34449D02*
Y35039D01*
X226018Y34744D02*
X226609D01*
X226314Y34449D02*
Y35039D01*
X222081Y34744D02*
X222672D01*
X222377Y34449D02*
Y35039D01*
X240731Y34744D02*
X241321D01*
X241026Y34449D02*
Y35039D01*
X236794Y34744D02*
X237384D01*
X237089Y34449D02*
Y35039D01*
X255345Y34744D02*
X255935D01*
X255640Y34449D02*
Y35039D01*
X251408Y34744D02*
X251998D01*
X251703Y34449D02*
Y35039D01*
X269959Y34744D02*
X270549D01*
X270254Y34449D02*
Y35039D01*
X266022Y34744D02*
X266612D01*
X266317Y34449D02*
Y35039D01*
X284573Y34744D02*
X285163D01*
X284868Y34449D02*
Y35039D01*
X280636Y34744D02*
X281226D01*
X280931Y34449D02*
Y35039D01*
X299187Y34744D02*
X299777D01*
X299482Y34449D02*
Y35039D01*
X295250Y34744D02*
X295840D01*
X295545Y34449D02*
Y35039D01*
X313801Y34744D02*
X314391D01*
X314096Y34449D02*
Y35039D01*
X309863Y34744D02*
X310454D01*
X310159Y34449D02*
Y35039D01*
X328415Y34744D02*
X329005D01*
X328710Y34449D02*
Y35039D01*
X324478Y34744D02*
X325068D01*
X324773Y34449D02*
Y35039D01*
X343028Y34744D02*
X343619D01*
X343324Y34449D02*
Y35039D01*
X339091Y34744D02*
X339682D01*
X339387Y34449D02*
Y35039D01*
X357544Y34744D02*
X358135D01*
X357839Y34449D02*
Y35039D01*
X353607Y34744D02*
X354198D01*
X353902Y34449D02*
Y35039D01*
X372060Y34744D02*
X372650D01*
X372355Y34449D02*
Y35039D01*
X368123Y34744D02*
X368713D01*
X368418Y34449D02*
Y35039D01*
X386575Y34744D02*
X387166D01*
X386870Y34449D02*
Y35039D01*
X382638Y34744D02*
X383229D01*
X382933Y34449D02*
Y35039D01*
X401091Y34744D02*
X401681D01*
X401386Y34449D02*
Y35039D01*
X397154Y34744D02*
X397744D01*
X397449Y34449D02*
Y35039D01*
X415606Y34744D02*
X416197D01*
X415902Y34449D02*
Y35039D01*
X411669Y34744D02*
X412260D01*
X411965Y34449D02*
Y35039D01*
X430122Y34744D02*
X430712D01*
X430417Y34449D02*
Y35039D01*
X426185Y34744D02*
X426775D01*
X426480Y34449D02*
Y35039D01*
X444637Y34744D02*
X445228D01*
X444933Y34449D02*
Y35039D01*
X440700Y34744D02*
X441291D01*
X440996Y34449D02*
Y35039D01*
X121063Y18996D02*
X121653D01*
X121358Y18701D02*
Y19291D01*
X455216Y18996D02*
X455806D01*
X455511Y18701D02*
Y19291D01*
X459153Y18996D02*
X459743D01*
X459448Y18701D02*
Y19291D01*
X440700Y18996D02*
X441291D01*
X440996Y18701D02*
Y19291D01*
X444637Y18996D02*
X445228D01*
X444933Y18701D02*
Y19291D01*
X426185Y18996D02*
X426775D01*
X426480Y18701D02*
Y19291D01*
X430122Y18996D02*
X430712D01*
X430417Y18701D02*
Y19291D01*
X411669Y18996D02*
X412260D01*
X411965Y18701D02*
Y19291D01*
X415606Y18996D02*
X416197D01*
X415902Y18701D02*
Y19291D01*
X397154Y18996D02*
X397744D01*
X397449Y18701D02*
Y19291D01*
X401091Y18996D02*
X401681D01*
X401386Y18701D02*
Y19291D01*
X382638Y18996D02*
X383229D01*
X382933Y18701D02*
Y19291D01*
X386575Y18996D02*
X387166D01*
X386870Y18701D02*
Y19291D01*
X368123Y18996D02*
X368713D01*
X368418Y18701D02*
Y19291D01*
X372060Y18996D02*
X372650D01*
X372355Y18701D02*
Y19291D01*
X353607Y18996D02*
X354198D01*
X353902Y18701D02*
Y19291D01*
X357544Y18996D02*
X358135D01*
X357839Y18701D02*
Y19291D01*
X339091Y18996D02*
X339682D01*
X339387Y18701D02*
Y19291D01*
X343028Y18996D02*
X343619D01*
X343324Y18701D02*
Y19291D01*
X324478Y18996D02*
X325068D01*
X324773Y18701D02*
Y19291D01*
X328415Y18996D02*
X329005D01*
X328710Y18701D02*
Y19291D01*
X309863Y18996D02*
X310454D01*
X310159Y18701D02*
Y19291D01*
X313801Y18996D02*
X314391D01*
X314096Y18701D02*
Y19291D01*
X295250Y18996D02*
X295840D01*
X295545Y18701D02*
Y19291D01*
X299187Y18996D02*
X299777D01*
X299482Y18701D02*
Y19291D01*
X280636Y18996D02*
X281226D01*
X280931Y18701D02*
Y19291D01*
X284573Y18996D02*
X285163D01*
X284868Y18701D02*
Y19291D01*
X266022Y18996D02*
X266612D01*
X266317Y18701D02*
Y19291D01*
X269959Y18996D02*
X270549D01*
X270254Y18701D02*
Y19291D01*
X251408Y18996D02*
X251998D01*
X251703Y18701D02*
Y19291D01*
X255345Y18996D02*
X255935D01*
X255640Y18701D02*
Y19291D01*
X236794Y18996D02*
X237384D01*
X237089Y18701D02*
Y19291D01*
X240731Y18996D02*
X241321D01*
X241026Y18701D02*
Y19291D01*
X222081Y18996D02*
X222672D01*
X222377Y18701D02*
Y19291D01*
X226018Y18996D02*
X226609D01*
X226314Y18701D02*
Y19291D01*
X207369Y18996D02*
X207959D01*
X207664Y18701D02*
Y19291D01*
X211306Y18996D02*
X211896D01*
X211601Y18701D02*
Y19291D01*
X192657Y18996D02*
X193247D01*
X192952Y18701D02*
Y19291D01*
X196593Y18996D02*
X197184D01*
X196889Y18701D02*
Y19291D01*
X177944Y18996D02*
X178535D01*
X178239Y18701D02*
Y19291D01*
X181881Y18996D02*
X182472D01*
X182176Y18701D02*
Y19291D01*
X163232Y18996D02*
X163822D01*
X163527Y18701D02*
Y19291D01*
X167169Y18996D02*
X167759D01*
X167464Y18701D02*
Y19291D01*
X148519Y18996D02*
X149110D01*
X148815Y18701D02*
Y19291D01*
X152456Y18996D02*
X153047D01*
X152752Y18701D02*
Y19291D01*
X133807Y18996D02*
X134397D01*
X134102Y18701D02*
Y19291D01*
X137744Y18996D02*
X138334D01*
X138039Y18701D02*
Y19291D01*
X119095Y18996D02*
X119685D01*
X119390Y18701D02*
Y19291D01*
X123031Y18996D02*
X123622D01*
X123327Y18701D02*
Y19291D01*
M02*
