G04*
G04 #@! TF.GenerationSoftware,Altium Limited,Altium Designer,22.7.1 (60)*
G04*
G04 Layer_Color=65535*
%FSLAX25Y25*%
%MOIN*%
G70*
G04*
G04 #@! TF.SameCoordinates,EB09720E-E5E6-4C8F-983A-54733B733D7F*
G04*
G04*
G04 #@! TF.FilePolarity,Positive*
G04*
G01*
G75*
%ADD10C,0.00787*%
%ADD11C,0.00394*%
G36*
X123721Y165354D02*
X121358Y162992D01*
Y167717D01*
X123721Y165354D01*
D02*
G37*
G36*
X173913Y166067D02*
X171551Y163705D01*
Y168429D01*
X173913Y166067D01*
D02*
G37*
G36*
X484445Y138126D02*
X484481Y138053D01*
X484554Y137944D01*
X484590Y137908D01*
X484627Y137871D01*
X484663Y137835D01*
Y137798D01*
X484554Y137725D01*
X484481Y137616D01*
X484335Y137507D01*
X484153Y137324D01*
X483898Y137069D01*
X483861Y137033D01*
X483752Y136960D01*
X483606Y136814D01*
X483424Y136595D01*
X482950Y136121D01*
X482403Y135575D01*
Y135538D01*
X482331Y135502D01*
X482112Y135283D01*
X481820Y134919D01*
X481419Y134481D01*
X480945Y133934D01*
X480472Y133315D01*
X479961Y132622D01*
X479451Y131893D01*
Y131857D01*
X479415Y131820D01*
X479342Y131711D01*
X479232Y131565D01*
X479013Y131201D01*
X478758Y130763D01*
X478467Y130253D01*
X478175Y129743D01*
X477884Y129196D01*
X477665Y128686D01*
X475952Y127374D01*
Y127410D01*
X475915Y127483D01*
X475842Y127629D01*
X475733Y127884D01*
X475660Y128066D01*
X475551Y128285D01*
X475441Y128503D01*
X475332Y128795D01*
X475186Y129123D01*
X475004Y129488D01*
Y129524D01*
X474968Y129597D01*
X474931Y129670D01*
X474858Y129816D01*
X474676Y130180D01*
X474457Y130545D01*
X474166Y130946D01*
X473911Y131274D01*
X473765Y131419D01*
X473619Y131492D01*
X473473Y131565D01*
X473327D01*
X473400Y131638D01*
X473473Y131711D01*
X473583Y131820D01*
X473728Y131966D01*
X473947Y132148D01*
X473983Y132185D01*
X474056Y132221D01*
X474166Y132331D01*
X474311Y132440D01*
X474457Y132513D01*
X474640Y132586D01*
X474822Y132622D01*
X474968Y132586D01*
X475040Y132549D01*
X475186Y132476D01*
X475368Y132331D01*
X475587Y132112D01*
X475624Y132076D01*
X475660Y132003D01*
X475733Y131857D01*
X475842Y131675D01*
X476097Y131274D01*
X476316Y130800D01*
Y130763D01*
X476353Y130727D01*
X476462Y130508D01*
X476571Y130326D01*
X476608Y130253D01*
Y130217D01*
X476644Y130253D01*
X476681Y130289D01*
X476754Y130399D01*
X476863Y130617D01*
X477082Y130873D01*
X477337Y131274D01*
X477519Y131492D01*
X477701Y131784D01*
Y131820D01*
X477738Y131857D01*
X477920Y132076D01*
X478139Y132367D01*
X478467Y132805D01*
X478868Y133315D01*
X479378Y133862D01*
X479925Y134481D01*
X480508Y135137D01*
X480544Y135174D01*
X480581Y135210D01*
X480800Y135429D01*
X481128Y135757D01*
X481565Y136121D01*
X482039Y136559D01*
X482622Y137033D01*
X483205Y137470D01*
X483825Y137871D01*
X483861D01*
X483898Y137908D01*
X484007Y137980D01*
X484044Y138017D01*
X484153Y138053D01*
X484299Y138126D01*
X484445Y138163D01*
Y138126D01*
D02*
G37*
G36*
X484299Y127483D02*
X484627Y127374D01*
X484918Y127155D01*
X484991Y127118D01*
X485101Y126936D01*
X485210Y126681D01*
X485283Y126280D01*
X484918D01*
Y126316D01*
Y126353D01*
X484882Y126499D01*
X484809Y126717D01*
X484663Y126936D01*
X484627Y126972D01*
X484481Y127045D01*
X484262Y127118D01*
X483934Y127155D01*
X483679D01*
X483460Y127082D01*
X483242Y127009D01*
X483205Y126972D01*
X483132Y126863D01*
X483060Y126645D01*
X483023Y126389D01*
Y126353D01*
X483060Y126243D01*
X483096Y126098D01*
X483169Y125952D01*
X483205Y125916D01*
X483315Y125879D01*
X483460Y125806D01*
X483679Y125733D01*
X484153Y125587D01*
X484189D01*
X484262Y125551D01*
X484372Y125514D01*
X484517Y125478D01*
X484845Y125332D01*
X485101Y125150D01*
X485137Y125077D01*
X485283Y124931D01*
X485392Y124713D01*
X485429Y124421D01*
Y124385D01*
Y124348D01*
X485392Y124129D01*
X485283Y123838D01*
X485064Y123583D01*
X484991Y123546D01*
X484809Y123437D01*
X484481Y123291D01*
X484044Y123255D01*
X483934D01*
X483788Y123291D01*
X483643D01*
X483278Y123400D01*
X482914Y123619D01*
X482841Y123692D01*
X482731Y123874D01*
X482622Y124166D01*
X482549Y124567D01*
Y124603D01*
X482914D01*
Y124567D01*
Y124530D01*
X482950Y124348D01*
X483023Y124093D01*
X483205Y123874D01*
X483278Y123838D01*
X483424Y123729D01*
X483716Y123619D01*
X484044Y123583D01*
X484117D01*
X484299Y123619D01*
X484517Y123692D01*
X484773Y123801D01*
X484809Y123838D01*
X484918Y123947D01*
X485028Y124129D01*
X485064Y124385D01*
Y124458D01*
X485028Y124567D01*
X484991Y124749D01*
X484882Y124895D01*
X484845Y124931D01*
X484700Y125004D01*
X484445Y125114D01*
X484080Y125223D01*
X483716Y125332D01*
X483679D01*
X483606Y125369D01*
X483351Y125442D01*
X483060Y125551D01*
X482950Y125660D01*
X482841Y125733D01*
X482804Y125770D01*
X482731Y125916D01*
X482658Y126134D01*
X482622Y126426D01*
Y126462D01*
Y126499D01*
X482658Y126717D01*
X482768Y126936D01*
X482987Y127191D01*
X483023D01*
X483060Y127228D01*
X483242Y127374D01*
X483570Y127483D01*
X483934Y127519D01*
X484153D01*
X484299Y127483D01*
D02*
G37*
G36*
X481820Y123364D02*
X481456D01*
Y125296D01*
X479159D01*
Y123364D01*
X478795D01*
Y127410D01*
X479159D01*
Y125660D01*
X481456D01*
Y127410D01*
X481820D01*
Y123364D01*
D02*
G37*
G36*
X473983Y127374D02*
X474093D01*
X474202Y127337D01*
X474311Y127301D01*
X474421Y127228D01*
X474457Y127191D01*
X474567Y127118D01*
X474676Y127009D01*
X474785Y126863D01*
X474822Y126827D01*
X474858Y126717D01*
X474895Y126572D01*
X474931Y126353D01*
Y126280D01*
X474895Y126134D01*
X474858Y125916D01*
X474749Y125697D01*
X474712Y125660D01*
X474603Y125551D01*
X474457Y125442D01*
X474275Y125332D01*
X474311D01*
X474421Y125296D01*
X474640Y125114D01*
Y125077D01*
X474676Y124968D01*
X474712Y124749D01*
X474749Y124421D01*
X474822Y123801D01*
Y123765D01*
Y123656D01*
X474858Y123619D01*
Y123583D01*
X474895Y123510D01*
X474968Y123437D01*
Y123364D01*
X474530D01*
Y123400D01*
Y123473D01*
X474494Y123546D01*
Y123583D01*
X474457Y123656D01*
Y123692D01*
Y123801D01*
X474421Y124312D01*
Y124348D01*
Y124385D01*
X474384Y124603D01*
X474311Y124858D01*
X474202Y125041D01*
X474166Y125077D01*
X474093Y125114D01*
X473911Y125150D01*
X472416D01*
Y123364D01*
X472052D01*
Y127410D01*
X473911D01*
X473983Y127374D01*
D02*
G37*
G36*
X477009Y126316D02*
X477155D01*
X477483Y126171D01*
X477628Y126098D01*
X477774Y125952D01*
Y125916D01*
X477811Y125879D01*
X477884Y125770D01*
X477956Y125660D01*
X478066Y125296D01*
X478102Y124822D01*
Y124785D01*
Y124713D01*
Y124567D01*
X478066Y124421D01*
X477956Y124056D01*
X477774Y123692D01*
X477701Y123619D01*
X477519Y123510D01*
X477191Y123364D01*
X477009Y123328D01*
X476790Y123291D01*
X476681D01*
X476571Y123328D01*
X476426D01*
X476097Y123473D01*
X475952Y123546D01*
X475806Y123692D01*
Y123729D01*
X475733Y123765D01*
X475624Y123984D01*
X475514Y124348D01*
X475441Y124822D01*
Y124858D01*
Y124931D01*
X475478Y125077D01*
Y125223D01*
X475587Y125624D01*
X475806Y125952D01*
Y125988D01*
X475879Y126025D01*
X476061Y126171D01*
X476353Y126280D01*
X476571Y126353D01*
X476899D01*
X477009Y126316D01*
D02*
G37*
G36*
X475922Y228659D02*
Y228586D01*
X476323Y226654D01*
Y226618D01*
X476360Y226581D01*
X476396Y226545D01*
X477708Y225998D01*
X477818D01*
X479458Y227164D01*
X479531D01*
X479604Y227128D01*
X480989Y225779D01*
Y225743D01*
Y225706D01*
Y225670D01*
Y225634D01*
X479895Y223993D01*
Y223920D01*
Y223884D01*
Y223848D01*
X480478Y222499D01*
Y222462D01*
X480515Y222426D01*
X480588D01*
X482447Y222098D01*
X482483D01*
X482520Y222061D01*
Y221989D01*
Y220057D01*
Y220020D01*
X482483Y219984D01*
X482447Y219947D01*
X480624Y219583D01*
X480588D01*
X480551Y219546D01*
Y219474D01*
X479932Y218052D01*
Y218016D01*
Y217979D01*
Y217943D01*
Y217906D01*
X480989Y216375D01*
Y216302D01*
Y216266D01*
X479604Y214881D01*
X479567Y214844D01*
X479531D01*
X479458Y214881D01*
X477963Y215901D01*
X477818D01*
X477198Y215537D01*
X477125D01*
X477089Y215573D01*
X475703Y218890D01*
Y218927D01*
X475740Y219036D01*
X475922Y219109D01*
X475959Y219145D01*
X475995Y219182D01*
X476031Y219218D01*
X476068Y219255D01*
X476177Y219328D01*
X476360Y219474D01*
X476542Y219656D01*
X476688Y219911D01*
X476870Y220202D01*
X476979Y220567D01*
X477016Y220968D01*
Y221004D01*
Y221114D01*
X476979Y221296D01*
X476943Y221515D01*
X476870Y221733D01*
X476760Y221989D01*
X476615Y222244D01*
X476396Y222499D01*
X476360Y222535D01*
X476287Y222608D01*
X476141Y222717D01*
X475959Y222827D01*
X475740Y222936D01*
X475485Y223046D01*
X475193Y223118D01*
X474865Y223155D01*
X474719D01*
X474537Y223118D01*
X474355Y223082D01*
X474100Y223009D01*
X473844Y222863D01*
X473589Y222717D01*
X473334Y222499D01*
X473298Y222462D01*
X473225Y222390D01*
X473152Y222244D01*
X473043Y222061D01*
X472897Y221843D01*
X472824Y221588D01*
X472751Y221296D01*
X472715Y220968D01*
Y220932D01*
Y220786D01*
X472751Y220567D01*
X472824Y220312D01*
X472970Y220020D01*
X473115Y219729D01*
X473371Y219474D01*
X473699Y219218D01*
X473735Y219182D01*
X473772Y219145D01*
X473808D01*
Y219109D01*
X473990Y219036D01*
X474027Y219000D01*
Y218890D01*
X472678Y215573D01*
X472642D01*
X472532Y215537D01*
X471876Y215901D01*
X471767D01*
X470272Y214881D01*
X470236Y214844D01*
X470199D01*
X470127Y214881D01*
X468705Y216266D01*
Y216302D01*
Y216339D01*
Y216375D01*
X469799Y217906D01*
Y217943D01*
Y217979D01*
Y218016D01*
Y218052D01*
X469179Y219474D01*
Y219510D01*
Y219546D01*
X469142Y219583D01*
X469106D01*
X467283Y219947D01*
X467247D01*
X467211Y219984D01*
Y220057D01*
Y221989D01*
Y222025D01*
Y222061D01*
X467247Y222098D01*
X467283D01*
X469142Y222426D01*
X469179D01*
X469288Y222499D01*
X469835Y223848D01*
Y223884D01*
Y223920D01*
Y223957D01*
Y223993D01*
X468705Y225634D01*
Y225670D01*
Y225706D01*
Y225743D01*
Y225779D01*
X470127Y227128D01*
X470163Y227164D01*
X470272D01*
X471876Y225998D01*
X472022D01*
X473334Y226545D01*
X473371D01*
X473407Y226581D01*
Y226654D01*
X473808Y228586D01*
Y228622D01*
Y228659D01*
X473844Y228695D01*
X475886D01*
X475922Y228659D01*
D02*
G37*
G36*
X481171Y213204D02*
X481317Y213131D01*
X480989Y212730D01*
Y212767D01*
X480916Y212803D01*
X480843Y212840D01*
X480770Y212876D01*
X480697D01*
X480588Y212840D01*
X480442Y212694D01*
X480406Y212584D01*
X480369Y212439D01*
Y211199D01*
X479932D01*
Y213277D01*
X480369D01*
Y213022D01*
X480406Y213058D01*
X480478Y213168D01*
X480661Y213241D01*
X480916Y213277D01*
X481025D01*
X481171Y213204D01*
D02*
G37*
G36*
X472350D02*
X472459Y213095D01*
X472569Y212985D01*
X472642Y212803D01*
X472678Y212548D01*
Y211199D01*
X472277D01*
Y212439D01*
Y212475D01*
Y212511D01*
X472241Y212657D01*
X472095Y212803D01*
X471986Y212876D01*
X471767D01*
X471658Y212840D01*
X471512Y212694D01*
X471475Y212584D01*
X471439Y212439D01*
Y211199D01*
X471001D01*
Y213277D01*
X471439D01*
Y213022D01*
X471475Y213058D01*
X471548Y213168D01*
X471730Y213241D01*
X471986Y213277D01*
X472095D01*
X472350Y213204D01*
D02*
G37*
G36*
X468158Y213241D02*
X468377Y213168D01*
X468559Y213022D01*
X468596Y212985D01*
X468632Y212840D01*
X468669Y212584D01*
Y212220D01*
Y212183D01*
Y212111D01*
Y211892D01*
X468632Y211637D01*
X468596Y211527D01*
X468559Y211455D01*
X468523Y211418D01*
X468377Y211309D01*
X468195Y211199D01*
X467976Y211163D01*
X467940D01*
X467830Y211199D01*
X467648Y211272D01*
X467429Y211382D01*
Y209778D01*
X467466Y209814D01*
X467539Y209887D01*
X467721Y209960D01*
X467976Y209997D01*
X468085D01*
X468341Y209924D01*
X468450Y209814D01*
X468559Y209705D01*
X468632Y209523D01*
X468669Y209304D01*
Y207955D01*
X468268D01*
Y209158D01*
Y209195D01*
Y209231D01*
X468231Y209413D01*
X468085Y209559D01*
X467976Y209595D01*
X467830Y209632D01*
X467757D01*
X467648Y209559D01*
X467502Y209450D01*
X467466Y209304D01*
X467429Y209158D01*
Y207955D01*
X467065D01*
Y213277D01*
X467429D01*
Y213022D01*
X467466Y213058D01*
X467575Y213168D01*
X467757Y213241D01*
X467976Y213277D01*
X468049D01*
X468158Y213241D01*
D02*
G37*
G36*
X474974D02*
X475230Y213168D01*
X475485Y212985D01*
X475230Y212694D01*
X475157Y212730D01*
X475011Y212803D01*
X474829Y212840D01*
X474683Y212876D01*
X474610D01*
X474501Y212840D01*
X474391Y212803D01*
X474318Y212657D01*
Y212621D01*
X474355Y212584D01*
X474428Y212511D01*
X474574Y212475D01*
X474974Y212439D01*
X475011D01*
X475084Y212402D01*
X475266Y212329D01*
X475485Y212147D01*
X475521Y212001D01*
X475558Y211819D01*
Y211783D01*
Y211710D01*
X475521Y211600D01*
X475448Y211491D01*
X475339Y211382D01*
X475193Y211272D01*
X474974Y211199D01*
X474683Y211163D01*
X474610D01*
X474391Y211199D01*
X474100Y211309D01*
X473808Y211527D01*
X474063Y211819D01*
X474100Y211783D01*
X474246Y211673D01*
X474464Y211564D01*
X474719Y211527D01*
X474792D01*
X474938Y211564D01*
X475084Y211637D01*
X475157Y211710D01*
Y211819D01*
Y211855D01*
X475120Y211892D01*
X475047Y211965D01*
X474865Y212038D01*
X474464D01*
X474428Y212074D01*
X474209Y212147D01*
X474027Y212329D01*
X473954Y212475D01*
X473917Y212657D01*
Y212694D01*
Y212767D01*
X474027Y212985D01*
X474100Y213095D01*
X474246Y213168D01*
X474428Y213241D01*
X474683Y213277D01*
X474756D01*
X474974Y213241D01*
D02*
G37*
G36*
X482483D02*
X482702Y213131D01*
X482957Y212949D01*
X482629Y212657D01*
X482592Y212694D01*
X482520Y212767D01*
X482410Y212840D01*
X482228Y212876D01*
X482155D01*
X481973Y212803D01*
X481863Y212730D01*
X481754Y212584D01*
X481718Y212439D01*
X481681Y212220D01*
Y212183D01*
Y212111D01*
X481754Y211928D01*
X481827Y211783D01*
X481900Y211710D01*
X482046Y211637D01*
X482228Y211600D01*
X482265D01*
X482374Y211637D01*
X482483Y211710D01*
X482629Y211819D01*
X482957Y211527D01*
X482921Y211455D01*
X482775Y211345D01*
X482520Y211236D01*
X482228Y211163D01*
X482082D01*
X481936Y211236D01*
X481754Y211309D01*
X481572Y211418D01*
X481426Y211600D01*
X481317Y211855D01*
X481280Y212220D01*
Y212256D01*
Y212402D01*
X481317Y212548D01*
X481390Y212767D01*
X481499Y212949D01*
X481681Y213131D01*
X481900Y213241D01*
X482228Y213277D01*
X482301D01*
X482483Y213241D01*
D02*
G37*
G36*
X479458Y211199D02*
X479057D01*
Y211382D01*
X479020Y211345D01*
X478911Y211272D01*
X478729Y211199D01*
X478547Y211163D01*
X478437D01*
X478182Y211236D01*
X478036Y211345D01*
X477927Y211455D01*
X477854Y211637D01*
X477818Y211855D01*
Y213277D01*
X478255D01*
Y212038D01*
Y211965D01*
X478328Y211819D01*
X478437Y211673D01*
X478547Y211637D01*
X478692Y211600D01*
X478765D01*
X478875Y211673D01*
X478984Y211783D01*
X479057Y211892D01*
Y212038D01*
Y213277D01*
X479458D01*
Y211199D01*
D02*
G37*
G36*
X484160Y213241D02*
X484342Y213168D01*
X484488Y213058D01*
X484634Y212913D01*
X484743Y212730D01*
X484780Y212439D01*
Y212038D01*
X483467D01*
Y212001D01*
Y211965D01*
X483540Y211783D01*
X483686Y211600D01*
X483795Y211564D01*
X483978Y211527D01*
X484014D01*
X484123Y211564D01*
X484269Y211637D01*
X484379Y211783D01*
X484707Y211491D01*
X484634Y211455D01*
X484488Y211345D01*
X484269Y211199D01*
X483978Y211163D01*
X483832D01*
X483686Y211236D01*
X483504Y211309D01*
X483322Y211418D01*
X483176Y211600D01*
X483066Y211855D01*
X483030Y212220D01*
Y212256D01*
Y212402D01*
X483066Y212548D01*
X483139Y212767D01*
X483249Y212949D01*
X483394Y213131D01*
X483577Y213241D01*
X483868Y213277D01*
X484014D01*
X484160Y213241D01*
D02*
G37*
G36*
X476870D02*
X477052Y213168D01*
X477234Y213022D01*
X477271Y212985D01*
X477344Y212840D01*
X477417Y212584D01*
X477453Y212220D01*
Y212183D01*
Y212147D01*
X477417Y211928D01*
X477380Y211673D01*
X477234Y211455D01*
X477198Y211418D01*
X477089Y211309D01*
X476906Y211199D01*
X476615Y211163D01*
X476542D01*
X476396Y211199D01*
X476214Y211272D01*
X475995Y211455D01*
X475959Y211491D01*
X475886Y211637D01*
X475813Y211892D01*
X475776Y212220D01*
Y212256D01*
Y212293D01*
X475813Y212511D01*
X475886Y212803D01*
X475995Y213022D01*
X476031Y213058D01*
X476141Y213168D01*
X476360Y213241D01*
X476615Y213277D01*
X476688D01*
X476870Y213241D01*
D02*
G37*
G36*
X470090D02*
X470236Y213168D01*
X470382Y213058D01*
X470528Y212913D01*
X470637Y212730D01*
X470673Y212439D01*
Y212038D01*
X469361D01*
Y212001D01*
Y211965D01*
X469434Y211783D01*
X469580Y211600D01*
X469689Y211564D01*
X469835Y211527D01*
X469908D01*
X470017Y211564D01*
X470163Y211637D01*
X470309Y211783D01*
X470637Y211491D01*
X470564Y211455D01*
X470418Y211345D01*
X470163Y211199D01*
X469872Y211163D01*
X469726D01*
X469580Y211236D01*
X469434Y211309D01*
X469252Y211418D01*
X469106Y211600D01*
X468997Y211855D01*
X468960Y212220D01*
Y212256D01*
Y212402D01*
X468997Y212548D01*
X469070Y212767D01*
X469179Y212949D01*
X469325Y213131D01*
X469507Y213241D01*
X469799Y213277D01*
X469944D01*
X470090Y213241D01*
D02*
G37*
G36*
X466117D02*
X466299Y213168D01*
X466445Y213022D01*
X466482Y212985D01*
X466554Y212840D01*
X466627Y212584D01*
X466664Y212220D01*
Y212183D01*
Y212147D01*
X466627Y211928D01*
X466591Y211673D01*
X466445Y211455D01*
X466409Y211418D01*
X466299Y211309D01*
X466117Y211199D01*
X465862Y211163D01*
X465789D01*
X465643Y211199D01*
X465425Y211272D01*
X465206Y211455D01*
X465169Y211491D01*
X465133Y211637D01*
X465060Y211892D01*
X465024Y212220D01*
Y212256D01*
Y212293D01*
X465060Y212511D01*
X465097Y212767D01*
X465206Y213022D01*
X465242Y213058D01*
X465388Y213168D01*
X465570Y213241D01*
X465862Y213277D01*
X465935D01*
X466117Y213241D01*
D02*
G37*
G36*
X480661Y209924D02*
X480806Y209851D01*
X480478Y209486D01*
X480442Y209523D01*
X480406Y209559D01*
X480296Y209595D01*
X480223Y209632D01*
X480150D01*
X480041Y209559D01*
X479895Y209450D01*
X479859Y209304D01*
X479822Y209158D01*
Y207955D01*
X479421D01*
Y209997D01*
X479822D01*
Y209778D01*
X479859Y209814D01*
X479968Y209887D01*
X480150Y209960D01*
X480406Y209997D01*
X480515D01*
X480661Y209924D01*
D02*
G37*
G36*
X474136Y207955D02*
X473699D01*
Y208137D01*
X473662Y208101D01*
X473553Y208028D01*
X473407Y207955D01*
X473188Y207919D01*
X473115D01*
X472970Y207955D01*
X472788Y208028D01*
X472642Y208174D01*
X472605Y208210D01*
X472569Y208320D01*
X472532Y208429D01*
Y208575D01*
X472496Y208757D01*
Y208976D01*
Y209012D01*
Y209085D01*
X472532Y209340D01*
X472569Y209595D01*
X472605Y209705D01*
X472642Y209778D01*
X472678Y209814D01*
X472751Y209887D01*
X472933Y209960D01*
X473188Y209997D01*
X473225D01*
X473371Y209960D01*
X473517Y209924D01*
X473699Y209778D01*
Y210835D01*
X474136D01*
Y207955D01*
D02*
G37*
G36*
X472314Y209924D02*
X472496Y209851D01*
X472168Y209486D01*
X472131Y209523D01*
X472095Y209559D01*
X471986Y209595D01*
X471876Y209632D01*
X471803D01*
X471694Y209559D01*
X471585Y209450D01*
X471512Y209304D01*
Y209158D01*
Y207955D01*
X471111D01*
Y209997D01*
X471512D01*
Y209778D01*
X471548Y209814D01*
X471658Y209887D01*
X471803Y209960D01*
X472022Y209997D01*
X472168D01*
X472314Y209924D01*
D02*
G37*
G36*
X476615Y207955D02*
X476250D01*
X475776Y209413D01*
X475375Y207955D01*
X475011D01*
X474355Y209997D01*
X474756D01*
X475193Y208575D01*
X475667Y209997D01*
X475995D01*
X476433Y208575D01*
X476833Y209997D01*
X477271D01*
X476615Y207955D01*
D02*
G37*
G36*
X478364Y209960D02*
X478547Y209924D01*
X478692Y209851D01*
X478802Y209705D01*
X478911Y209559D01*
X478947Y209340D01*
Y207955D01*
X478547D01*
Y208137D01*
X478510Y208101D01*
X478437Y208028D01*
X478255Y207955D01*
X478036Y207919D01*
X477927D01*
X477672Y207992D01*
X477526Y208065D01*
X477380Y208210D01*
X477307Y208356D01*
X477271Y208575D01*
Y208611D01*
Y208684D01*
X477344Y208867D01*
X477453Y208976D01*
X477562Y209085D01*
X477745Y209122D01*
X477963Y209158D01*
X478547D01*
Y209340D01*
Y209377D01*
X478510Y209486D01*
X478364Y209595D01*
X478255Y209632D01*
X477963D01*
X477818Y209559D01*
X477745Y209486D01*
X477417Y209741D01*
X477453Y209778D01*
X477562Y209887D01*
X477781Y209960D01*
X477927Y209997D01*
X478255D01*
X478364Y209960D01*
D02*
G37*
G36*
X470054D02*
X470199Y209924D01*
X470345Y209851D01*
X470491Y209705D01*
X470601Y209559D01*
X470637Y209340D01*
Y207955D01*
X470199D01*
Y208137D01*
X470163Y208101D01*
X470090Y208028D01*
X469944Y207955D01*
X469689Y207919D01*
X469580D01*
X469325Y207992D01*
X469179Y208065D01*
X469070Y208210D01*
X468997Y208356D01*
X468960Y208575D01*
Y208611D01*
Y208684D01*
X469033Y208867D01*
X469142Y208976D01*
X469252Y209085D01*
X469434Y209122D01*
X469653Y209158D01*
X470199D01*
Y209340D01*
Y209377D01*
X470163Y209486D01*
X470017Y209595D01*
X469944Y209632D01*
X469653D01*
X469507Y209559D01*
X469361Y209486D01*
X469070Y209741D01*
X469106Y209778D01*
X469252Y209887D01*
X469471Y209960D01*
X469762Y209997D01*
X469908D01*
X470054Y209960D01*
D02*
G37*
G36*
X481936D02*
X482082Y209887D01*
X482228Y209778D01*
X482374Y209632D01*
X482483Y209450D01*
X482520Y209158D01*
Y208794D01*
X481244D01*
Y208757D01*
Y208721D01*
X481317Y208539D01*
X481426Y208356D01*
X481535Y208320D01*
X481681Y208283D01*
X481754D01*
X481863Y208320D01*
X482009Y208393D01*
X482155Y208502D01*
X482483Y208247D01*
X482410Y208210D01*
X482265Y208101D01*
X482046Y207955D01*
X481754Y207919D01*
X481608D01*
X481463Y207992D01*
X481280Y208065D01*
X481098Y208174D01*
X480952Y208356D01*
X480843Y208611D01*
X480806Y208976D01*
Y209012D01*
Y209122D01*
X480843Y209304D01*
X480916Y209486D01*
X481025Y209668D01*
X481171Y209851D01*
X481353Y209960D01*
X481645Y209997D01*
X481791D01*
X481936Y209960D01*
D02*
G37*
%LPC*%
G36*
X473692Y127082D02*
X472416D01*
Y125514D01*
X473583D01*
X473801Y125551D01*
X474056Y125587D01*
X474311Y125697D01*
X474348Y125733D01*
X474421Y125843D01*
X474494Y126025D01*
X474530Y126316D01*
Y126353D01*
Y126426D01*
X474494Y126535D01*
X474457Y126681D01*
Y126717D01*
X474421Y126754D01*
X474239Y126936D01*
X474202D01*
X474166Y126972D01*
X473947Y127009D01*
X473911D01*
X473838Y127045D01*
X473692Y127082D01*
D02*
G37*
G36*
X476790Y126061D02*
X476717D01*
X476535Y126025D01*
X476280Y125916D01*
X476061Y125733D01*
X476025Y125660D01*
X475952Y125514D01*
X475842Y125223D01*
X475806Y124822D01*
Y124785D01*
Y124713D01*
X475842Y124494D01*
X475915Y124202D01*
X476061Y123911D01*
X476097Y123874D01*
X476243Y123765D01*
X476462Y123619D01*
X476790Y123583D01*
X476863D01*
X477045Y123619D01*
X477300Y123729D01*
X477483Y123911D01*
X477519Y123984D01*
X477628Y124166D01*
X477738Y124458D01*
X477774Y124822D01*
Y124858D01*
Y124931D01*
X477738Y125187D01*
X477665Y125478D01*
X477483Y125733D01*
X477446Y125770D01*
X477300Y125916D01*
X477082Y126025D01*
X476790Y126061D01*
D02*
G37*
G36*
X467830Y212876D02*
X467757D01*
X467648Y212803D01*
X467575Y212730D01*
X467502Y212584D01*
X467466Y212439D01*
X467429Y212220D01*
Y212183D01*
Y212111D01*
X467466Y211928D01*
X467612Y211710D01*
X467685Y211637D01*
X467830Y211600D01*
X467903D01*
X468049Y211673D01*
X468122Y211746D01*
X468195Y211855D01*
X468268Y212001D01*
Y212220D01*
Y212256D01*
Y212329D01*
X468231Y212548D01*
X468085Y212767D01*
X467976Y212840D01*
X467830Y212876D01*
D02*
G37*
G36*
X484014D02*
X483795D01*
X483686Y212840D01*
X483540Y212694D01*
X483504Y212584D01*
X483467Y212439D01*
X484342D01*
Y212475D01*
Y212511D01*
X484269Y212657D01*
X484123Y212803D01*
X484014Y212876D01*
D02*
G37*
G36*
X476615D02*
X476578D01*
X476505Y212840D01*
X476396Y212803D01*
X476323Y212694D01*
X476287Y212621D01*
X476250Y212475D01*
X476214Y212220D01*
Y212147D01*
Y212038D01*
X476250Y211855D01*
X476323Y211710D01*
X476360Y211673D01*
X476469Y211637D01*
X476615Y211600D01*
X476760D01*
X476870Y211637D01*
X476943Y211710D01*
X476979Y211746D01*
X477016Y211819D01*
X477052Y212001D01*
Y212220D01*
Y212256D01*
Y212293D01*
Y212439D01*
X477016Y212584D01*
X476943Y212694D01*
Y212730D01*
X476870Y212803D01*
X476760Y212840D01*
X476615Y212876D01*
D02*
G37*
G36*
X469944D02*
X469726D01*
X469580Y212840D01*
X469434Y212694D01*
X469398Y212584D01*
X469361Y212439D01*
X470272D01*
Y212475D01*
Y212511D01*
X470199Y212657D01*
X470054Y212803D01*
X469944Y212876D01*
D02*
G37*
G36*
X465862D02*
X465826D01*
X465716Y212840D01*
X465607Y212803D01*
X465497Y212694D01*
Y212657D01*
X465461Y212584D01*
X465425Y212439D01*
X465388Y212220D01*
Y212183D01*
Y212038D01*
X465425Y211892D01*
X465497Y211710D01*
X465570Y211673D01*
X465680Y211637D01*
X465862Y211600D01*
X465971D01*
X466081Y211637D01*
X466154Y211710D01*
X466190Y211746D01*
X466226Y211819D01*
X466263Y212001D01*
Y212220D01*
Y212256D01*
Y212293D01*
Y212439D01*
X466226Y212584D01*
X466154Y212694D01*
Y212730D01*
X466081Y212803D01*
X466008Y212840D01*
X465862Y212876D01*
D02*
G37*
G36*
X473334Y209632D02*
X473261D01*
X473115Y209559D01*
X473043Y209486D01*
X472970Y209340D01*
X472933Y209195D01*
X472897Y208976D01*
Y208939D01*
Y208867D01*
X472970Y208648D01*
X473079Y208429D01*
X473188Y208356D01*
X473334Y208320D01*
X473407D01*
X473517Y208393D01*
X473589Y208466D01*
X473626Y208611D01*
X473699Y208757D01*
Y208976D01*
Y209012D01*
Y209085D01*
X473662Y209304D01*
X473553Y209523D01*
X473444Y209595D01*
X473334Y209632D01*
D02*
G37*
G36*
X478547Y208794D02*
X478000D01*
X477890Y208757D01*
X477781Y208721D01*
X477708Y208575D01*
Y208539D01*
X477745Y208429D01*
X477854Y208320D01*
X478073Y208283D01*
X478146D01*
X478328Y208320D01*
X478474Y208429D01*
X478510Y208539D01*
X478547Y208648D01*
Y208794D01*
D02*
G37*
G36*
X470199D02*
X469653D01*
X469543Y208757D01*
X469398Y208721D01*
X469361Y208575D01*
Y208539D01*
X469398Y208429D01*
X469543Y208320D01*
X469616Y208283D01*
X469835D01*
X469981Y208320D01*
X470127Y208429D01*
X470199Y208539D01*
Y208648D01*
Y208794D01*
D02*
G37*
G36*
X481645Y209632D02*
X481572D01*
X481463Y209559D01*
X481317Y209450D01*
X481280Y209304D01*
X481244Y209158D01*
X482119D01*
Y209195D01*
Y209231D01*
X482046Y209413D01*
X481900Y209559D01*
X481791Y209595D01*
X481645Y209632D01*
D02*
G37*
%LPD*%
D10*
X338583Y226279D02*
G03*
X338583Y226279I-394J0D01*
G01*
X336988Y174843D02*
G03*
X336988Y174843I-394J0D01*
G01*
X189213Y155646D02*
G03*
X189213Y155646I-394J0D01*
G01*
X375047Y155646D02*
G03*
X375047Y155646I-394J0D01*
G01*
X276864D02*
G03*
X276864Y155646I-394J0D01*
G01*
X128839Y111516D02*
Y112697D01*
Y95768D02*
Y96949D01*
Y80020D02*
Y81201D01*
Y64272D02*
Y65453D01*
Y48524D02*
Y49705D01*
Y32776D02*
Y33957D01*
Y17028D02*
Y18209D01*
X143565Y111516D02*
Y112697D01*
Y95768D02*
Y96949D01*
X143551Y80020D02*
Y81201D01*
Y64272D02*
Y65453D01*
Y48524D02*
Y49705D01*
Y32776D02*
Y33957D01*
Y17028D02*
Y18209D01*
X158291Y111516D02*
Y112697D01*
Y95768D02*
Y96949D01*
X158263Y80020D02*
Y81201D01*
Y64272D02*
Y65453D01*
Y48524D02*
Y49705D01*
Y32776D02*
Y33957D01*
Y17028D02*
Y18209D01*
X173017Y111516D02*
Y112697D01*
Y95768D02*
Y96949D01*
X172976Y80020D02*
Y81201D01*
Y64272D02*
Y65453D01*
Y48524D02*
Y49705D01*
Y32776D02*
Y33957D01*
Y17028D02*
Y18209D01*
X187744Y111516D02*
Y112697D01*
Y95768D02*
Y96949D01*
X187688Y80020D02*
Y81201D01*
Y64272D02*
Y65453D01*
Y48524D02*
Y49705D01*
Y32776D02*
Y33957D01*
Y17028D02*
Y18209D01*
X202470Y111516D02*
Y112697D01*
Y95768D02*
Y96949D01*
X202401Y80020D02*
Y81201D01*
Y64272D02*
Y65453D01*
Y48524D02*
Y49705D01*
Y32776D02*
Y33957D01*
Y17028D02*
Y18209D01*
X217196Y111516D02*
Y112697D01*
Y95768D02*
Y96949D01*
X217113Y80020D02*
Y81201D01*
Y64272D02*
Y65453D01*
Y48524D02*
Y49705D01*
Y32776D02*
Y33957D01*
Y17028D02*
Y18209D01*
X231923Y111516D02*
Y112697D01*
Y95768D02*
Y96949D01*
X231825Y80020D02*
Y81201D01*
Y64272D02*
Y65453D01*
Y48524D02*
Y49705D01*
Y32776D02*
Y33957D01*
Y17028D02*
Y18209D01*
X246550Y111516D02*
Y112697D01*
Y95768D02*
Y96949D01*
X246538Y80020D02*
Y81201D01*
Y64272D02*
Y65453D01*
Y48524D02*
Y49705D01*
Y32776D02*
Y33957D01*
Y17028D02*
Y18209D01*
X261178Y111516D02*
Y112697D01*
Y95768D02*
Y96949D01*
X261152Y80020D02*
Y81201D01*
Y64272D02*
Y65453D01*
Y48524D02*
Y49705D01*
Y32776D02*
Y33957D01*
Y17028D02*
Y18209D01*
X275806Y111516D02*
Y112697D01*
Y95768D02*
Y96949D01*
X275766Y80020D02*
Y81201D01*
Y64272D02*
Y65453D01*
Y48524D02*
Y49705D01*
Y32776D02*
Y33957D01*
Y17028D02*
Y18209D01*
X290434Y111516D02*
Y112697D01*
Y95768D02*
Y96949D01*
X290380Y80020D02*
Y81201D01*
Y64272D02*
Y65453D01*
Y48524D02*
Y49705D01*
Y32776D02*
Y33957D01*
Y17028D02*
Y18209D01*
X305062Y111516D02*
Y112697D01*
Y95768D02*
Y96949D01*
X304994Y80020D02*
Y81201D01*
Y64272D02*
Y65453D01*
Y48524D02*
Y49705D01*
Y32776D02*
Y33957D01*
Y17028D02*
Y18209D01*
X319689Y111516D02*
Y112697D01*
Y95768D02*
Y96949D01*
X319608Y80020D02*
Y81201D01*
Y64272D02*
Y65453D01*
Y48524D02*
Y49705D01*
Y32776D02*
Y33957D01*
Y17028D02*
Y18209D01*
X334317Y111516D02*
Y112697D01*
Y95768D02*
Y96949D01*
X334222Y80020D02*
Y81201D01*
Y64272D02*
Y65453D01*
Y48524D02*
Y49705D01*
Y32776D02*
Y33957D01*
Y17028D02*
Y18209D01*
X348847Y111516D02*
Y112697D01*
Y95768D02*
Y96949D01*
X348836Y80020D02*
Y81201D01*
Y64272D02*
Y65453D01*
Y48524D02*
Y49705D01*
Y32776D02*
Y33957D01*
Y17028D02*
Y18209D01*
X363376Y111516D02*
Y112697D01*
Y95768D02*
Y96949D01*
X363351Y80020D02*
Y81201D01*
Y64272D02*
Y65453D01*
Y48524D02*
Y49705D01*
Y32776D02*
Y33957D01*
Y17028D02*
Y18209D01*
X377906Y111516D02*
Y112697D01*
Y95768D02*
Y96949D01*
X377867Y80020D02*
Y81201D01*
Y64272D02*
Y65453D01*
Y48524D02*
Y49705D01*
Y32776D02*
Y33957D01*
Y17028D02*
Y18209D01*
X392435Y111516D02*
Y112697D01*
Y95768D02*
Y96949D01*
X392382Y80020D02*
Y81201D01*
Y64272D02*
Y65453D01*
Y48524D02*
Y49705D01*
Y32776D02*
Y33957D01*
Y17028D02*
Y18209D01*
X406964Y111516D02*
Y112697D01*
Y95768D02*
Y96949D01*
X406898Y80020D02*
Y81201D01*
Y64272D02*
Y65453D01*
Y48524D02*
Y49705D01*
Y32776D02*
Y33957D01*
Y17028D02*
Y18209D01*
X421494Y111516D02*
Y112697D01*
Y95768D02*
Y96949D01*
X421413Y80020D02*
Y81201D01*
Y64272D02*
Y65453D01*
Y48524D02*
Y49705D01*
Y32776D02*
Y33957D01*
Y17028D02*
Y18209D01*
X436023Y111516D02*
Y112697D01*
Y95768D02*
Y96949D01*
X435929Y80020D02*
Y81201D01*
Y64272D02*
Y65453D01*
Y48524D02*
Y49705D01*
Y32776D02*
Y33957D01*
Y17028D02*
Y18209D01*
X450553Y111516D02*
Y112697D01*
Y95768D02*
Y96949D01*
X450444Y80020D02*
Y81201D01*
Y64272D02*
Y65453D01*
Y48524D02*
Y49705D01*
Y32776D02*
Y33957D01*
Y17028D02*
Y18209D01*
X465082Y111516D02*
Y112697D01*
Y95768D02*
Y96949D01*
X464960Y80020D02*
Y81201D01*
Y64272D02*
Y65453D01*
Y48524D02*
Y49705D01*
Y32776D02*
Y33957D01*
Y17028D02*
Y18209D01*
X29845Y143799D02*
Y149902D01*
X89358Y116154D02*
X94279Y121075D01*
X152495Y226772D02*
Y229921D01*
X154069D01*
X154594Y229396D01*
Y228346D01*
X154069Y227822D01*
X152495D01*
X153544D02*
X154594Y226772D01*
X157742Y229396D02*
X157218Y229921D01*
X156168D01*
X155643Y229396D01*
Y228871D01*
X156168Y228346D01*
X157218D01*
X157742Y227822D01*
Y227297D01*
X157218Y226772D01*
X156168D01*
X155643Y227297D01*
X158792Y229921D02*
X160891D01*
X159842D01*
Y226772D01*
X7480Y191861D02*
Y193960D01*
X4331D01*
Y191861D01*
X5906Y193960D02*
Y192911D01*
X4331Y190812D02*
X7480D01*
X4331Y188713D01*
X7480D01*
X4331Y187663D02*
X6430D01*
X7480Y186614D01*
X6430Y185564D01*
X4331D01*
X5906D01*
Y187663D01*
X7480Y184515D02*
X4331D01*
Y182940D01*
X4856Y182415D01*
X5381D01*
X5906Y182940D01*
Y184515D01*
Y182940D01*
X6430Y182415D01*
X6955D01*
X7480Y182940D01*
Y184515D01*
Y181366D02*
X4331D01*
Y179267D01*
X7480Y176118D02*
Y178217D01*
X4331D01*
Y176118D01*
X5906Y178217D02*
Y177168D01*
X40420Y109186D02*
X40944Y109710D01*
Y110760D01*
X40420Y111285D01*
X38320D01*
X37796Y110760D01*
Y109710D01*
X38320Y109186D01*
X39370D01*
Y110235D01*
X37796Y108136D02*
X40944D01*
X37796Y106037D01*
X40944D01*
Y104988D02*
X37796D01*
Y103413D01*
X38320Y102889D01*
X40420D01*
X40944Y103413D01*
Y104988D01*
X40944Y131888D02*
X38845D01*
X37796Y130839D01*
X38845Y129789D01*
X40944D01*
Y128740D02*
Y127690D01*
Y128215D01*
X37796D01*
Y128740D01*
Y127690D01*
Y126116D02*
X40944D01*
X37796Y124017D01*
X40944D01*
X9449Y192386D02*
X12598D01*
Y190812D01*
X12073Y190287D01*
X11024D01*
X10499Y190812D01*
Y192386D01*
X12598Y187663D02*
Y188713D01*
X12073Y189237D01*
X9974D01*
X9449Y188713D01*
Y187663D01*
X9974Y187138D01*
X12073D01*
X12598Y187663D01*
Y186089D02*
X9449D01*
X10499Y185039D01*
X9449Y183990D01*
X12598D01*
Y180841D02*
Y182940D01*
X9449D01*
Y180841D01*
X11024Y182940D02*
Y181891D01*
X9449Y179792D02*
X12598D01*
Y178217D01*
X12073Y177693D01*
X11024D01*
X10499Y178217D01*
Y179792D01*
Y178742D02*
X9449Y177693D01*
X119559Y7742D02*
Y4594D01*
X120609Y5643D01*
X121658Y4594D01*
Y7742D01*
X122708D02*
X123757D01*
X123232D01*
Y4594D01*
X122708D01*
X123757D01*
X127430Y7742D02*
X125331D01*
Y6168D01*
X126381D01*
X125331D01*
Y4594D01*
X128480Y7742D02*
X129530D01*
X129005D01*
Y4594D01*
X128480D01*
X129530D01*
X131104Y4069D02*
X133203D01*
X136352Y7742D02*
X134253D01*
Y4594D01*
X136352D01*
X134253Y6168D02*
X135302D01*
X137401Y4594D02*
Y7742D01*
X139500Y4594D01*
Y7742D01*
X140550Y4594D02*
Y6693D01*
X141599Y7742D01*
X142649Y6693D01*
Y4594D01*
Y6168D01*
X140550D01*
X143698Y7742D02*
Y4594D01*
X145273D01*
X145797Y5118D01*
Y5643D01*
X145273Y6168D01*
X143698D01*
X145273D01*
X145797Y6693D01*
Y7217D01*
X145273Y7742D01*
X143698D01*
X146847D02*
Y4594D01*
X148946D01*
X152094Y7742D02*
X149995D01*
Y4594D01*
X152094D01*
X149995Y6168D02*
X151045D01*
X246313Y209580D02*
X245788Y210105D01*
Y211155D01*
X246313Y211680D01*
X246837D01*
X247362Y211155D01*
Y210630D01*
Y211155D01*
X247887Y211680D01*
X248412D01*
X248937Y211155D01*
Y210105D01*
X248412Y209580D01*
X245788Y212729D02*
X247887D01*
X248937Y213778D01*
X247887Y214828D01*
X245788D01*
X246313Y215878D02*
X245788Y216402D01*
Y217452D01*
X246313Y217977D01*
X246837D01*
X247362Y217452D01*
Y216927D01*
Y217452D01*
X247887Y217977D01*
X248412D01*
X248937Y217452D01*
Y216402D01*
X248412Y215878D01*
X236313Y205382D02*
X235788Y204857D01*
Y203808D01*
X236313Y203283D01*
X236837D01*
X237362Y203808D01*
Y204857D01*
X237887Y205382D01*
X238412D01*
X238936Y204857D01*
Y203808D01*
X238412Y203283D01*
X235788Y206432D02*
X238936D01*
X237887Y207481D01*
X238936Y208531D01*
X235788D01*
X236313Y211679D02*
X235788Y211155D01*
Y210105D01*
X236313Y209580D01*
X238412D01*
X238936Y210105D01*
Y211155D01*
X238412Y211679D01*
X235788Y212729D02*
X238936D01*
Y214828D01*
X235788Y215878D02*
X238936D01*
X237887D01*
X235788Y217977D01*
X237362Y216402D01*
X238936Y217977D01*
X226313Y211680D02*
X225788Y211155D01*
Y210105D01*
X226313Y209580D01*
X228412D01*
X228937Y210105D01*
Y211155D01*
X228412Y211680D01*
X227362D01*
Y210630D01*
X228937Y212729D02*
X225788D01*
X228937Y214828D01*
X225788D01*
Y215878D02*
X228937D01*
Y217452D01*
X228412Y217977D01*
X226313D01*
X225788Y217452D01*
Y215878D01*
X216313Y205907D02*
X215788Y205382D01*
Y204333D01*
X216313Y203808D01*
X216837D01*
X217362Y204333D01*
Y205382D01*
X217887Y205907D01*
X218412D01*
X218936Y205382D01*
Y204333D01*
X218412Y203808D01*
X215788Y206957D02*
X218936D01*
X217887Y208006D01*
X218936Y209056D01*
X215788D01*
Y210105D02*
X218936D01*
Y211679D01*
X218412Y212204D01*
X216313D01*
X215788Y211679D01*
Y210105D01*
Y213254D02*
Y214303D01*
Y213778D01*
X218936D01*
Y213254D01*
Y214303D01*
X215788Y217452D02*
Y216402D01*
X216313Y215878D01*
X218412D01*
X218936Y216402D01*
Y217452D01*
X218412Y217977D01*
X216313D01*
X215788Y217452D01*
X208937Y206432D02*
X205788D01*
X208937Y208531D01*
X205788D01*
X208937Y209580D02*
X205788D01*
Y211155D01*
X206313Y211679D01*
X207362D01*
X207887Y211155D01*
Y209580D01*
Y210630D02*
X208937Y211679D01*
X206313Y214828D02*
X205788Y214303D01*
Y213254D01*
X206313Y212729D01*
X206837D01*
X207362Y213254D01*
Y214303D01*
X207887Y214828D01*
X208412D01*
X208937Y214303D01*
Y213254D01*
X208412Y212729D01*
X205788Y215878D02*
Y217977D01*
Y216927D01*
X208937D01*
D11*
X168307Y174705D02*
Y177067D01*
X165157Y178248D02*
X171457D01*
X167126Y175886D02*
X169488D01*
X173913Y164098D02*
Y168035D01*
X123721Y163386D02*
Y167323D01*
M02*
