G04*
G04 #@! TF.GenerationSoftware,Altium Limited,Altium Designer,22.7.1 (60)*
G04*
G04 Layer_Color=2752767*
%FSLAX25Y25*%
%MOIN*%
G70*
G04*
G04 #@! TF.SameCoordinates,EB09720E-E5E6-4C8F-983A-54733B733D7F*
G04*
G04*
G04 #@! TF.FilePolarity,Positive*
G04*
G01*
G75*
%ADD10C,0.00787*%
%ADD89C,0.00200*%
%ADD90C,0.00267*%
D10*
X482283Y0D02*
G03*
X492126Y9843I0J9843D01*
G01*
Y226378D02*
G03*
X482283Y236221I-9843J0D01*
G01*
X0Y9843D02*
G03*
X9843Y0I9843J0D01*
G01*
Y236221D02*
G03*
X0Y226378I0J-9843D01*
G01*
X9843Y236221D02*
X482283D01*
X492126Y9843D02*
Y226378D01*
X9843Y0D02*
X482283D01*
X0Y9843D02*
Y226378D01*
D89*
X50302Y59559D02*
X51102Y60359D01*
X51902Y59559D01*
X51102Y58759D01*
X50302Y59559D01*
X42035Y56804D02*
X42835Y57604D01*
X43635Y56804D01*
X42835Y56003D01*
X42035Y56804D01*
X47546Y51292D02*
X48346Y52092D01*
X49146Y51292D01*
X48346Y50492D01*
X47546Y51292D01*
X44791Y59559D02*
X45591Y60359D01*
X46391Y59559D01*
X45591Y58759D01*
X44791Y59559D01*
X50302Y48536D02*
X51102Y49336D01*
X51902Y48536D01*
X51102Y47736D01*
X50302Y48536D01*
Y54048D02*
X51102Y54848D01*
X51902Y54048D01*
X51102Y53248D01*
X50302Y54048D01*
X44791Y48536D02*
X45591Y49336D01*
X46391Y48536D01*
X45591Y47736D01*
X44791Y48536D01*
Y54048D02*
X45591Y54848D01*
X46391Y54048D01*
X45591Y53248D01*
X44791Y54048D01*
X53058Y51292D02*
X53858Y52092D01*
X54658Y51292D01*
X53858Y50492D01*
X53058Y51292D01*
Y56804D02*
X53858Y57604D01*
X54658Y56804D01*
X53858Y56003D01*
X53058Y56804D01*
X42035Y51292D02*
X42835Y52092D01*
X43635Y51292D01*
X42835Y50492D01*
X42035Y51292D01*
X47546Y56804D02*
X48346Y57604D01*
X49146Y56804D01*
X48346Y56003D01*
X47546Y56804D01*
X227362Y223609D02*
X226562Y225209D01*
X228162D01*
X227362Y223609D01*
X35814Y208649D02*
X36214Y209449D01*
X35814Y210249D01*
X36614Y209849D01*
X37414Y210249D01*
X37014Y209449D01*
X37414Y208649D01*
X36614Y209049D01*
X35814Y208649D01*
X17317Y196450D02*
Y196050D01*
X18117D01*
Y196450D01*
X18517D01*
Y197250D01*
X18117D01*
Y197650D01*
X17317D01*
Y197250D01*
X16917D01*
Y196450D01*
X17317D01*
X7468Y160617D02*
Y162217D01*
X9068D01*
Y160617D01*
X7468D01*
Y148806D02*
Y150406D01*
X9068D01*
Y148806D01*
X7468D01*
X103629Y7369D02*
Y8969D01*
X105229D01*
Y7369D01*
X103629D01*
X91818D02*
Y8969D01*
X93418D01*
Y7369D01*
X91818D01*
X247362Y223609D02*
X246562Y225209D01*
X248162D01*
X247362Y223609D01*
X237362D02*
X236562Y225209D01*
X238162D01*
X237362Y223609D01*
X217362D02*
X216562Y225209D01*
X218162D01*
X217362Y223609D01*
X207362D02*
X206562Y225209D01*
X208162D01*
X207362Y223609D01*
X36614Y226365D02*
X37014Y226765D01*
X37414D01*
X37014Y227165D01*
X37414Y227565D01*
X37014D01*
X36614Y227965D01*
X36214Y227565D01*
X35814D01*
X36214Y227165D01*
X35814Y226765D01*
X36214D01*
X36614Y226365D01*
X40145Y183846D02*
X40545D01*
X40945Y184246D01*
X41345Y183846D01*
X41745D01*
Y184246D01*
X41345Y184646D01*
X41745Y185046D01*
Y185446D01*
X41345D01*
X40945Y185046D01*
X40545Y185446D01*
X40145D01*
Y185046D01*
X40545Y184646D01*
X40145Y184246D01*
Y183846D01*
X11011Y9042D02*
Y10643D01*
X12611D01*
Y9042D01*
X11011D01*
X11411Y9443D02*
Y10243D01*
X12211D01*
Y9443D01*
X11411D01*
X7074Y16917D02*
Y18517D01*
X8674D01*
Y16917D01*
X7074D01*
X7474Y17316D02*
Y18116D01*
X8274D01*
Y17316D01*
X7474D01*
X103531Y211798D02*
Y213398D01*
X105131D01*
Y211798D01*
X103531D01*
X103931Y212198D02*
Y212998D01*
X104731D01*
Y212198D01*
X103931D01*
X95657Y211798D02*
Y213398D01*
X97257D01*
Y211798D01*
X95657D01*
X96057Y212198D02*
Y212998D01*
X96857D01*
Y212198D01*
X96057D01*
X87783Y211798D02*
Y213398D01*
X89383D01*
Y211798D01*
X87783D01*
X88183Y212198D02*
Y212998D01*
X88983D01*
Y212198D01*
X88183D01*
X99594Y221641D02*
Y223241D01*
X101194D01*
Y221641D01*
X99594D01*
X99994Y222041D02*
Y222841D01*
X100794D01*
Y222041D01*
X99994D01*
X91720Y221641D02*
Y223241D01*
X93320D01*
Y221641D01*
X91720D01*
X92120Y222041D02*
Y222841D01*
X92920D01*
Y222041D01*
X92120D01*
X83846Y221641D02*
Y223241D01*
X85446D01*
Y221641D01*
X83846D01*
X84246Y222041D02*
Y222841D01*
X85046D01*
Y222041D01*
X84246D01*
X79909Y211798D02*
Y213398D01*
X81509D01*
Y211798D01*
X79909D01*
X80309Y212198D02*
Y212998D01*
X81109D01*
Y212198D01*
X80309D01*
X75972Y221641D02*
Y223241D01*
X77572D01*
Y221641D01*
X75972D01*
X76372Y222041D02*
Y222841D01*
X77172D01*
Y222041D01*
X76372D01*
X294476Y221641D02*
Y223241D01*
X296076D01*
Y221641D01*
X294476D01*
X294876Y222041D02*
Y222841D01*
X295676D01*
Y222041D01*
X294876D01*
X274791Y221641D02*
Y223241D01*
X276391D01*
Y221641D01*
X274791D01*
X275190Y222041D02*
Y222841D01*
X275991D01*
Y222041D01*
X275190D01*
X264948Y225578D02*
Y227178D01*
X266548D01*
Y225578D01*
X264948D01*
X265348Y225978D02*
Y226778D01*
X266148D01*
Y225978D01*
X265348D01*
X284633Y225578D02*
Y227178D01*
X286233D01*
Y225578D01*
X284633D01*
X285033Y225978D02*
Y226778D01*
X285833D01*
Y225978D01*
X285033D01*
X348609Y211995D02*
Y213595D01*
X350209D01*
Y211995D01*
X348609D01*
X349009Y212395D02*
Y213195D01*
X349809D01*
Y212395D01*
X349009D01*
X355499Y214554D02*
Y216154D01*
X357099D01*
Y214554D01*
X355499D01*
X355899Y214954D02*
Y215754D01*
X356699D01*
Y214954D01*
X355899D01*
X188176Y178334D02*
Y179934D01*
X189776D01*
Y178334D01*
X188176D01*
X188576Y178734D02*
Y179534D01*
X189376D01*
Y178734D01*
X188576D01*
X236405Y174397D02*
Y175997D01*
X238005D01*
Y174397D01*
X236405D01*
X236805Y174797D02*
Y175597D01*
X237605D01*
Y174797D01*
X236805D01*
X236405Y178334D02*
Y179934D01*
X238005D01*
Y178334D01*
X236405D01*
X236805Y178734D02*
Y179534D01*
X237605D01*
Y178734D01*
X236805D01*
X152743Y168491D02*
Y170091D01*
X154343D01*
Y168491D01*
X152743D01*
X153143Y168891D02*
Y169691D01*
X153943D01*
Y168891D01*
X153143D01*
X156680Y168491D02*
Y170091D01*
X158280D01*
Y168491D01*
X156680D01*
X157080Y168891D02*
Y169691D01*
X157880D01*
Y168891D01*
X157080D01*
X160617Y168491D02*
Y170091D01*
X162217D01*
Y168491D01*
X160617D01*
X161017Y168891D02*
Y169691D01*
X161817D01*
Y168891D01*
X161017D01*
X164554Y168491D02*
Y170091D01*
X166154D01*
Y168491D01*
X164554D01*
X164954Y168891D02*
Y169691D01*
X165754D01*
Y168891D01*
X164954D01*
X192113Y178334D02*
Y179934D01*
X193713D01*
Y178334D01*
X192113D01*
X192513Y178734D02*
Y179534D01*
X193313D01*
Y178734D01*
X192513D01*
X139948Y163570D02*
Y165170D01*
X141548D01*
Y163570D01*
X139948D01*
X140348Y163970D02*
Y164770D01*
X141148D01*
Y163970D01*
X140348D01*
X136011Y159633D02*
Y161233D01*
X137611D01*
Y159633D01*
X136011D01*
X136411Y160033D02*
Y160833D01*
X137211D01*
Y160033D01*
X136411D01*
X136011Y163570D02*
Y165170D01*
X137611D01*
Y163570D01*
X136011D01*
X136411Y163970D02*
Y164770D01*
X137211D01*
Y163970D01*
X136411D01*
X136011Y167507D02*
Y169107D01*
X137611D01*
Y167507D01*
X136011D01*
X136411Y167907D02*
Y168707D01*
X137211D01*
Y167907D01*
X136411D01*
X139948Y167507D02*
Y169107D01*
X141548D01*
Y167507D01*
X139948D01*
X140348Y167907D02*
Y168707D01*
X141148D01*
Y167907D01*
X140348D01*
X139948Y171444D02*
Y173044D01*
X141548D01*
Y171444D01*
X139948D01*
X140348Y171844D02*
Y172644D01*
X141148D01*
Y171844D01*
X140348D01*
X136011Y171444D02*
Y173044D01*
X137611D01*
Y171444D01*
X136011D01*
X136411Y171844D02*
Y172644D01*
X137211D01*
Y171844D01*
X136411D01*
X37192Y82125D02*
Y83725D01*
X38792D01*
Y82125D01*
X37192D01*
X37592Y82525D02*
Y83325D01*
X38392D01*
Y82525D01*
X37592D01*
X70845Y123421D02*
Y125021D01*
X72445D01*
Y123421D01*
X70845D01*
X71245Y123821D02*
Y124621D01*
X72045D01*
Y123821D01*
X71245D01*
X374942Y178334D02*
Y179934D01*
X376542D01*
Y178334D01*
X374942D01*
X375342Y178734D02*
Y179534D01*
X376142D01*
Y178734D01*
X375342D01*
X355499Y187192D02*
Y188792D01*
X357099D01*
Y187192D01*
X355499D01*
X355899Y187592D02*
Y188392D01*
X356699D01*
Y187592D01*
X355899D01*
X338767Y187192D02*
Y188792D01*
X340367D01*
Y187192D01*
X338767D01*
X339167Y187592D02*
Y188392D01*
X339967D01*
Y187592D01*
X339167D01*
X348609Y217113D02*
Y218713D01*
X350209D01*
Y217113D01*
X348609D01*
X349009Y217513D02*
Y218313D01*
X349809D01*
Y217513D01*
X349009D01*
X419082Y178433D02*
Y180033D01*
X420682D01*
Y178433D01*
X419082D01*
X419482Y178833D02*
Y179633D01*
X420282D01*
Y178833D01*
X419482D01*
X423019Y174496D02*
Y176096D01*
X424619D01*
Y174496D01*
X423019D01*
X423419Y174896D02*
Y175696D01*
X424219D01*
Y174896D01*
X423419D01*
X423019Y178433D02*
Y180033D01*
X424619D01*
Y178433D01*
X423019D01*
X423419Y178833D02*
Y179633D01*
X424219D01*
Y178833D01*
X423419D01*
X379121Y178334D02*
Y179934D01*
X380721D01*
Y178334D01*
X379121D01*
X379521Y178734D02*
Y179534D01*
X380321D01*
Y178734D01*
X379521D01*
X276759Y178334D02*
Y179934D01*
X278359D01*
Y178334D01*
X276759D01*
X277159Y178734D02*
Y179534D01*
X277959D01*
Y178734D01*
X277159D01*
X280696Y178334D02*
Y179934D01*
X282296D01*
Y178334D01*
X280696D01*
X281096Y178734D02*
Y179534D01*
X281896D01*
Y178734D01*
X281096D01*
X324987Y174397D02*
Y175997D01*
X326587D01*
Y174397D01*
X324987D01*
X325387Y174797D02*
Y175597D01*
X326187D01*
Y174797D01*
X325387D01*
X324987Y178334D02*
Y179934D01*
X326587D01*
Y178334D01*
X324987D01*
X325387Y178734D02*
Y179534D01*
X326187D01*
Y178734D01*
X325387D01*
X419082Y174496D02*
Y176096D01*
X420682D01*
Y174496D01*
X419082D01*
X419482Y174896D02*
Y175696D01*
X420282D01*
Y174896D01*
X419482D01*
X321050Y174496D02*
Y176096D01*
X322650D01*
Y174496D01*
X321050D01*
X321450Y174896D02*
Y175696D01*
X322250D01*
Y174896D01*
X321450D01*
X232468Y178334D02*
Y179934D01*
X234068D01*
Y178334D01*
X232468D01*
X232868Y178734D02*
Y179534D01*
X233668D01*
Y178734D01*
X232868D01*
X407665Y229515D02*
Y231115D01*
X409265D01*
Y229515D01*
X407665D01*
X408065Y229915D02*
Y230715D01*
X408865D01*
Y229915D01*
X408065D01*
X411602Y229515D02*
Y231115D01*
X413202D01*
Y229515D01*
X411602D01*
X412002Y229915D02*
Y230715D01*
X412802D01*
Y229915D01*
X412002D01*
X415539Y229515D02*
Y231115D01*
X417139D01*
Y229515D01*
X415539D01*
X415939Y229915D02*
Y230715D01*
X416739D01*
Y229915D01*
X415939D01*
X202940Y197035D02*
Y198635D01*
X204540D01*
Y197035D01*
X202940D01*
X203340Y197435D02*
Y198235D01*
X204140D01*
Y197435D01*
X203340D01*
X330439Y201487D02*
Y203087D01*
X332039D01*
Y201487D01*
X330439D01*
X330839Y201887D02*
Y202687D01*
X331640D01*
Y201887D01*
X330839D01*
X332165Y199003D02*
Y200603D01*
X333765D01*
Y199003D01*
X332165D01*
X332565Y199403D02*
Y200203D01*
X333365D01*
Y199403D01*
X332565D01*
X327940Y206877D02*
Y208477D01*
X329540D01*
Y206877D01*
X327940D01*
X328340Y207277D02*
Y208077D01*
X329140D01*
Y207277D01*
X328340D01*
X100578Y14948D02*
Y16548D01*
X102178D01*
Y14948D01*
X100578D01*
X100978Y15348D02*
Y16148D01*
X101778D01*
Y15348D01*
X100978D01*
X103531Y22822D02*
Y24422D01*
X105131D01*
Y22822D01*
X103531D01*
X103931Y23222D02*
Y24022D01*
X104731D01*
Y23222D01*
X103931D01*
X361456Y162074D02*
Y163674D01*
X363056D01*
Y162074D01*
X361456D01*
X361856Y162474D02*
Y163274D01*
X362656D01*
Y162474D01*
X361856D01*
X357468Y156680D02*
Y158280D01*
X359068D01*
Y156680D01*
X357468D01*
X357868Y157080D02*
Y157880D01*
X358668D01*
Y157080D01*
X357868D01*
X353531Y156680D02*
Y158280D01*
X355131D01*
Y156680D01*
X353531D01*
X353931Y157080D02*
Y157880D01*
X354731D01*
Y157080D01*
X353931D01*
X349594Y156680D02*
Y158280D01*
X351194D01*
Y156680D01*
X349594D01*
X349994Y157080D02*
Y157880D01*
X350794D01*
Y157080D01*
X349994D01*
X349599Y161287D02*
Y162887D01*
X351199D01*
Y161287D01*
X349599D01*
X349999Y161687D02*
Y162487D01*
X350799D01*
Y161687D01*
X349999D01*
X333846Y164554D02*
Y166154D01*
X335446D01*
Y164554D01*
X333846D01*
X334246Y164954D02*
Y165754D01*
X335046D01*
Y164954D01*
X334246D01*
X333846Y160617D02*
Y162217D01*
X335446D01*
Y160617D01*
X333846D01*
X334246Y161017D02*
Y161817D01*
X335046D01*
Y161017D01*
X334246D01*
X333846Y215735D02*
Y217335D01*
X335446D01*
Y215735D01*
X333846D01*
X334246Y216135D02*
Y216935D01*
X335046D01*
Y216135D01*
X334246D01*
X329909Y215735D02*
Y217335D01*
X331509D01*
Y215735D01*
X329909D01*
X330309Y216135D02*
Y216935D01*
X331109D01*
Y216135D01*
X330309D01*
X325972Y215735D02*
Y217335D01*
X327572D01*
Y215735D01*
X325972D01*
X326372Y216135D02*
Y216935D01*
X327172D01*
Y216135D01*
X326372D01*
X164554Y215735D02*
Y217335D01*
X166154D01*
Y215735D01*
X164554D01*
X164954Y216135D02*
Y216935D01*
X165754D01*
Y216135D01*
X164954D01*
X164554Y223609D02*
Y225209D01*
X166154D01*
Y223609D01*
X164554D01*
X164954Y224009D02*
Y224810D01*
X165754D01*
Y224009D01*
X164954D01*
X164554Y219672D02*
Y221272D01*
X166154D01*
Y219672D01*
X164554D01*
X164954Y220072D02*
Y220872D01*
X165754D01*
Y220072D01*
X164954D01*
X168491Y168491D02*
Y170091D01*
X170091D01*
Y168491D01*
X168491D01*
X168891Y168891D02*
Y169691D01*
X169691D01*
Y168891D01*
X168891D01*
X168491Y164554D02*
Y166154D01*
X170091D01*
Y164554D01*
X168491D01*
X168891Y164954D02*
Y165754D01*
X169691D01*
Y164954D01*
X168891D01*
X164554Y164554D02*
Y166154D01*
X166154D01*
Y164554D01*
X164554D01*
X164954Y164954D02*
Y165754D01*
X165754D01*
Y164954D01*
X164954D01*
X160617Y164554D02*
Y166154D01*
X162217D01*
Y164554D01*
X160617D01*
X161017Y164954D02*
Y165754D01*
X161817D01*
Y164954D01*
X161017D01*
X156680Y164554D02*
Y166154D01*
X158280D01*
Y164554D01*
X156680D01*
X157080Y164954D02*
Y165754D01*
X157880D01*
Y164954D01*
X157080D01*
X152743Y164554D02*
Y166154D01*
X154343D01*
Y164554D01*
X152743D01*
X153143Y164954D02*
Y165754D01*
X153943D01*
Y164954D01*
X153143D01*
X458648Y96936D02*
Y98536D01*
X460248D01*
Y96936D01*
X458648D01*
X459048Y97336D02*
Y98136D01*
X459848D01*
Y97336D01*
X459048D01*
X458648Y112684D02*
Y114284D01*
X460248D01*
Y112684D01*
X458648D01*
X459048Y113084D02*
Y113884D01*
X459848D01*
Y113084D01*
X459048D01*
X459664Y33944D02*
Y35544D01*
X461264D01*
Y33944D01*
X459664D01*
X460064Y34344D02*
Y35144D01*
X460864D01*
Y34344D01*
X460064D01*
X458648Y49692D02*
Y51292D01*
X460248D01*
Y49692D01*
X458648D01*
X459048Y50092D02*
Y50892D01*
X459848D01*
Y50092D01*
X459048D01*
X458648Y81188D02*
Y82788D01*
X460248D01*
Y81188D01*
X458648D01*
X459048Y81588D02*
Y82388D01*
X459848D01*
Y81588D01*
X459048D01*
X458648Y65440D02*
Y67040D01*
X460248D01*
Y65440D01*
X458648D01*
X459048Y65840D02*
Y66640D01*
X459848D01*
Y65840D01*
X459048D01*
X453695Y96936D02*
Y98536D01*
X455295D01*
Y96936D01*
X453695D01*
X454095Y97336D02*
Y98136D01*
X454895D01*
Y97336D01*
X454095D01*
X453695Y112684D02*
Y114284D01*
X455295D01*
Y112684D01*
X453695D01*
X454095Y113084D02*
Y113884D01*
X454895D01*
Y113084D01*
X454095D01*
X453695Y81188D02*
Y82788D01*
X455295D01*
Y81188D01*
X453695D01*
X454095Y81588D02*
Y82388D01*
X454895D01*
Y81588D01*
X454095D01*
X453695Y49692D02*
Y51292D01*
X455295D01*
Y49692D01*
X453695D01*
X454095Y50092D02*
Y50892D01*
X454895D01*
Y50092D01*
X454095D01*
X453695Y65440D02*
Y67040D01*
X455295D01*
Y65440D01*
X453695D01*
X454095Y65840D02*
Y66640D01*
X454895D01*
Y65840D01*
X454095D01*
X118590Y65440D02*
Y67040D01*
X120190D01*
Y65440D01*
X118590D01*
X118990Y65840D02*
Y66640D01*
X119790D01*
Y65840D01*
X118990D01*
X118590Y81188D02*
Y82788D01*
X120190D01*
Y81188D01*
X118590D01*
X118990Y81588D02*
Y82388D01*
X119790D01*
Y81588D01*
X118990D01*
X122527Y65440D02*
Y67040D01*
X124127D01*
Y65440D01*
X122527D01*
X122927Y65840D02*
Y66640D01*
X123727D01*
Y65840D01*
X122927D01*
X122527Y81188D02*
Y82788D01*
X124127D01*
Y81188D01*
X122527D01*
X122927Y81588D02*
Y82388D01*
X123727D01*
Y81588D01*
X122927D01*
X122527Y96936D02*
Y98536D01*
X124127D01*
Y96936D01*
X122527D01*
X122927Y97336D02*
Y98136D01*
X123727D01*
Y97336D01*
X122927D01*
X133302Y81188D02*
Y82788D01*
X134902D01*
Y81188D01*
X133302D01*
X133702Y81588D02*
Y82388D01*
X134502D01*
Y81588D01*
X133702D01*
X133302Y96936D02*
Y98536D01*
X134902D01*
Y96936D01*
X133302D01*
X133702Y97336D02*
Y98136D01*
X134502D01*
Y97336D01*
X133702D01*
X133302Y65440D02*
Y67040D01*
X134902D01*
Y65440D01*
X133302D01*
X133702Y65840D02*
Y66640D01*
X134502D01*
Y65840D01*
X133702D01*
X133302Y112684D02*
Y114284D01*
X134902D01*
Y112684D01*
X133302D01*
X133702Y113084D02*
Y113884D01*
X134502D01*
Y113084D01*
X133702D01*
X137239Y96936D02*
Y98536D01*
X138839D01*
Y96936D01*
X137239D01*
X137639Y97336D02*
Y98136D01*
X138439D01*
Y97336D01*
X137639D01*
X137239Y65440D02*
Y67040D01*
X138839D01*
Y65440D01*
X137239D01*
X137639Y65840D02*
Y66640D01*
X138439D01*
Y65840D01*
X137639D01*
X137239Y81188D02*
Y82788D01*
X138839D01*
Y81188D01*
X137239D01*
X137639Y81588D02*
Y82388D01*
X138439D01*
Y81588D01*
X137639D01*
X137239Y112684D02*
Y114284D01*
X138839D01*
Y112684D01*
X137239D01*
X137639Y113084D02*
Y113884D01*
X138439D01*
Y113084D01*
X137639D01*
X148015Y112684D02*
Y114284D01*
X149615D01*
Y112684D01*
X148015D01*
X148415Y113084D02*
Y113884D01*
X149215D01*
Y113084D01*
X148415D01*
X148015Y81188D02*
Y82788D01*
X149615D01*
Y81188D01*
X148015D01*
X148415Y81588D02*
Y82388D01*
X149215D01*
Y81588D01*
X148415D01*
X148015Y96936D02*
Y98536D01*
X149615D01*
Y96936D01*
X148015D01*
X148415Y97336D02*
Y98136D01*
X149215D01*
Y97336D01*
X148415D01*
X298682Y65440D02*
Y67040D01*
X300282D01*
Y65440D01*
X298682D01*
X299082Y65840D02*
Y66640D01*
X299882D01*
Y65840D01*
X299082D01*
X313296Y81188D02*
Y82788D01*
X314896D01*
Y81188D01*
X313296D01*
X313696Y81588D02*
Y82388D01*
X314496D01*
Y81588D01*
X313696D01*
X327910Y96936D02*
Y98536D01*
X329510D01*
Y96936D01*
X327910D01*
X328310Y97336D02*
Y98136D01*
X329110D01*
Y97336D01*
X328310D01*
X342524Y112684D02*
Y114284D01*
X344124D01*
Y112684D01*
X342524D01*
X342924Y113084D02*
Y113884D01*
X343724D01*
Y113084D01*
X342924D01*
X294745Y65440D02*
Y67040D01*
X296345D01*
Y65440D01*
X294745D01*
X295145Y65840D02*
Y66640D01*
X295945D01*
Y65840D01*
X295145D01*
X309359Y81188D02*
Y82788D01*
X310959D01*
Y81188D01*
X309359D01*
X309759Y81588D02*
Y82388D01*
X310559D01*
Y81588D01*
X309759D01*
X323973Y96936D02*
Y98536D01*
X325573D01*
Y96936D01*
X323973D01*
X324373Y97336D02*
Y98136D01*
X325173D01*
Y97336D01*
X324373D01*
X338587Y112684D02*
Y114284D01*
X340187D01*
Y112684D01*
X338587D01*
X338987Y113084D02*
Y113884D01*
X339787D01*
Y113084D01*
X338987D01*
X342524Y96936D02*
Y98536D01*
X344124D01*
Y96936D01*
X342524D01*
X342924Y97336D02*
Y98136D01*
X343724D01*
Y97336D01*
X342924D01*
X309359Y65440D02*
Y67040D01*
X310959D01*
Y65440D01*
X309359D01*
X309759Y65840D02*
Y66640D01*
X310559D01*
Y65840D01*
X309759D01*
X313296Y65440D02*
Y67040D01*
X314896D01*
Y65440D01*
X313296D01*
X313696Y65840D02*
Y66640D01*
X314496D01*
Y65840D01*
X313696D01*
X323973Y81188D02*
Y82788D01*
X325573D01*
Y81188D01*
X323973D01*
X324373Y81588D02*
Y82388D01*
X325173D01*
Y81588D01*
X324373D01*
X357039Y112684D02*
Y114284D01*
X358639D01*
Y112684D01*
X357039D01*
X357439Y113084D02*
Y113884D01*
X358239D01*
Y113084D01*
X357439D01*
X327910Y81188D02*
Y82788D01*
X329510D01*
Y81188D01*
X327910D01*
X328310Y81588D02*
Y82388D01*
X329110D01*
Y81588D01*
X328310D01*
X353102Y112684D02*
Y114284D01*
X354702D01*
Y112684D01*
X353102D01*
X353502Y113084D02*
Y113884D01*
X354302D01*
Y113084D01*
X353502D01*
X338587Y96936D02*
Y98536D01*
X340187D01*
Y96936D01*
X338587D01*
X338987Y97336D02*
Y98136D01*
X339787D01*
Y97336D01*
X338987D01*
X294745Y81188D02*
Y82788D01*
X296345D01*
Y81188D01*
X294745D01*
X295145Y81588D02*
Y82388D01*
X295945D01*
Y81588D01*
X295145D01*
X309359Y96936D02*
Y98536D01*
X310959D01*
Y96936D01*
X309359D01*
X309759Y97336D02*
Y98136D01*
X310559D01*
Y97336D01*
X309759D01*
X323973Y112684D02*
Y114284D01*
X325573D01*
Y112684D01*
X323973D01*
X324373Y113084D02*
Y113884D01*
X325173D01*
Y113084D01*
X324373D01*
X280131Y65440D02*
Y67040D01*
X281731D01*
Y65440D01*
X280131D01*
X280531Y65840D02*
Y66640D01*
X281331D01*
Y65840D01*
X280531D01*
X294745Y96936D02*
Y98536D01*
X296345D01*
Y96936D01*
X294745D01*
X295145Y97336D02*
Y98136D01*
X295945D01*
Y97336D01*
X295145D01*
X280131Y81188D02*
Y82788D01*
X281731D01*
Y81188D01*
X280131D01*
X280531Y81588D02*
Y82388D01*
X281331D01*
Y81588D01*
X280531D01*
X265517Y65440D02*
Y67040D01*
X267117D01*
Y65440D01*
X265517D01*
X265917Y65840D02*
Y66640D01*
X266717D01*
Y65840D01*
X265917D01*
X309359Y112684D02*
Y114284D01*
X310959D01*
Y112684D01*
X309359D01*
X309759Y113084D02*
Y113884D01*
X310559D01*
Y113084D01*
X309759D01*
X118590Y112684D02*
Y114284D01*
X120190D01*
Y112684D01*
X118590D01*
X118990Y113084D02*
Y113884D01*
X119790D01*
Y113084D01*
X118990D01*
X118590Y96936D02*
Y98536D01*
X120190D01*
Y96936D01*
X118590D01*
X118990Y97336D02*
Y98136D01*
X119790D01*
Y97336D01*
X118990D01*
X454711Y33944D02*
Y35544D01*
X456311D01*
Y33944D01*
X454711D01*
X455111Y34344D02*
Y35144D01*
X455911D01*
Y34344D01*
X455111D01*
X32271Y78334D02*
Y79934D01*
X33871D01*
Y78334D01*
X32271D01*
X32671Y78734D02*
Y79534D01*
X33471D01*
Y78734D01*
X32671D01*
X371247Y222232D02*
Y223832D01*
X372847D01*
Y222232D01*
X371247D01*
X371647Y222632D02*
Y223431D01*
X372447D01*
Y222632D01*
X371647D01*
X352350Y221247D02*
Y222847D01*
X353950D01*
Y221247D01*
X352350D01*
X352750Y221647D02*
Y222447D01*
X353550D01*
Y221647D01*
X352750D01*
X371247Y219672D02*
Y221272D01*
X372847D01*
Y219672D01*
X371247D01*
X371647Y220072D02*
Y220872D01*
X372447D01*
Y220072D01*
X371647D01*
X306000Y190038D02*
Y191638D01*
X307600D01*
Y190038D01*
X306000D01*
X306400Y190438D02*
Y191238D01*
X307200D01*
Y190438D01*
X306400D01*
X218255Y190145D02*
Y191745D01*
X219855D01*
Y190145D01*
X218255D01*
X218655Y190545D02*
Y191345D01*
X219455D01*
Y190545D01*
X218655D01*
X250903Y112684D02*
Y114284D01*
X252503D01*
Y112684D01*
X250903D01*
X251303Y113084D02*
Y113884D01*
X252103D01*
Y113084D01*
X251303D01*
X254840Y112684D02*
Y114284D01*
X256440D01*
Y112684D01*
X254840D01*
X255240Y113084D02*
Y113884D01*
X256040D01*
Y113084D01*
X255240D01*
X121410Y113801D02*
Y115401D01*
X123010D01*
Y113801D01*
X121410D01*
X121810Y114201D02*
Y115001D01*
X122610D01*
Y114201D01*
X121810D01*
X371247Y199200D02*
Y200800D01*
X372847D01*
Y199200D01*
X371247D01*
X371647Y199600D02*
Y200400D01*
X372447D01*
Y199600D01*
X371647D01*
X371247Y201759D02*
Y203359D01*
X372847D01*
Y201759D01*
X371247D01*
X371647Y202159D02*
Y202959D01*
X372447D01*
Y202159D01*
X371647D01*
X371247Y204318D02*
Y205918D01*
X372847D01*
Y204318D01*
X371247D01*
X371647Y204718D02*
Y205518D01*
X372447D01*
Y204718D01*
X371647D01*
X371247Y206877D02*
Y208477D01*
X372847D01*
Y206877D01*
X371247D01*
X371647Y207277D02*
Y208077D01*
X372447D01*
Y207277D01*
X371647D01*
X371247Y209436D02*
Y211036D01*
X372847D01*
Y209436D01*
X371247D01*
X371647Y209836D02*
Y210636D01*
X372447D01*
Y209836D01*
X371647D01*
X371247Y211995D02*
Y213595D01*
X372847D01*
Y211995D01*
X371247D01*
X371647Y212395D02*
Y213195D01*
X372447D01*
Y212395D01*
X371647D01*
X371247Y214554D02*
Y216154D01*
X372847D01*
Y214554D01*
X371247D01*
X371647Y214954D02*
Y215754D01*
X372447D01*
Y214954D01*
X371647D01*
X444133Y112684D02*
Y114284D01*
X445732D01*
Y112684D01*
X444133D01*
X444532Y113084D02*
Y113884D01*
X445332D01*
Y113084D01*
X444532D01*
X440196Y112684D02*
Y114284D01*
X441795D01*
Y112684D01*
X440196D01*
X440595Y113084D02*
Y113884D01*
X441396D01*
Y113084D01*
X440595D01*
X425680Y112684D02*
Y114284D01*
X427280D01*
Y112684D01*
X425680D01*
X426080Y113084D02*
Y113884D01*
X426880D01*
Y113084D01*
X426080D01*
X415101Y112684D02*
Y114284D01*
X416702D01*
Y112684D01*
X415101D01*
X415501Y113084D02*
Y113884D01*
X416301D01*
Y113084D01*
X415501D01*
X429617Y112684D02*
Y114284D01*
X431217D01*
Y112684D01*
X429617D01*
X430017Y113084D02*
Y113884D01*
X430817D01*
Y113084D01*
X430017D01*
X151952Y112684D02*
Y114284D01*
X153552D01*
Y112684D01*
X151952D01*
X152352Y113084D02*
Y113884D01*
X153152D01*
Y113084D01*
X152352D01*
X166664Y112684D02*
Y114284D01*
X168264D01*
Y112684D01*
X166664D01*
X167064Y113084D02*
Y113884D01*
X167864D01*
Y113084D01*
X167064D01*
X162727Y112684D02*
Y114284D01*
X164327D01*
Y112684D01*
X162727D01*
X163127Y113084D02*
Y113884D01*
X163927D01*
Y113084D01*
X163127D01*
X181376Y112684D02*
Y114284D01*
X182976D01*
Y112684D01*
X181376D01*
X181776Y113084D02*
Y113884D01*
X182576D01*
Y113084D01*
X181776D01*
X177439Y112684D02*
Y114284D01*
X179039D01*
Y112684D01*
X177439D01*
X177839Y113084D02*
Y113884D01*
X178639D01*
Y113084D01*
X177839D01*
X196089Y112684D02*
Y114284D01*
X197689D01*
Y112684D01*
X196089D01*
X196489Y113084D02*
Y113884D01*
X197289D01*
Y113084D01*
X196489D01*
X192152Y112684D02*
Y114284D01*
X193752D01*
Y112684D01*
X192152D01*
X192552Y113084D02*
Y113884D01*
X193352D01*
Y113084D01*
X192552D01*
X210801Y112684D02*
Y114284D01*
X212401D01*
Y112684D01*
X210801D01*
X211201Y113084D02*
Y113884D01*
X212001D01*
Y113084D01*
X211201D01*
X206864Y112684D02*
Y114284D01*
X208464D01*
Y112684D01*
X206864D01*
X207264Y113084D02*
Y113884D01*
X208064D01*
Y113084D01*
X207264D01*
X225514Y112684D02*
Y114284D01*
X227114D01*
Y112684D01*
X225514D01*
X225914Y113084D02*
Y113884D01*
X226714D01*
Y113084D01*
X225914D01*
X221577Y112684D02*
Y114284D01*
X223177D01*
Y112684D01*
X221577D01*
X221977Y113084D02*
Y113884D01*
X222777D01*
Y113084D01*
X221977D01*
X240226Y112684D02*
Y114284D01*
X241826D01*
Y112684D01*
X240226D01*
X240626Y113084D02*
Y113884D01*
X241426D01*
Y113084D01*
X240626D01*
X236289Y112684D02*
Y114284D01*
X237889D01*
Y112684D01*
X236289D01*
X236689Y113084D02*
Y113884D01*
X237489D01*
Y113084D01*
X236689D01*
X269454Y112684D02*
Y114284D01*
X271054D01*
Y112684D01*
X269454D01*
X269854Y113084D02*
Y113884D01*
X270654D01*
Y113084D01*
X269854D01*
X265517Y112684D02*
Y114284D01*
X267117D01*
Y112684D01*
X265517D01*
X265917Y113084D02*
Y113884D01*
X266717D01*
Y113084D01*
X265917D01*
X284068Y112684D02*
Y114284D01*
X285668D01*
Y112684D01*
X284068D01*
X284468Y113084D02*
Y113884D01*
X285268D01*
Y113084D01*
X284468D01*
X280131Y112684D02*
Y114284D01*
X281731D01*
Y112684D01*
X280131D01*
X280531Y113084D02*
Y113884D01*
X281331D01*
Y113084D01*
X280531D01*
X298682Y112684D02*
Y114284D01*
X300282D01*
Y112684D01*
X298682D01*
X299082Y113084D02*
Y113884D01*
X299882D01*
Y113084D01*
X299082D01*
X294745Y112684D02*
Y114284D01*
X296345D01*
Y112684D01*
X294745D01*
X295145Y113084D02*
Y113884D01*
X295945D01*
Y113084D01*
X295145D01*
X313296Y112684D02*
Y114284D01*
X314896D01*
Y112684D01*
X313296D01*
X313696Y113084D02*
Y113884D01*
X314496D01*
Y113084D01*
X313696D01*
X327910Y112684D02*
Y114284D01*
X329510D01*
Y112684D01*
X327910D01*
X328310Y113084D02*
Y113884D01*
X329110D01*
Y113084D01*
X328310D01*
X371555Y112684D02*
Y114284D01*
X373155D01*
Y112684D01*
X371555D01*
X371955Y113084D02*
Y113884D01*
X372755D01*
Y113084D01*
X371955D01*
X367618Y112684D02*
Y114284D01*
X369218D01*
Y112684D01*
X367618D01*
X368018Y113084D02*
Y113884D01*
X368818D01*
Y113084D01*
X368018D01*
X386070Y112684D02*
Y114284D01*
X387670D01*
Y112684D01*
X386070D01*
X386470Y113084D02*
Y113884D01*
X387270D01*
Y113084D01*
X386470D01*
X382133Y112684D02*
Y114284D01*
X383733D01*
Y112684D01*
X382133D01*
X382533Y113084D02*
Y113884D01*
X383333D01*
Y113084D01*
X382533D01*
X400586Y112684D02*
Y114284D01*
X402186D01*
Y112684D01*
X400586D01*
X400986Y113084D02*
Y113884D01*
X401786D01*
Y113084D01*
X400986D01*
X396649Y112684D02*
Y114284D01*
X398249D01*
Y112684D01*
X396649D01*
X397049Y113084D02*
Y113884D01*
X397849D01*
Y113084D01*
X397049D01*
X411165Y112684D02*
Y114284D01*
X412765D01*
Y112684D01*
X411165D01*
X411564Y113084D02*
Y113884D01*
X412364D01*
Y113084D01*
X411564D01*
X151952Y96936D02*
Y98536D01*
X153552D01*
Y96936D01*
X151952D01*
X152352Y97336D02*
Y98136D01*
X153152D01*
Y97336D01*
X152352D01*
X166664Y96936D02*
Y98536D01*
X168264D01*
Y96936D01*
X166664D01*
X167064Y97336D02*
Y98136D01*
X167864D01*
Y97336D01*
X167064D01*
X162727Y96936D02*
Y98536D01*
X164327D01*
Y96936D01*
X162727D01*
X163127Y97336D02*
Y98136D01*
X163927D01*
Y97336D01*
X163127D01*
X181376Y96936D02*
Y98536D01*
X182976D01*
Y96936D01*
X181376D01*
X181776Y97336D02*
Y98136D01*
X182576D01*
Y97336D01*
X181776D01*
X177439Y96936D02*
Y98536D01*
X179039D01*
Y96936D01*
X177439D01*
X177839Y97336D02*
Y98136D01*
X178639D01*
Y97336D01*
X177839D01*
X196089Y96936D02*
Y98536D01*
X197689D01*
Y96936D01*
X196089D01*
X196489Y97336D02*
Y98136D01*
X197289D01*
Y97336D01*
X196489D01*
X192152Y96936D02*
Y98536D01*
X193752D01*
Y96936D01*
X192152D01*
X192552Y97336D02*
Y98136D01*
X193352D01*
Y97336D01*
X192552D01*
X210801Y96936D02*
Y98536D01*
X212401D01*
Y96936D01*
X210801D01*
X211201Y97336D02*
Y98136D01*
X212001D01*
Y97336D01*
X211201D01*
X206864Y96936D02*
Y98536D01*
X208464D01*
Y96936D01*
X206864D01*
X207264Y97336D02*
Y98136D01*
X208064D01*
Y97336D01*
X207264D01*
X225514Y96936D02*
Y98536D01*
X227114D01*
Y96936D01*
X225514D01*
X225914Y97336D02*
Y98136D01*
X226714D01*
Y97336D01*
X225914D01*
X221577Y96936D02*
Y98536D01*
X223177D01*
Y96936D01*
X221577D01*
X221977Y97336D02*
Y98136D01*
X222777D01*
Y97336D01*
X221977D01*
X240226Y96936D02*
Y98536D01*
X241826D01*
Y96936D01*
X240226D01*
X240626Y97336D02*
Y98136D01*
X241426D01*
Y97336D01*
X240626D01*
X236289Y96936D02*
Y98536D01*
X237889D01*
Y96936D01*
X236289D01*
X236689Y97336D02*
Y98136D01*
X237489D01*
Y97336D01*
X236689D01*
X254840Y96936D02*
Y98536D01*
X256440D01*
Y96936D01*
X254840D01*
X255240Y97336D02*
Y98136D01*
X256040D01*
Y97336D01*
X255240D01*
X250903Y96936D02*
Y98536D01*
X252503D01*
Y96936D01*
X250903D01*
X251303Y97336D02*
Y98136D01*
X252103D01*
Y97336D01*
X251303D01*
X269454Y96936D02*
Y98536D01*
X271054D01*
Y96936D01*
X269454D01*
X269854Y97336D02*
Y98136D01*
X270654D01*
Y97336D01*
X269854D01*
X265517Y96936D02*
Y98536D01*
X267117D01*
Y96936D01*
X265517D01*
X265917Y97336D02*
Y98136D01*
X266717D01*
Y97336D01*
X265917D01*
X284068Y96936D02*
Y98536D01*
X285668D01*
Y96936D01*
X284068D01*
X284468Y97336D02*
Y98136D01*
X285268D01*
Y97336D01*
X284468D01*
X280131Y96936D02*
Y98536D01*
X281731D01*
Y96936D01*
X280131D01*
X280531Y97336D02*
Y98136D01*
X281331D01*
Y97336D01*
X280531D01*
X298682Y96936D02*
Y98536D01*
X300282D01*
Y96936D01*
X298682D01*
X299082Y97336D02*
Y98136D01*
X299882D01*
Y97336D01*
X299082D01*
X313296Y96936D02*
Y98536D01*
X314896D01*
Y96936D01*
X313296D01*
X313696Y97336D02*
Y98136D01*
X314496D01*
Y97336D01*
X313696D01*
X357039Y96936D02*
Y98536D01*
X358639D01*
Y96936D01*
X357039D01*
X357439Y97336D02*
Y98136D01*
X358239D01*
Y97336D01*
X357439D01*
X353102Y96936D02*
Y98536D01*
X354702D01*
Y96936D01*
X353102D01*
X353502Y97336D02*
Y98136D01*
X354302D01*
Y97336D01*
X353502D01*
X371555Y96936D02*
Y98536D01*
X373155D01*
Y96936D01*
X371555D01*
X371955Y97336D02*
Y98136D01*
X372755D01*
Y97336D01*
X371955D01*
X367618Y96936D02*
Y98536D01*
X369218D01*
Y96936D01*
X367618D01*
X368018Y97336D02*
Y98136D01*
X368818D01*
Y97336D01*
X368018D01*
X386070Y96936D02*
Y98536D01*
X387670D01*
Y96936D01*
X386070D01*
X386470Y97336D02*
Y98136D01*
X387270D01*
Y97336D01*
X386470D01*
X382133Y96936D02*
Y98536D01*
X383733D01*
Y96936D01*
X382133D01*
X382533Y97336D02*
Y98136D01*
X383333D01*
Y97336D01*
X382533D01*
X400586Y96936D02*
Y98536D01*
X402186D01*
Y96936D01*
X400586D01*
X400986Y97336D02*
Y98136D01*
X401786D01*
Y97336D01*
X400986D01*
X396649Y96936D02*
Y98536D01*
X398249D01*
Y96936D01*
X396649D01*
X397049Y97336D02*
Y98136D01*
X397849D01*
Y97336D01*
X397049D01*
X415101Y96936D02*
Y98536D01*
X416702D01*
Y96936D01*
X415101D01*
X415501Y97336D02*
Y98136D01*
X416301D01*
Y97336D01*
X415501D01*
X411165Y96936D02*
Y98536D01*
X412765D01*
Y96936D01*
X411165D01*
X411564Y97336D02*
Y98136D01*
X412364D01*
Y97336D01*
X411564D01*
X429617Y96936D02*
Y98536D01*
X431217D01*
Y96936D01*
X429617D01*
X430017Y97336D02*
Y98136D01*
X430817D01*
Y97336D01*
X430017D01*
X425680Y96936D02*
Y98536D01*
X427280D01*
Y96936D01*
X425680D01*
X426080Y97336D02*
Y98136D01*
X426880D01*
Y97336D01*
X426080D01*
X444133Y96936D02*
Y98536D01*
X445732D01*
Y96936D01*
X444133D01*
X444532Y97336D02*
Y98136D01*
X445332D01*
Y97336D01*
X444532D01*
X440196Y96936D02*
Y98536D01*
X441795D01*
Y96936D01*
X440196D01*
X440595Y97336D02*
Y98136D01*
X441396D01*
Y97336D01*
X440595D01*
X151952Y81188D02*
Y82788D01*
X153552D01*
Y81188D01*
X151952D01*
X152352Y81588D02*
Y82388D01*
X153152D01*
Y81588D01*
X152352D01*
X166664Y81188D02*
Y82788D01*
X168264D01*
Y81188D01*
X166664D01*
X167064Y81588D02*
Y82388D01*
X167864D01*
Y81588D01*
X167064D01*
X162727Y81188D02*
Y82788D01*
X164327D01*
Y81188D01*
X162727D01*
X163127Y81588D02*
Y82388D01*
X163927D01*
Y81588D01*
X163127D01*
X181376Y81188D02*
Y82788D01*
X182976D01*
Y81188D01*
X181376D01*
X181776Y81588D02*
Y82388D01*
X182576D01*
Y81588D01*
X181776D01*
X177439Y81188D02*
Y82788D01*
X179039D01*
Y81188D01*
X177439D01*
X177839Y81588D02*
Y82388D01*
X178639D01*
Y81588D01*
X177839D01*
X196089Y81188D02*
Y82788D01*
X197689D01*
Y81188D01*
X196089D01*
X196489Y81588D02*
Y82388D01*
X197289D01*
Y81588D01*
X196489D01*
X192152Y81188D02*
Y82788D01*
X193752D01*
Y81188D01*
X192152D01*
X192552Y81588D02*
Y82388D01*
X193352D01*
Y81588D01*
X192552D01*
X210801Y81188D02*
Y82788D01*
X212401D01*
Y81188D01*
X210801D01*
X211201Y81588D02*
Y82388D01*
X212001D01*
Y81588D01*
X211201D01*
X206864Y81188D02*
Y82788D01*
X208464D01*
Y81188D01*
X206864D01*
X207264Y81588D02*
Y82388D01*
X208064D01*
Y81588D01*
X207264D01*
X225514Y81188D02*
Y82788D01*
X227114D01*
Y81188D01*
X225514D01*
X225914Y81588D02*
Y82388D01*
X226714D01*
Y81588D01*
X225914D01*
X221577Y81188D02*
Y82788D01*
X223177D01*
Y81188D01*
X221577D01*
X221977Y81588D02*
Y82388D01*
X222777D01*
Y81588D01*
X221977D01*
X240226Y81188D02*
Y82788D01*
X241826D01*
Y81188D01*
X240226D01*
X240626Y81588D02*
Y82388D01*
X241426D01*
Y81588D01*
X240626D01*
X236289Y81188D02*
Y82788D01*
X237889D01*
Y81188D01*
X236289D01*
X236689Y81588D02*
Y82388D01*
X237489D01*
Y81588D01*
X236689D01*
X254840Y81188D02*
Y82788D01*
X256440D01*
Y81188D01*
X254840D01*
X255240Y81588D02*
Y82388D01*
X256040D01*
Y81588D01*
X255240D01*
X250903Y81188D02*
Y82788D01*
X252503D01*
Y81188D01*
X250903D01*
X251303Y81588D02*
Y82388D01*
X252103D01*
Y81588D01*
X251303D01*
X269454Y81188D02*
Y82788D01*
X271054D01*
Y81188D01*
X269454D01*
X269854Y81588D02*
Y82388D01*
X270654D01*
Y81588D01*
X269854D01*
X265517Y81188D02*
Y82788D01*
X267117D01*
Y81188D01*
X265517D01*
X265917Y81588D02*
Y82388D01*
X266717D01*
Y81588D01*
X265917D01*
X284068Y81188D02*
Y82788D01*
X285668D01*
Y81188D01*
X284068D01*
X284468Y81588D02*
Y82388D01*
X285268D01*
Y81588D01*
X284468D01*
X298682Y81188D02*
Y82788D01*
X300282D01*
Y81188D01*
X298682D01*
X299082Y81588D02*
Y82388D01*
X299882D01*
Y81588D01*
X299082D01*
X342524Y81188D02*
Y82788D01*
X344124D01*
Y81188D01*
X342524D01*
X342924Y81588D02*
Y82388D01*
X343724D01*
Y81588D01*
X342924D01*
X338587Y81188D02*
Y82788D01*
X340187D01*
Y81188D01*
X338587D01*
X338987Y81588D02*
Y82388D01*
X339787D01*
Y81588D01*
X338987D01*
X357039Y81188D02*
Y82788D01*
X358639D01*
Y81188D01*
X357039D01*
X357439Y81588D02*
Y82388D01*
X358239D01*
Y81588D01*
X357439D01*
X353102Y81188D02*
Y82788D01*
X354702D01*
Y81188D01*
X353102D01*
X353502Y81588D02*
Y82388D01*
X354302D01*
Y81588D01*
X353502D01*
X371555Y81188D02*
Y82788D01*
X373155D01*
Y81188D01*
X371555D01*
X371955Y81588D02*
Y82388D01*
X372755D01*
Y81588D01*
X371955D01*
X367618Y81188D02*
Y82788D01*
X369218D01*
Y81188D01*
X367618D01*
X368018Y81588D02*
Y82388D01*
X368818D01*
Y81588D01*
X368018D01*
X386070Y81188D02*
Y82788D01*
X387670D01*
Y81188D01*
X386070D01*
X386470Y81588D02*
Y82388D01*
X387270D01*
Y81588D01*
X386470D01*
X382133Y81188D02*
Y82788D01*
X383733D01*
Y81188D01*
X382133D01*
X382533Y81588D02*
Y82388D01*
X383333D01*
Y81588D01*
X382533D01*
X400586Y81188D02*
Y82788D01*
X402186D01*
Y81188D01*
X400586D01*
X400986Y81588D02*
Y82388D01*
X401786D01*
Y81588D01*
X400986D01*
X396649Y81188D02*
Y82788D01*
X398249D01*
Y81188D01*
X396649D01*
X397049Y81588D02*
Y82388D01*
X397849D01*
Y81588D01*
X397049D01*
X415101Y81188D02*
Y82788D01*
X416702D01*
Y81188D01*
X415101D01*
X415501Y81588D02*
Y82388D01*
X416301D01*
Y81588D01*
X415501D01*
X411165Y81188D02*
Y82788D01*
X412765D01*
Y81188D01*
X411165D01*
X411564Y81588D02*
Y82388D01*
X412364D01*
Y81588D01*
X411564D01*
X429617Y81188D02*
Y82788D01*
X431217D01*
Y81188D01*
X429617D01*
X430017Y81588D02*
Y82388D01*
X430817D01*
Y81588D01*
X430017D01*
X425680Y81188D02*
Y82788D01*
X427280D01*
Y81188D01*
X425680D01*
X426080Y81588D02*
Y82388D01*
X426880D01*
Y81588D01*
X426080D01*
X444133Y81188D02*
Y82788D01*
X445732D01*
Y81188D01*
X444133D01*
X444532Y81588D02*
Y82388D01*
X445332D01*
Y81588D01*
X444532D01*
X440196Y81188D02*
Y82788D01*
X441795D01*
Y81188D01*
X440196D01*
X440595Y81588D02*
Y82388D01*
X441396D01*
Y81588D01*
X440595D01*
X151952Y65440D02*
Y67040D01*
X153552D01*
Y65440D01*
X151952D01*
X152352Y65840D02*
Y66640D01*
X153152D01*
Y65840D01*
X152352D01*
X148015Y65440D02*
Y67040D01*
X149615D01*
Y65440D01*
X148015D01*
X148415Y65840D02*
Y66640D01*
X149215D01*
Y65840D01*
X148415D01*
X166664Y65440D02*
Y67040D01*
X168264D01*
Y65440D01*
X166664D01*
X167064Y65840D02*
Y66640D01*
X167864D01*
Y65840D01*
X167064D01*
X162727Y65440D02*
Y67040D01*
X164327D01*
Y65440D01*
X162727D01*
X163127Y65840D02*
Y66640D01*
X163927D01*
Y65840D01*
X163127D01*
X181376Y65440D02*
Y67040D01*
X182976D01*
Y65440D01*
X181376D01*
X181776Y65840D02*
Y66640D01*
X182576D01*
Y65840D01*
X181776D01*
X177439Y65440D02*
Y67040D01*
X179039D01*
Y65440D01*
X177439D01*
X177839Y65840D02*
Y66640D01*
X178639D01*
Y65840D01*
X177839D01*
X196089Y65440D02*
Y67040D01*
X197689D01*
Y65440D01*
X196089D01*
X196489Y65840D02*
Y66640D01*
X197289D01*
Y65840D01*
X196489D01*
X192152Y65440D02*
Y67040D01*
X193752D01*
Y65440D01*
X192152D01*
X192552Y65840D02*
Y66640D01*
X193352D01*
Y65840D01*
X192552D01*
X210801Y65440D02*
Y67040D01*
X212401D01*
Y65440D01*
X210801D01*
X211201Y65840D02*
Y66640D01*
X212001D01*
Y65840D01*
X211201D01*
X206864Y65440D02*
Y67040D01*
X208464D01*
Y65440D01*
X206864D01*
X207264Y65840D02*
Y66640D01*
X208064D01*
Y65840D01*
X207264D01*
X225514Y65440D02*
Y67040D01*
X227114D01*
Y65440D01*
X225514D01*
X225914Y65840D02*
Y66640D01*
X226714D01*
Y65840D01*
X225914D01*
X221577Y65440D02*
Y67040D01*
X223177D01*
Y65440D01*
X221577D01*
X221977Y65840D02*
Y66640D01*
X222777D01*
Y65840D01*
X221977D01*
X240226Y65440D02*
Y67040D01*
X241826D01*
Y65440D01*
X240226D01*
X240626Y65840D02*
Y66640D01*
X241426D01*
Y65840D01*
X240626D01*
X236289Y65440D02*
Y67040D01*
X237889D01*
Y65440D01*
X236289D01*
X236689Y65840D02*
Y66640D01*
X237489D01*
Y65840D01*
X236689D01*
X254840Y65440D02*
Y67040D01*
X256440D01*
Y65440D01*
X254840D01*
X255240Y65840D02*
Y66640D01*
X256040D01*
Y65840D01*
X255240D01*
X250903Y65440D02*
Y67040D01*
X252503D01*
Y65440D01*
X250903D01*
X251303Y65840D02*
Y66640D01*
X252103D01*
Y65840D01*
X251303D01*
X269454Y65440D02*
Y67040D01*
X271054D01*
Y65440D01*
X269454D01*
X269854Y65840D02*
Y66640D01*
X270654D01*
Y65840D01*
X269854D01*
X284068Y65440D02*
Y67040D01*
X285668D01*
Y65440D01*
X284068D01*
X284468Y65840D02*
Y66640D01*
X285268D01*
Y65840D01*
X284468D01*
X327910Y65440D02*
Y67040D01*
X329510D01*
Y65440D01*
X327910D01*
X328310Y65840D02*
Y66640D01*
X329110D01*
Y65840D01*
X328310D01*
X323973Y65440D02*
Y67040D01*
X325573D01*
Y65440D01*
X323973D01*
X324373Y65840D02*
Y66640D01*
X325173D01*
Y65840D01*
X324373D01*
X342524Y65440D02*
Y67040D01*
X344124D01*
Y65440D01*
X342524D01*
X342924Y65840D02*
Y66640D01*
X343724D01*
Y65840D01*
X342924D01*
X338587Y65440D02*
Y67040D01*
X340187D01*
Y65440D01*
X338587D01*
X338987Y65840D02*
Y66640D01*
X339787D01*
Y65840D01*
X338987D01*
X357039Y65440D02*
Y67040D01*
X358639D01*
Y65440D01*
X357039D01*
X357439Y65840D02*
Y66640D01*
X358239D01*
Y65840D01*
X357439D01*
X353102Y65440D02*
Y67040D01*
X354702D01*
Y65440D01*
X353102D01*
X353502Y65840D02*
Y66640D01*
X354302D01*
Y65840D01*
X353502D01*
X371555Y65440D02*
Y67040D01*
X373155D01*
Y65440D01*
X371555D01*
X371955Y65840D02*
Y66640D01*
X372755D01*
Y65840D01*
X371955D01*
X367618Y65440D02*
Y67040D01*
X369218D01*
Y65440D01*
X367618D01*
X368018Y65840D02*
Y66640D01*
X368818D01*
Y65840D01*
X368018D01*
X386070Y65440D02*
Y67040D01*
X387670D01*
Y65440D01*
X386070D01*
X386470Y65840D02*
Y66640D01*
X387270D01*
Y65840D01*
X386470D01*
X382133Y65440D02*
Y67040D01*
X383733D01*
Y65440D01*
X382133D01*
X382533Y65840D02*
Y66640D01*
X383333D01*
Y65840D01*
X382533D01*
X400586Y65440D02*
Y67040D01*
X402186D01*
Y65440D01*
X400586D01*
X400986Y65840D02*
Y66640D01*
X401786D01*
Y65840D01*
X400986D01*
X396649Y65440D02*
Y67040D01*
X398249D01*
Y65440D01*
X396649D01*
X397049Y65840D02*
Y66640D01*
X397849D01*
Y65840D01*
X397049D01*
X415101Y65440D02*
Y67040D01*
X416702D01*
Y65440D01*
X415101D01*
X415501Y65840D02*
Y66640D01*
X416301D01*
Y65840D01*
X415501D01*
X411165Y65440D02*
Y67040D01*
X412765D01*
Y65440D01*
X411165D01*
X411564Y65840D02*
Y66640D01*
X412364D01*
Y65840D01*
X411564D01*
X429617Y65440D02*
Y67040D01*
X431217D01*
Y65440D01*
X429617D01*
X430017Y65840D02*
Y66640D01*
X430817D01*
Y65840D01*
X430017D01*
X425680Y65440D02*
Y67040D01*
X427280D01*
Y65440D01*
X425680D01*
X426080Y65840D02*
Y66640D01*
X426880D01*
Y65840D01*
X426080D01*
X444133Y65440D02*
Y67040D01*
X445732D01*
Y65440D01*
X444133D01*
X444532Y65840D02*
Y66640D01*
X445332D01*
Y65840D01*
X444532D01*
X440196Y65440D02*
Y67040D01*
X441795D01*
Y65440D01*
X440196D01*
X440595Y65840D02*
Y66640D01*
X441396D01*
Y65840D01*
X440595D01*
X122527Y49692D02*
Y51292D01*
X124127D01*
Y49692D01*
X122527D01*
X122927Y50092D02*
Y50892D01*
X123727D01*
Y50092D01*
X122927D01*
X118590Y49692D02*
Y51292D01*
X120190D01*
Y49692D01*
X118590D01*
X118990Y50092D02*
Y50892D01*
X119790D01*
Y50092D01*
X118990D01*
X137239Y49692D02*
Y51292D01*
X138839D01*
Y49692D01*
X137239D01*
X137639Y50092D02*
Y50892D01*
X138439D01*
Y50092D01*
X137639D01*
X133302Y49692D02*
Y51292D01*
X134902D01*
Y49692D01*
X133302D01*
X133702Y50092D02*
Y50892D01*
X134502D01*
Y50092D01*
X133702D01*
X151952Y49692D02*
Y51292D01*
X153552D01*
Y49692D01*
X151952D01*
X152352Y50092D02*
Y50892D01*
X153152D01*
Y50092D01*
X152352D01*
X148015Y49692D02*
Y51292D01*
X149615D01*
Y49692D01*
X148015D01*
X148415Y50092D02*
Y50892D01*
X149215D01*
Y50092D01*
X148415D01*
X166664Y49692D02*
Y51292D01*
X168264D01*
Y49692D01*
X166664D01*
X167064Y50092D02*
Y50892D01*
X167864D01*
Y50092D01*
X167064D01*
X162727Y49692D02*
Y51292D01*
X164327D01*
Y49692D01*
X162727D01*
X163127Y50092D02*
Y50892D01*
X163927D01*
Y50092D01*
X163127D01*
X181376Y49692D02*
Y51292D01*
X182976D01*
Y49692D01*
X181376D01*
X181776Y50092D02*
Y50892D01*
X182576D01*
Y50092D01*
X181776D01*
X177439Y49692D02*
Y51292D01*
X179039D01*
Y49692D01*
X177439D01*
X177839Y50092D02*
Y50892D01*
X178639D01*
Y50092D01*
X177839D01*
X196089Y49692D02*
Y51292D01*
X197689D01*
Y49692D01*
X196089D01*
X196489Y50092D02*
Y50892D01*
X197289D01*
Y50092D01*
X196489D01*
X192152Y49692D02*
Y51292D01*
X193752D01*
Y49692D01*
X192152D01*
X192552Y50092D02*
Y50892D01*
X193352D01*
Y50092D01*
X192552D01*
X210801Y49692D02*
Y51292D01*
X212401D01*
Y49692D01*
X210801D01*
X211201Y50092D02*
Y50892D01*
X212001D01*
Y50092D01*
X211201D01*
X206864Y49692D02*
Y51292D01*
X208464D01*
Y49692D01*
X206864D01*
X207264Y50092D02*
Y50892D01*
X208064D01*
Y50092D01*
X207264D01*
X225514Y49692D02*
Y51292D01*
X227114D01*
Y49692D01*
X225514D01*
X225914Y50092D02*
Y50892D01*
X226714D01*
Y50092D01*
X225914D01*
X221577Y49692D02*
Y51292D01*
X223177D01*
Y49692D01*
X221577D01*
X221977Y50092D02*
Y50892D01*
X222777D01*
Y50092D01*
X221977D01*
X240226Y49692D02*
Y51292D01*
X241826D01*
Y49692D01*
X240226D01*
X240626Y50092D02*
Y50892D01*
X241426D01*
Y50092D01*
X240626D01*
X236289Y49692D02*
Y51292D01*
X237889D01*
Y49692D01*
X236289D01*
X236689Y50092D02*
Y50892D01*
X237489D01*
Y50092D01*
X236689D01*
X254840Y49692D02*
Y51292D01*
X256440D01*
Y49692D01*
X254840D01*
X255240Y50092D02*
Y50892D01*
X256040D01*
Y50092D01*
X255240D01*
X250903Y49692D02*
Y51292D01*
X252503D01*
Y49692D01*
X250903D01*
X251303Y50092D02*
Y50892D01*
X252103D01*
Y50092D01*
X251303D01*
X269454Y49692D02*
Y51292D01*
X271054D01*
Y49692D01*
X269454D01*
X269854Y50092D02*
Y50892D01*
X270654D01*
Y50092D01*
X269854D01*
X265517Y49692D02*
Y51292D01*
X267117D01*
Y49692D01*
X265517D01*
X265917Y50092D02*
Y50892D01*
X266717D01*
Y50092D01*
X265917D01*
X284068Y49692D02*
Y51292D01*
X285668D01*
Y49692D01*
X284068D01*
X284468Y50092D02*
Y50892D01*
X285268D01*
Y50092D01*
X284468D01*
X280131Y49692D02*
Y51292D01*
X281731D01*
Y49692D01*
X280131D01*
X280531Y50092D02*
Y50892D01*
X281331D01*
Y50092D01*
X280531D01*
X298682Y49692D02*
Y51292D01*
X300282D01*
Y49692D01*
X298682D01*
X299082Y50092D02*
Y50892D01*
X299882D01*
Y50092D01*
X299082D01*
X294745Y49692D02*
Y51292D01*
X296345D01*
Y49692D01*
X294745D01*
X295145Y50092D02*
Y50892D01*
X295945D01*
Y50092D01*
X295145D01*
X313296Y49692D02*
Y51292D01*
X314896D01*
Y49692D01*
X313296D01*
X313696Y50092D02*
Y50892D01*
X314496D01*
Y50092D01*
X313696D01*
X309359Y49692D02*
Y51292D01*
X310959D01*
Y49692D01*
X309359D01*
X309759Y50092D02*
Y50892D01*
X310559D01*
Y50092D01*
X309759D01*
X327910Y49692D02*
Y51292D01*
X329510D01*
Y49692D01*
X327910D01*
X328310Y50092D02*
Y50892D01*
X329110D01*
Y50092D01*
X328310D01*
X323973Y49692D02*
Y51292D01*
X325573D01*
Y49692D01*
X323973D01*
X324373Y50092D02*
Y50892D01*
X325173D01*
Y50092D01*
X324373D01*
X342524Y49692D02*
Y51292D01*
X344124D01*
Y49692D01*
X342524D01*
X342924Y50092D02*
Y50892D01*
X343724D01*
Y50092D01*
X342924D01*
X338587Y49692D02*
Y51292D01*
X340187D01*
Y49692D01*
X338587D01*
X338987Y50092D02*
Y50892D01*
X339787D01*
Y50092D01*
X338987D01*
X357039Y49692D02*
Y51292D01*
X358639D01*
Y49692D01*
X357039D01*
X357439Y50092D02*
Y50892D01*
X358239D01*
Y50092D01*
X357439D01*
X353102Y49692D02*
Y51292D01*
X354702D01*
Y49692D01*
X353102D01*
X353502Y50092D02*
Y50892D01*
X354302D01*
Y50092D01*
X353502D01*
X371555Y49692D02*
Y51292D01*
X373155D01*
Y49692D01*
X371555D01*
X371955Y50092D02*
Y50892D01*
X372755D01*
Y50092D01*
X371955D01*
X367618Y49692D02*
Y51292D01*
X369218D01*
Y49692D01*
X367618D01*
X368018Y50092D02*
Y50892D01*
X368818D01*
Y50092D01*
X368018D01*
X386070Y49692D02*
Y51292D01*
X387670D01*
Y49692D01*
X386070D01*
X386470Y50092D02*
Y50892D01*
X387270D01*
Y50092D01*
X386470D01*
X382133Y49692D02*
Y51292D01*
X383733D01*
Y49692D01*
X382133D01*
X382533Y50092D02*
Y50892D01*
X383333D01*
Y50092D01*
X382533D01*
X400586Y49692D02*
Y51292D01*
X402186D01*
Y49692D01*
X400586D01*
X400986Y50092D02*
Y50892D01*
X401786D01*
Y50092D01*
X400986D01*
X396649Y49692D02*
Y51292D01*
X398249D01*
Y49692D01*
X396649D01*
X397049Y50092D02*
Y50892D01*
X397849D01*
Y50092D01*
X397049D01*
X415101Y49692D02*
Y51292D01*
X416702D01*
Y49692D01*
X415101D01*
X415501Y50092D02*
Y50892D01*
X416301D01*
Y50092D01*
X415501D01*
X411165Y49692D02*
Y51292D01*
X412765D01*
Y49692D01*
X411165D01*
X411564Y50092D02*
Y50892D01*
X412364D01*
Y50092D01*
X411564D01*
X429617Y49692D02*
Y51292D01*
X431217D01*
Y49692D01*
X429617D01*
X430017Y50092D02*
Y50892D01*
X430817D01*
Y50092D01*
X430017D01*
X425680Y49692D02*
Y51292D01*
X427280D01*
Y49692D01*
X425680D01*
X426080Y50092D02*
Y50892D01*
X426880D01*
Y50092D01*
X426080D01*
X444133Y49692D02*
Y51292D01*
X445732D01*
Y49692D01*
X444133D01*
X444532Y50092D02*
Y50892D01*
X445332D01*
Y50092D01*
X444532D01*
X440196Y49692D02*
Y51292D01*
X441795D01*
Y49692D01*
X440196D01*
X440595Y50092D02*
Y50892D01*
X441396D01*
Y50092D01*
X440595D01*
X122527Y33944D02*
Y35544D01*
X124127D01*
Y33944D01*
X122527D01*
X122927Y34344D02*
Y35144D01*
X123727D01*
Y34344D01*
X122927D01*
X118590Y33944D02*
Y35544D01*
X120190D01*
Y33944D01*
X118590D01*
X118990Y34344D02*
Y35144D01*
X119790D01*
Y34344D01*
X118990D01*
X137239Y33944D02*
Y35544D01*
X138839D01*
Y33944D01*
X137239D01*
X137639Y34344D02*
Y35144D01*
X138439D01*
Y34344D01*
X137639D01*
X133302Y33944D02*
Y35544D01*
X134902D01*
Y33944D01*
X133302D01*
X133702Y34344D02*
Y35144D01*
X134502D01*
Y34344D01*
X133702D01*
X151952Y33944D02*
Y35544D01*
X153552D01*
Y33944D01*
X151952D01*
X152352Y34344D02*
Y35144D01*
X153152D01*
Y34344D01*
X152352D01*
X148015Y33944D02*
Y35544D01*
X149615D01*
Y33944D01*
X148015D01*
X148415Y34344D02*
Y35144D01*
X149215D01*
Y34344D01*
X148415D01*
X166664Y33944D02*
Y35544D01*
X168264D01*
Y33944D01*
X166664D01*
X167064Y34344D02*
Y35144D01*
X167864D01*
Y34344D01*
X167064D01*
X162727Y33944D02*
Y35544D01*
X164327D01*
Y33944D01*
X162727D01*
X163127Y34344D02*
Y35144D01*
X163927D01*
Y34344D01*
X163127D01*
X181376Y33944D02*
Y35544D01*
X182976D01*
Y33944D01*
X181376D01*
X181776Y34344D02*
Y35144D01*
X182576D01*
Y34344D01*
X181776D01*
X177439Y33944D02*
Y35544D01*
X179039D01*
Y33944D01*
X177439D01*
X177839Y34344D02*
Y35144D01*
X178639D01*
Y34344D01*
X177839D01*
X196089Y33944D02*
Y35544D01*
X197689D01*
Y33944D01*
X196089D01*
X196489Y34344D02*
Y35144D01*
X197289D01*
Y34344D01*
X196489D01*
X192152Y33944D02*
Y35544D01*
X193752D01*
Y33944D01*
X192152D01*
X192552Y34344D02*
Y35144D01*
X193352D01*
Y34344D01*
X192552D01*
X210801Y33944D02*
Y35544D01*
X212401D01*
Y33944D01*
X210801D01*
X211201Y34344D02*
Y35144D01*
X212001D01*
Y34344D01*
X211201D01*
X206864Y33944D02*
Y35544D01*
X208464D01*
Y33944D01*
X206864D01*
X207264Y34344D02*
Y35144D01*
X208064D01*
Y34344D01*
X207264D01*
X225514Y33944D02*
Y35544D01*
X227114D01*
Y33944D01*
X225514D01*
X225914Y34344D02*
Y35144D01*
X226714D01*
Y34344D01*
X225914D01*
X221577Y33944D02*
Y35544D01*
X223177D01*
Y33944D01*
X221577D01*
X221977Y34344D02*
Y35144D01*
X222777D01*
Y34344D01*
X221977D01*
X240226Y33944D02*
Y35544D01*
X241826D01*
Y33944D01*
X240226D01*
X240626Y34344D02*
Y35144D01*
X241426D01*
Y34344D01*
X240626D01*
X236289Y33944D02*
Y35544D01*
X237889D01*
Y33944D01*
X236289D01*
X236689Y34344D02*
Y35144D01*
X237489D01*
Y34344D01*
X236689D01*
X254840Y33944D02*
Y35544D01*
X256440D01*
Y33944D01*
X254840D01*
X255240Y34344D02*
Y35144D01*
X256040D01*
Y34344D01*
X255240D01*
X250903Y33944D02*
Y35544D01*
X252503D01*
Y33944D01*
X250903D01*
X251303Y34344D02*
Y35144D01*
X252103D01*
Y34344D01*
X251303D01*
X269454Y33944D02*
Y35544D01*
X271054D01*
Y33944D01*
X269454D01*
X269854Y34344D02*
Y35144D01*
X270654D01*
Y34344D01*
X269854D01*
X265517Y33944D02*
Y35544D01*
X267117D01*
Y33944D01*
X265517D01*
X265917Y34344D02*
Y35144D01*
X266717D01*
Y34344D01*
X265917D01*
X284068Y33944D02*
Y35544D01*
X285668D01*
Y33944D01*
X284068D01*
X284468Y34344D02*
Y35144D01*
X285268D01*
Y34344D01*
X284468D01*
X280131Y33944D02*
Y35544D01*
X281731D01*
Y33944D01*
X280131D01*
X280531Y34344D02*
Y35144D01*
X281331D01*
Y34344D01*
X280531D01*
X298682Y33944D02*
Y35544D01*
X300282D01*
Y33944D01*
X298682D01*
X299082Y34344D02*
Y35144D01*
X299882D01*
Y34344D01*
X299082D01*
X294745Y33944D02*
Y35544D01*
X296345D01*
Y33944D01*
X294745D01*
X295145Y34344D02*
Y35144D01*
X295945D01*
Y34344D01*
X295145D01*
X313296Y33944D02*
Y35544D01*
X314896D01*
Y33944D01*
X313296D01*
X313696Y34344D02*
Y35144D01*
X314496D01*
Y34344D01*
X313696D01*
X309359Y33944D02*
Y35544D01*
X310959D01*
Y33944D01*
X309359D01*
X309759Y34344D02*
Y35144D01*
X310559D01*
Y34344D01*
X309759D01*
X327910Y33944D02*
Y35544D01*
X329510D01*
Y33944D01*
X327910D01*
X328310Y34344D02*
Y35144D01*
X329110D01*
Y34344D01*
X328310D01*
X323973Y33944D02*
Y35544D01*
X325573D01*
Y33944D01*
X323973D01*
X324373Y34344D02*
Y35144D01*
X325173D01*
Y34344D01*
X324373D01*
X342524Y33944D02*
Y35544D01*
X344124D01*
Y33944D01*
X342524D01*
X342924Y34344D02*
Y35144D01*
X343724D01*
Y34344D01*
X342924D01*
X338587Y33944D02*
Y35544D01*
X340187D01*
Y33944D01*
X338587D01*
X338987Y34344D02*
Y35144D01*
X339787D01*
Y34344D01*
X338987D01*
X357039Y33944D02*
Y35544D01*
X358639D01*
Y33944D01*
X357039D01*
X357439Y34344D02*
Y35144D01*
X358239D01*
Y34344D01*
X357439D01*
X353102Y33944D02*
Y35544D01*
X354702D01*
Y33944D01*
X353102D01*
X353502Y34344D02*
Y35144D01*
X354302D01*
Y34344D01*
X353502D01*
X371555Y33944D02*
Y35544D01*
X373155D01*
Y33944D01*
X371555D01*
X371955Y34344D02*
Y35144D01*
X372755D01*
Y34344D01*
X371955D01*
X367618Y33944D02*
Y35544D01*
X369218D01*
Y33944D01*
X367618D01*
X368018Y34344D02*
Y35144D01*
X368818D01*
Y34344D01*
X368018D01*
X386070Y33944D02*
Y35544D01*
X387670D01*
Y33944D01*
X386070D01*
X386470Y34344D02*
Y35144D01*
X387270D01*
Y34344D01*
X386470D01*
X382133Y33944D02*
Y35544D01*
X383733D01*
Y33944D01*
X382133D01*
X382533Y34344D02*
Y35144D01*
X383333D01*
Y34344D01*
X382533D01*
X400586Y33944D02*
Y35544D01*
X402186D01*
Y33944D01*
X400586D01*
X400986Y34344D02*
Y35144D01*
X401786D01*
Y34344D01*
X400986D01*
X396649Y33944D02*
Y35544D01*
X398249D01*
Y33944D01*
X396649D01*
X397049Y34344D02*
Y35144D01*
X397849D01*
Y34344D01*
X397049D01*
X415101Y33944D02*
Y35544D01*
X416702D01*
Y33944D01*
X415101D01*
X415501Y34344D02*
Y35144D01*
X416301D01*
Y34344D01*
X415501D01*
X411165Y33944D02*
Y35544D01*
X412765D01*
Y33944D01*
X411165D01*
X411564Y34344D02*
Y35144D01*
X412364D01*
Y34344D01*
X411564D01*
X429617Y33944D02*
Y35544D01*
X431217D01*
Y33944D01*
X429617D01*
X430017Y34344D02*
Y35144D01*
X430817D01*
Y34344D01*
X430017D01*
X425680Y33944D02*
Y35544D01*
X427280D01*
Y33944D01*
X425680D01*
X426080Y34344D02*
Y35144D01*
X426880D01*
Y34344D01*
X426080D01*
X444133Y33944D02*
Y35544D01*
X445732D01*
Y33944D01*
X444133D01*
X444532Y34344D02*
Y35144D01*
X445332D01*
Y34344D01*
X444532D01*
X440196Y33944D02*
Y35544D01*
X441795D01*
Y33944D01*
X440196D01*
X440595Y34344D02*
Y35144D01*
X441396D01*
Y34344D01*
X440595D01*
X120558Y18196D02*
Y19796D01*
X122158D01*
Y18196D01*
X120558D01*
X120958Y18596D02*
Y19396D01*
X121758D01*
Y18596D01*
X120958D01*
X454711Y18196D02*
Y19796D01*
X456311D01*
Y18196D01*
X454711D01*
X455111Y18596D02*
Y19396D01*
X455911D01*
Y18596D01*
X455111D01*
X458648Y18196D02*
Y19796D01*
X460248D01*
Y18196D01*
X458648D01*
X459048Y18596D02*
Y19396D01*
X459848D01*
Y18596D01*
X459048D01*
X440196Y18196D02*
Y19796D01*
X441795D01*
Y18196D01*
X440196D01*
X440595Y18596D02*
Y19396D01*
X441396D01*
Y18596D01*
X440595D01*
X444133Y18196D02*
Y19796D01*
X445732D01*
Y18196D01*
X444133D01*
X444532Y18596D02*
Y19396D01*
X445332D01*
Y18596D01*
X444532D01*
X425680Y18196D02*
Y19796D01*
X427280D01*
Y18196D01*
X425680D01*
X426080Y18596D02*
Y19396D01*
X426880D01*
Y18596D01*
X426080D01*
X429617Y18196D02*
Y19796D01*
X431217D01*
Y18196D01*
X429617D01*
X430017Y18596D02*
Y19396D01*
X430817D01*
Y18596D01*
X430017D01*
X411165Y18196D02*
Y19796D01*
X412765D01*
Y18196D01*
X411165D01*
X411564Y18596D02*
Y19396D01*
X412364D01*
Y18596D01*
X411564D01*
X415101Y18196D02*
Y19796D01*
X416702D01*
Y18196D01*
X415101D01*
X415501Y18596D02*
Y19396D01*
X416301D01*
Y18596D01*
X415501D01*
X396649Y18196D02*
Y19796D01*
X398249D01*
Y18196D01*
X396649D01*
X397049Y18596D02*
Y19396D01*
X397849D01*
Y18596D01*
X397049D01*
X400586Y18196D02*
Y19796D01*
X402186D01*
Y18196D01*
X400586D01*
X400986Y18596D02*
Y19396D01*
X401786D01*
Y18596D01*
X400986D01*
X382133Y18196D02*
Y19796D01*
X383733D01*
Y18196D01*
X382133D01*
X382533Y18596D02*
Y19396D01*
X383333D01*
Y18596D01*
X382533D01*
X386070Y18196D02*
Y19796D01*
X387670D01*
Y18196D01*
X386070D01*
X386470Y18596D02*
Y19396D01*
X387270D01*
Y18596D01*
X386470D01*
X367618Y18196D02*
Y19796D01*
X369218D01*
Y18196D01*
X367618D01*
X368018Y18596D02*
Y19396D01*
X368818D01*
Y18596D01*
X368018D01*
X371555Y18196D02*
Y19796D01*
X373155D01*
Y18196D01*
X371555D01*
X371955Y18596D02*
Y19396D01*
X372755D01*
Y18596D01*
X371955D01*
X353102Y18196D02*
Y19796D01*
X354702D01*
Y18196D01*
X353102D01*
X353502Y18596D02*
Y19396D01*
X354302D01*
Y18596D01*
X353502D01*
X357039Y18196D02*
Y19796D01*
X358639D01*
Y18196D01*
X357039D01*
X357439Y18596D02*
Y19396D01*
X358239D01*
Y18596D01*
X357439D01*
X338587Y18196D02*
Y19796D01*
X340187D01*
Y18196D01*
X338587D01*
X338987Y18596D02*
Y19396D01*
X339787D01*
Y18596D01*
X338987D01*
X342524Y18196D02*
Y19796D01*
X344124D01*
Y18196D01*
X342524D01*
X342924Y18596D02*
Y19396D01*
X343724D01*
Y18596D01*
X342924D01*
X323973Y18196D02*
Y19796D01*
X325573D01*
Y18196D01*
X323973D01*
X324373Y18596D02*
Y19396D01*
X325173D01*
Y18596D01*
X324373D01*
X327910Y18196D02*
Y19796D01*
X329510D01*
Y18196D01*
X327910D01*
X328310Y18596D02*
Y19396D01*
X329110D01*
Y18596D01*
X328310D01*
X309359Y18196D02*
Y19796D01*
X310959D01*
Y18196D01*
X309359D01*
X309759Y18596D02*
Y19396D01*
X310559D01*
Y18596D01*
X309759D01*
X313296Y18196D02*
Y19796D01*
X314896D01*
Y18196D01*
X313296D01*
X313696Y18596D02*
Y19396D01*
X314496D01*
Y18596D01*
X313696D01*
X294745Y18196D02*
Y19796D01*
X296345D01*
Y18196D01*
X294745D01*
X295145Y18596D02*
Y19396D01*
X295945D01*
Y18596D01*
X295145D01*
X298682Y18196D02*
Y19796D01*
X300282D01*
Y18196D01*
X298682D01*
X299082Y18596D02*
Y19396D01*
X299882D01*
Y18596D01*
X299082D01*
X280131Y18196D02*
Y19796D01*
X281731D01*
Y18196D01*
X280131D01*
X280531Y18596D02*
Y19396D01*
X281331D01*
Y18596D01*
X280531D01*
X284068Y18196D02*
Y19796D01*
X285668D01*
Y18196D01*
X284068D01*
X284468Y18596D02*
Y19396D01*
X285268D01*
Y18596D01*
X284468D01*
X265517Y18196D02*
Y19796D01*
X267117D01*
Y18196D01*
X265517D01*
X265917Y18596D02*
Y19396D01*
X266717D01*
Y18596D01*
X265917D01*
X269454Y18196D02*
Y19796D01*
X271054D01*
Y18196D01*
X269454D01*
X269854Y18596D02*
Y19396D01*
X270654D01*
Y18596D01*
X269854D01*
X250903Y18196D02*
Y19796D01*
X252503D01*
Y18196D01*
X250903D01*
X251303Y18596D02*
Y19396D01*
X252103D01*
Y18596D01*
X251303D01*
X254840Y18196D02*
Y19796D01*
X256440D01*
Y18196D01*
X254840D01*
X255240Y18596D02*
Y19396D01*
X256040D01*
Y18596D01*
X255240D01*
X236289Y18196D02*
Y19796D01*
X237889D01*
Y18196D01*
X236289D01*
X236689Y18596D02*
Y19396D01*
X237489D01*
Y18596D01*
X236689D01*
X240226Y18196D02*
Y19796D01*
X241826D01*
Y18196D01*
X240226D01*
X240626Y18596D02*
Y19396D01*
X241426D01*
Y18596D01*
X240626D01*
X221577Y18196D02*
Y19796D01*
X223177D01*
Y18196D01*
X221577D01*
X221977Y18596D02*
Y19396D01*
X222777D01*
Y18596D01*
X221977D01*
X225514Y18196D02*
Y19796D01*
X227114D01*
Y18196D01*
X225514D01*
X225914Y18596D02*
Y19396D01*
X226714D01*
Y18596D01*
X225914D01*
X206864Y18196D02*
Y19796D01*
X208464D01*
Y18196D01*
X206864D01*
X207264Y18596D02*
Y19396D01*
X208064D01*
Y18596D01*
X207264D01*
X210801Y18196D02*
Y19796D01*
X212401D01*
Y18196D01*
X210801D01*
X211201Y18596D02*
Y19396D01*
X212001D01*
Y18596D01*
X211201D01*
X192152Y18196D02*
Y19796D01*
X193752D01*
Y18196D01*
X192152D01*
X192552Y18596D02*
Y19396D01*
X193352D01*
Y18596D01*
X192552D01*
X196089Y18196D02*
Y19796D01*
X197689D01*
Y18196D01*
X196089D01*
X196489Y18596D02*
Y19396D01*
X197289D01*
Y18596D01*
X196489D01*
X177439Y18196D02*
Y19796D01*
X179039D01*
Y18196D01*
X177439D01*
X177839Y18596D02*
Y19396D01*
X178639D01*
Y18596D01*
X177839D01*
X181376Y18196D02*
Y19796D01*
X182976D01*
Y18196D01*
X181376D01*
X181776Y18596D02*
Y19396D01*
X182576D01*
Y18596D01*
X181776D01*
X162727Y18196D02*
Y19796D01*
X164327D01*
Y18196D01*
X162727D01*
X163127Y18596D02*
Y19396D01*
X163927D01*
Y18596D01*
X163127D01*
X166664Y18196D02*
Y19796D01*
X168264D01*
Y18196D01*
X166664D01*
X167064Y18596D02*
Y19396D01*
X167864D01*
Y18596D01*
X167064D01*
X148015Y18196D02*
Y19796D01*
X149615D01*
Y18196D01*
X148015D01*
X148415Y18596D02*
Y19396D01*
X149215D01*
Y18596D01*
X148415D01*
X151952Y18196D02*
Y19796D01*
X153552D01*
Y18196D01*
X151952D01*
X152352Y18596D02*
Y19396D01*
X153152D01*
Y18596D01*
X152352D01*
X133302Y18196D02*
Y19796D01*
X134902D01*
Y18196D01*
X133302D01*
X133702Y18596D02*
Y19396D01*
X134502D01*
Y18596D01*
X133702D01*
X137239Y18196D02*
Y19796D01*
X138839D01*
Y18196D01*
X137239D01*
X137639Y18596D02*
Y19396D01*
X138439D01*
Y18596D01*
X137639D01*
X118590Y18196D02*
Y19796D01*
X120190D01*
Y18196D01*
X118590D01*
X118990Y18596D02*
Y19396D01*
X119790D01*
Y18596D01*
X118990D01*
X122527Y18196D02*
Y19796D01*
X124127D01*
Y18196D01*
X122527D01*
X122927Y18596D02*
Y19396D01*
X123727D01*
Y18596D01*
X122927D01*
D90*
X18123Y107087D02*
G03*
X18123Y107087I-800J0D01*
G01*
Y126772D02*
G03*
X18123Y126772I-800J0D01*
G01*
M02*
