G04*
G04 #@! TF.GenerationSoftware,Altium Limited,Altium Designer,22.7.1 (60)*
G04*
G04 Layer_Color=32896*
%FSLAX25Y25*%
%MOIN*%
G70*
G04*
G04 #@! TF.SameCoordinates,EB09720E-E5E6-4C8F-983A-54733B733D7F*
G04*
G04*
G04 #@! TF.FilePolarity,Positive*
G04*
G01*
G75*
%ADD10C,0.00787*%
G36*
X436336Y154606D02*
X431408Y149474D01*
X431262Y148075D01*
X430942Y144721D01*
X430708Y142301D01*
X435986Y136848D01*
X435636Y136498D01*
X430650Y141601D01*
X430358Y138481D01*
X430213D01*
Y137285D01*
X429105D01*
Y138481D01*
X425664D01*
X425547Y138248D01*
X425372Y138014D01*
X425139Y137752D01*
X424818Y137519D01*
X424439Y137402D01*
X424089Y137373D01*
X423739D01*
X423477Y137460D01*
X423156Y137577D01*
X422893Y137752D01*
X422689Y137956D01*
X422485Y138248D01*
X422339Y138568D01*
X422252Y138860D01*
X422223Y139122D01*
X422252Y139414D01*
X422310Y139647D01*
X422398Y139881D01*
X422514Y140114D01*
X422660Y140318D01*
X422864Y140522D01*
X423098Y140668D01*
X423302Y140755D01*
X423273Y141018D01*
X418898Y136498D01*
X418549Y136877D01*
X423214Y141718D01*
X422835Y145946D01*
X422573Y149008D01*
X421173D01*
Y150961D01*
X421552D01*
X417994Y154606D01*
X418374Y154956D01*
X421698Y151515D01*
Y151778D01*
X421639Y151836D01*
X421552Y151894D01*
X421465Y151982D01*
X421377Y152069D01*
X421319Y152215D01*
X421290Y152332D01*
X421260Y152478D01*
X421290Y152653D01*
X421348Y152769D01*
X421465Y152973D01*
X421610Y153090D01*
X421814Y153178D01*
X422019Y153207D01*
X422223Y153178D01*
X422398Y153119D01*
X422543Y153032D01*
X422602Y152944D01*
X422748Y153061D01*
X422952Y153207D01*
X423214Y153323D01*
X423593Y153469D01*
X424002Y153586D01*
X424410Y153673D01*
X424847Y153761D01*
X425197Y153790D01*
Y154227D01*
X427996D01*
Y153848D01*
X428230D01*
X428580Y153819D01*
X428959Y153761D01*
X429338Y153702D01*
Y153936D01*
X430533D01*
Y153382D01*
X430679Y153294D01*
X430883Y153207D01*
X431087Y153090D01*
X431262Y152973D01*
X431437Y152828D01*
X431554Y152711D01*
X431612Y152623D01*
X431671Y152507D01*
X431641Y152303D01*
X432341D01*
Y151399D01*
X431583D01*
X431466Y150262D01*
X435986Y154956D01*
X436336Y154606D01*
D02*
G37*
G36*
X435286Y132474D02*
Y132416D01*
Y132299D01*
Y132182D01*
Y132066D01*
Y131949D01*
Y131891D01*
Y131862D01*
Y131395D01*
Y130958D01*
Y130754D01*
Y130608D01*
Y130520D01*
Y130491D01*
Y129966D01*
Y129733D01*
Y129529D01*
Y129354D01*
Y129237D01*
Y129150D01*
Y129121D01*
Y128917D01*
Y128771D01*
Y128654D01*
Y128596D01*
Y128508D01*
X419336D01*
Y128537D01*
Y128596D01*
Y128829D01*
Y129033D01*
Y129091D01*
Y129121D01*
Y129587D01*
Y130025D01*
Y130229D01*
Y130375D01*
Y130462D01*
Y130491D01*
Y131016D01*
Y131249D01*
Y131453D01*
Y131628D01*
Y131745D01*
Y131833D01*
Y131862D01*
Y132066D01*
Y132241D01*
Y132357D01*
Y132416D01*
Y132474D01*
Y132503D01*
X435286D01*
Y132474D01*
D02*
G37*
G36*
X483539Y124982D02*
X483501Y124959D01*
X483475Y124938D01*
X483458Y124921D01*
X483455Y124915D01*
X483452Y124912D01*
X483437Y124883D01*
X483428Y124854D01*
Y124845D01*
X483426Y124837D01*
Y124828D01*
X483428Y124808D01*
X483431Y124790D01*
X483446Y124761D01*
X483455Y124752D01*
X483460Y124743D01*
X483463Y124741D01*
X483466Y124738D01*
X483487Y124726D01*
X483510Y124717D01*
X483565Y124708D01*
X483591Y124706D01*
X483612Y124703D01*
X483626D01*
X483632D01*
X484459D01*
X484461Y124997D01*
X484555D01*
Y124703D01*
X484971D01*
Y124659D01*
X484921Y124639D01*
X484880Y124621D01*
X484848Y124604D01*
X484822Y124592D01*
X484802Y124583D01*
X484787Y124575D01*
X484779Y124572D01*
X484776Y124569D01*
X484741Y124546D01*
X484706Y124519D01*
X484677Y124496D01*
X484654Y124473D01*
X484633Y124455D01*
X484616Y124441D01*
X484607Y124429D01*
X484604Y124426D01*
X484581Y124397D01*
X484560Y124368D01*
X484543Y124342D01*
X484528Y124319D01*
X484517Y124301D01*
X484511Y124287D01*
X484508Y124275D01*
X484505Y124272D01*
X484461D01*
Y124473D01*
X483603D01*
X483557D01*
X483513Y124479D01*
X483478Y124482D01*
X483449Y124487D01*
X483428Y124493D01*
X483411Y124496D01*
X483402Y124502D01*
X483399D01*
X483356Y124528D01*
X483341Y124543D01*
X483327Y124557D01*
X483315Y124569D01*
X483306Y124581D01*
X483303Y124586D01*
X483300Y124589D01*
X483289Y124612D01*
X483280Y124636D01*
X483271Y124674D01*
X483268Y124691D01*
X483265Y124703D01*
Y124714D01*
X483268Y124749D01*
X483277Y124784D01*
X483286Y124813D01*
X483300Y124842D01*
X483312Y124866D01*
X483321Y124883D01*
X483329Y124895D01*
X483332Y124898D01*
X483361Y124930D01*
X483393Y124959D01*
X483428Y124982D01*
X483463Y125002D01*
X483493Y125017D01*
X483516Y125029D01*
X483533Y125034D01*
X483536Y125037D01*
X483539D01*
Y124982D01*
D02*
G37*
G36*
X484461Y124258D02*
X484482Y124252D01*
X484514Y124234D01*
X484528Y124225D01*
X484537Y124217D01*
X484543Y124211D01*
X484546Y124208D01*
X484560Y124188D01*
X484572Y124167D01*
X484581Y124147D01*
X484587Y124127D01*
X484589Y124109D01*
X484592Y124094D01*
Y124083D01*
X484589Y124051D01*
X484581Y124022D01*
X484566Y123993D01*
X484549Y123964D01*
X484525Y123934D01*
X484502Y123908D01*
X484450Y123859D01*
X484398Y123818D01*
X484374Y123801D01*
X484351Y123786D01*
X484333Y123774D01*
X484319Y123766D01*
X484310Y123763D01*
X484307Y123760D01*
X484592D01*
Y123699D01*
X484438Y123318D01*
X484389Y123329D01*
X484400Y123367D01*
X484406Y123399D01*
X484409Y123411D01*
Y123425D01*
X484406Y123451D01*
X484400Y123469D01*
X484392Y123483D01*
X484389Y123486D01*
X484371Y123501D01*
X484348Y123512D01*
X484331Y123515D01*
X484328Y123518D01*
X484325D01*
X484316Y123521D01*
X484301D01*
X484287Y123524D01*
X484267D01*
X484223Y123527D01*
X484179Y123530D01*
X484136D01*
X484098D01*
X484083D01*
X484071D01*
X484066D01*
X484063D01*
X483574D01*
X483536D01*
X483504D01*
X483481Y123527D01*
X483463D01*
X483452Y123524D01*
X483443D01*
X483437Y123521D01*
X483405Y123507D01*
X483382Y123492D01*
X483370Y123478D01*
X483364Y123475D01*
Y123472D01*
X483356Y123451D01*
X483347Y123431D01*
X483338Y123384D01*
Y123361D01*
X483335Y123344D01*
Y123329D01*
X483286D01*
Y123981D01*
X483335D01*
Y123949D01*
X483338Y123923D01*
X483344Y123900D01*
X483347Y123882D01*
X483353Y123868D01*
X483356Y123856D01*
X483359Y123850D01*
Y123847D01*
X483379Y123818D01*
X483399Y123801D01*
X483417Y123789D01*
X483420Y123786D01*
X483423D01*
X483446Y123777D01*
X483469Y123772D01*
X483522Y123763D01*
X483545D01*
X483565Y123760D01*
X483577D01*
X483583D01*
X484191D01*
X484235Y123783D01*
X484275Y123806D01*
X484307Y123830D01*
X484333Y123847D01*
X484351Y123865D01*
X484365Y123876D01*
X484374Y123885D01*
X484377Y123888D01*
X484395Y123908D01*
X484403Y123926D01*
X484406Y123937D01*
Y123940D01*
X484403Y123952D01*
X484398Y123967D01*
X484383Y123996D01*
X484371Y124007D01*
X484365Y124019D01*
X484360Y124025D01*
X484357Y124028D01*
X484342Y124051D01*
X484331Y124071D01*
X484322Y124089D01*
X484316Y124106D01*
X484313Y124121D01*
X484310Y124129D01*
Y124138D01*
X484313Y124156D01*
X484316Y124173D01*
X484328Y124199D01*
X484339Y124217D01*
X484345Y124220D01*
Y124223D01*
X484360Y124234D01*
X484377Y124246D01*
X484406Y124255D01*
X484418Y124258D01*
X484430Y124260D01*
X484435D01*
X484438D01*
X484461Y124258D01*
D02*
G37*
G36*
X483452Y123271D02*
X483437Y123233D01*
X483428Y123201D01*
Y123189D01*
X483426Y123184D01*
Y123175D01*
X483428Y123152D01*
X483437Y123134D01*
X483443Y123123D01*
X483446Y123120D01*
X483466Y123105D01*
X483487Y123096D01*
X483504Y123091D01*
X483510Y123088D01*
X483513D01*
X483525D01*
X483539Y123085D01*
X483577Y123082D01*
X483621D01*
X483664Y123079D01*
X483708D01*
X483746D01*
X483760D01*
X483772D01*
X483778D01*
X483780D01*
X484555D01*
Y122645D01*
X484505D01*
X484502Y122686D01*
X484496Y122724D01*
X484491Y122750D01*
X484482Y122773D01*
X484476Y122788D01*
X484467Y122800D01*
X484464Y122805D01*
X484461Y122808D01*
X484444Y122823D01*
X484424Y122832D01*
X484374Y122843D01*
X484351Y122846D01*
X484331Y122849D01*
X484319D01*
X484313D01*
X483594D01*
X483559Y122811D01*
X483527Y122776D01*
X483504Y122747D01*
X483484Y122721D01*
X483469Y122698D01*
X483460Y122683D01*
X483455Y122671D01*
X483452Y122669D01*
X483440Y122642D01*
X483431Y122616D01*
X483426Y122593D01*
X483423Y122573D01*
X483420Y122558D01*
X483417Y122546D01*
Y122535D01*
X483420Y122503D01*
X483426Y122474D01*
X483434Y122450D01*
X483446Y122427D01*
X483455Y122410D01*
X483463Y122398D01*
X483469Y122389D01*
X483472Y122386D01*
X483498Y122366D01*
X483533Y122351D01*
X483571Y122340D01*
X483609Y122334D01*
X483647Y122328D01*
X483676Y122325D01*
X483687D01*
X483696D01*
X483702D01*
X483705D01*
X484555D01*
Y121880D01*
X484505D01*
Y121915D01*
X484502Y121944D01*
X484499Y121967D01*
X484496Y121985D01*
X484491Y121999D01*
X484488Y122008D01*
X484485Y122014D01*
Y122017D01*
X484470Y122043D01*
X484453Y122060D01*
X484438Y122072D01*
X484435Y122075D01*
X484432D01*
X484418Y122081D01*
X484398Y122087D01*
X484357Y122092D01*
X484336Y122095D01*
X484322D01*
X484310D01*
X484307D01*
X483740D01*
X483676D01*
X483623Y122101D01*
X483574Y122104D01*
X483536Y122110D01*
X483507Y122116D01*
X483484Y122119D01*
X483472Y122125D01*
X483466D01*
X483431Y122136D01*
X483402Y122154D01*
X483373Y122171D01*
X483353Y122188D01*
X483332Y122206D01*
X483321Y122221D01*
X483312Y122229D01*
X483309Y122232D01*
X483289Y122264D01*
X483274Y122293D01*
X483263Y122325D01*
X483257Y122354D01*
X483251Y122380D01*
X483248Y122401D01*
Y122418D01*
X483251Y122453D01*
X483254Y122488D01*
X483263Y122517D01*
X483271Y122544D01*
X483277Y122567D01*
X483286Y122584D01*
X483289Y122596D01*
X483292Y122599D01*
X483303Y122616D01*
X483315Y122634D01*
X483347Y122675D01*
X483382Y122715D01*
X483420Y122756D01*
X483455Y122791D01*
X483484Y122823D01*
X483495Y122835D01*
X483504Y122843D01*
X483510Y122846D01*
X483513Y122849D01*
X483248D01*
Y122910D01*
X483402Y123291D01*
X483452Y123271D01*
D02*
G37*
G36*
X483344Y121854D02*
X483350Y121810D01*
X483361Y121769D01*
X483373Y121734D01*
X483385Y121703D01*
X483396Y121679D01*
X483402Y121665D01*
X483405Y121659D01*
X483434Y121612D01*
X483469Y121563D01*
X483510Y121516D01*
X483548Y121470D01*
X483586Y121432D01*
X483615Y121400D01*
X483626Y121388D01*
X483635Y121379D01*
X483641Y121374D01*
X483644Y121371D01*
X484331Y120678D01*
X484613Y120963D01*
X484656Y121007D01*
X484697Y121048D01*
X484732Y121083D01*
X484764Y121112D01*
X484790Y121141D01*
X484814Y121164D01*
X484834Y121182D01*
X484848Y121199D01*
X484863Y121211D01*
X484872Y121222D01*
X484886Y121237D01*
X484892Y121243D01*
X484895Y121246D01*
X484930Y121283D01*
X484956Y121318D01*
X484982Y121347D01*
X485000Y121374D01*
X485017Y121394D01*
X485026Y121409D01*
X485032Y121417D01*
X485035Y121420D01*
X485061Y121470D01*
X485073Y121490D01*
X485081Y121508D01*
X485087Y121522D01*
X485090Y121534D01*
X485093Y121540D01*
Y121543D01*
X485105Y121583D01*
X485110Y121618D01*
Y121633D01*
X485113Y121644D01*
Y121656D01*
X485166D01*
Y120963D01*
X485113D01*
Y121030D01*
X485110Y121051D01*
X485105Y121068D01*
X485102Y121080D01*
X485096Y121091D01*
X485090Y121097D01*
X485087Y121103D01*
X485070Y121121D01*
X485052Y121129D01*
X485038Y121132D01*
X485035D01*
X485032D01*
X485017D01*
X485000Y121126D01*
X484968Y121115D01*
X484956Y121109D01*
X484944Y121103D01*
X484939Y121100D01*
X484936Y121097D01*
X484910Y121077D01*
X484878Y121051D01*
X484843Y121019D01*
X484802Y120984D01*
X484761Y120943D01*
X484721Y120902D01*
X484636Y120815D01*
X484595Y120774D01*
X484557Y120733D01*
X484523Y120699D01*
X484493Y120667D01*
X484467Y120637D01*
X484450Y120617D01*
X484435Y120605D01*
X484432Y120600D01*
X484406Y120571D01*
X484383Y120544D01*
X484342Y120501D01*
X484313Y120469D01*
X484290Y120445D01*
X484275Y120428D01*
X484264Y120416D01*
X484261Y120413D01*
X484258Y120411D01*
X484834D01*
X484880D01*
X484921Y120413D01*
X484950Y120416D01*
X484977Y120419D01*
X484994D01*
X485006Y120422D01*
X485011Y120425D01*
X485014D01*
X485043Y120442D01*
X485064Y120463D01*
X485078Y120480D01*
X485081Y120483D01*
Y120486D01*
X485093Y120509D01*
X485099Y120533D01*
X485110Y120571D01*
Y120588D01*
X485113Y120600D01*
Y120678D01*
X485166D01*
Y119878D01*
X485113D01*
Y119968D01*
X485108Y119991D01*
X485102Y120012D01*
X485096Y120032D01*
X485090Y120047D01*
X485084Y120058D01*
X485081Y120067D01*
X485078Y120070D01*
X485070Y120085D01*
X485061Y120096D01*
X485041Y120114D01*
X485026Y120122D01*
X485023Y120125D01*
X485020D01*
X485000Y120131D01*
X484971Y120137D01*
X484942Y120140D01*
X484910Y120143D01*
X484880Y120146D01*
X484857D01*
X484840D01*
X484837D01*
X484834D01*
X483618D01*
X483589D01*
X483559D01*
X483513Y120140D01*
X483475Y120134D01*
X483449Y120128D01*
X483428Y120122D01*
X483414Y120117D01*
X483408Y120114D01*
X483405Y120111D01*
X483382Y120088D01*
X483367Y120061D01*
X483356Y120035D01*
X483347Y120006D01*
X483341Y119983D01*
X483338Y119962D01*
Y119878D01*
X483286D01*
Y120678D01*
X483338D01*
Y120611D01*
X483341Y120588D01*
X483344Y120565D01*
X483350Y120541D01*
X483356Y120524D01*
X483361Y120509D01*
X483364Y120498D01*
X483370Y120489D01*
Y120486D01*
X483391Y120460D01*
X483408Y120440D01*
X483423Y120431D01*
X483428Y120428D01*
X483449Y120422D01*
X483478Y120419D01*
X483510Y120413D01*
X483542D01*
X483571Y120411D01*
X483594D01*
X483612D01*
X483615D01*
X483618D01*
X484226D01*
X483583Y121056D01*
X483557Y121080D01*
X483536Y121100D01*
X483519Y121118D01*
X483507Y121126D01*
X483495Y121135D01*
X483490Y121141D01*
X483484Y121144D01*
X483463Y121152D01*
X483446Y121155D01*
X483431Y121158D01*
X483428D01*
X483426D01*
X483414Y121155D01*
X483402Y121152D01*
X483382Y121141D01*
X483370Y121126D01*
X483364Y121123D01*
Y121121D01*
X483356Y121106D01*
X483350Y121089D01*
X483341Y121051D01*
Y121033D01*
X483338Y121019D01*
Y121007D01*
X483286D01*
Y121900D01*
X483338D01*
X483344Y121854D01*
D02*
G37*
G36*
X483335Y119729D02*
X483338Y119703D01*
X483341Y119680D01*
X483344Y119663D01*
X483347Y119651D01*
X483350Y119639D01*
X483353Y119636D01*
Y119633D01*
X483370Y119613D01*
X483391Y119596D01*
X483405Y119587D01*
X483408Y119584D01*
X483411D01*
X483428Y119578D01*
X483455Y119575D01*
X483507Y119570D01*
X483533Y119567D01*
X483554D01*
X483568D01*
X483574D01*
X484592D01*
Y119506D01*
X484438Y119124D01*
X484389Y119142D01*
X484400Y119179D01*
X484406Y119209D01*
X484409Y119220D01*
Y119235D01*
X484406Y119261D01*
X484400Y119279D01*
X484395Y119290D01*
X484392Y119293D01*
X484374Y119308D01*
X484354Y119316D01*
X484336Y119319D01*
X484331Y119322D01*
X484328D01*
X484316Y119325D01*
X484299Y119328D01*
X484261Y119331D01*
X484217Y119334D01*
X484173D01*
X484133Y119337D01*
X484095D01*
X484083D01*
X484071D01*
X484066D01*
X484063D01*
X483574D01*
X483533D01*
X483498Y119334D01*
X483469Y119331D01*
X483449Y119328D01*
X483431Y119322D01*
X483420Y119319D01*
X483414Y119316D01*
X483411D01*
X483385Y119302D01*
X483367Y119284D01*
X483356Y119273D01*
X483353Y119270D01*
Y119267D01*
X483347Y119252D01*
X483344Y119235D01*
X483338Y119191D01*
X483335Y119174D01*
Y119142D01*
X483286D01*
Y119762D01*
X483335D01*
Y119729D01*
D02*
G37*
G36*
Y118947D02*
X483338Y118918D01*
X483341Y118894D01*
X483344Y118877D01*
X483347Y118862D01*
X483350Y118854D01*
X483353Y118848D01*
Y118845D01*
X483370Y118822D01*
X483391Y118807D01*
X483405Y118795D01*
X483408Y118792D01*
X483411D01*
X483428Y118787D01*
X483455Y118784D01*
X483507Y118781D01*
X483533Y118778D01*
X483554D01*
X483568D01*
X483574D01*
X485256D01*
Y118714D01*
X485102Y118339D01*
X485052Y118362D01*
X485064Y118400D01*
X485070Y118429D01*
X485073Y118438D01*
Y118452D01*
X485070Y118472D01*
X485064Y118490D01*
X485058Y118501D01*
X485055Y118504D01*
X485046Y118513D01*
X485038Y118519D01*
X485014Y118531D01*
X484997Y118534D01*
X484991Y118536D01*
X484988D01*
X484977Y118539D01*
X484962D01*
X484927Y118542D01*
X484883Y118545D01*
X484840Y118548D01*
X484796D01*
X484761D01*
X484747D01*
X484735D01*
X484729D01*
X484726D01*
X483574D01*
X483533D01*
X483498Y118545D01*
X483469Y118542D01*
X483449Y118539D01*
X483431Y118534D01*
X483420Y118531D01*
X483414Y118528D01*
X483411D01*
X483385Y118513D01*
X483367Y118496D01*
X483356Y118484D01*
X483353Y118481D01*
Y118478D01*
X483347Y118464D01*
X483344Y118446D01*
X483338Y118405D01*
X483335Y118388D01*
Y118359D01*
X483286D01*
Y118982D01*
X483335D01*
Y118947D01*
D02*
G37*
G36*
X483673Y118152D02*
X483711Y118144D01*
X483748Y118129D01*
X483783Y118112D01*
X483815Y118091D01*
X483845Y118065D01*
X483897Y118016D01*
X483938Y117963D01*
X483955Y117940D01*
X483967Y117917D01*
X483978Y117899D01*
X483987Y117885D01*
X483990Y117876D01*
X483993Y117873D01*
X484092Y117669D01*
X484115Y117626D01*
X484138Y117588D01*
X484159Y117556D01*
X484176Y117533D01*
X484191Y117515D01*
X484202Y117503D01*
X484208Y117498D01*
X484211Y117495D01*
X484232Y117480D01*
X484255Y117469D01*
X484278Y117463D01*
X484299Y117457D01*
X484316Y117454D01*
X484333Y117451D01*
X484342D01*
X484345D01*
X484368Y117454D01*
X484389Y117460D01*
X484424Y117480D01*
X484438Y117492D01*
X484450Y117500D01*
X484456Y117506D01*
X484459Y117509D01*
X484476Y117533D01*
X484488Y117559D01*
X484499Y117585D01*
X484505Y117611D01*
X484508Y117631D01*
X484511Y117649D01*
Y117666D01*
X484508Y117713D01*
X484499Y117754D01*
X484488Y117789D01*
X484473Y117821D01*
X484459Y117844D01*
X484447Y117861D01*
X484438Y117873D01*
X484435Y117876D01*
X484421Y117890D01*
X484403Y117905D01*
X484363Y117931D01*
X484316Y117954D01*
X484269Y117975D01*
X484226Y117992D01*
X484191Y118004D01*
X484179Y118007D01*
X484168Y118010D01*
X484162Y118013D01*
X484159D01*
Y118059D01*
X484592D01*
Y118013D01*
X484572Y118001D01*
X484557Y117989D01*
X484552Y117983D01*
X484549Y117981D01*
X484543Y117972D01*
X484540Y117960D01*
Y117937D01*
X484543Y117925D01*
X484552Y117893D01*
X484555Y117876D01*
X484557Y117864D01*
X484560Y117856D01*
Y117853D01*
X484572Y117815D01*
X484578Y117780D01*
X484584Y117751D01*
X484589Y117725D01*
Y117701D01*
X484592Y117687D01*
Y117672D01*
X484587Y117611D01*
X484575Y117556D01*
X484557Y117509D01*
X484540Y117469D01*
X484520Y117436D01*
X484502Y117413D01*
X484491Y117399D01*
X484485Y117393D01*
X484444Y117358D01*
X484400Y117332D01*
X484357Y117314D01*
X484316Y117303D01*
X484278Y117294D01*
X484249Y117291D01*
X484237Y117288D01*
X484229D01*
X484226D01*
X484223D01*
X484179Y117291D01*
X484141Y117297D01*
X484106Y117308D01*
X484080Y117320D01*
X484057Y117329D01*
X484039Y117340D01*
X484028Y117346D01*
X484025Y117349D01*
X484010Y117364D01*
X483993Y117378D01*
X483964Y117416D01*
X483932Y117460D01*
X483906Y117503D01*
X483880Y117544D01*
X483862Y117579D01*
X483853Y117594D01*
X483850Y117602D01*
X483845Y117608D01*
Y117611D01*
X483827Y117649D01*
X483810Y117681D01*
X483792Y117713D01*
X483778Y117739D01*
X483748Y117786D01*
X483725Y117824D01*
X483705Y117850D01*
X483690Y117867D01*
X483682Y117879D01*
X483679Y117882D01*
X483652Y117905D01*
X483626Y117922D01*
X483600Y117934D01*
X483574Y117943D01*
X483554Y117949D01*
X483536Y117952D01*
X483522D01*
X483519D01*
X483490Y117949D01*
X483463Y117943D01*
X483443Y117931D01*
X483423Y117922D01*
X483405Y117911D01*
X483393Y117899D01*
X483388Y117893D01*
X483385Y117890D01*
X483367Y117867D01*
X483353Y117841D01*
X483344Y117815D01*
X483335Y117789D01*
X483332Y117768D01*
X483329Y117751D01*
Y117733D01*
X483332Y117684D01*
X483344Y117637D01*
X483359Y117594D01*
X483379Y117559D01*
X483396Y117530D01*
X483411Y117506D01*
X483423Y117492D01*
X483426Y117486D01*
X483466Y117448D01*
X483513Y117419D01*
X483562Y117393D01*
X483612Y117372D01*
X483655Y117358D01*
X483690Y117349D01*
X483705Y117343D01*
X483714D01*
X483719Y117340D01*
X483722D01*
Y117294D01*
X483268D01*
Y117340D01*
X483280Y117346D01*
X483286Y117355D01*
X483297Y117372D01*
X483300Y117384D01*
Y117390D01*
X483297Y117413D01*
X483295Y117436D01*
X483289Y117457D01*
X483286Y117460D01*
Y117463D01*
X483274Y117518D01*
X483265Y117567D01*
X483257Y117614D01*
X483254Y117655D01*
X483251Y117687D01*
X483248Y117710D01*
Y117730D01*
X483254Y117789D01*
X483265Y117844D01*
X483280Y117896D01*
X483300Y117940D01*
X483321Y117975D01*
X483335Y118001D01*
X483347Y118018D01*
X483353Y118024D01*
X483373Y118048D01*
X483393Y118068D01*
X483440Y118100D01*
X483487Y118123D01*
X483533Y118138D01*
X483571Y118149D01*
X483603Y118152D01*
X483615Y118155D01*
X483623D01*
X483629D01*
X483632D01*
X483673Y118152D01*
D02*
G37*
G36*
X483344Y117073D02*
X483350Y117038D01*
X483361Y117009D01*
X483370Y116982D01*
X483382Y116962D01*
X483391Y116948D01*
X483396Y116939D01*
X483399Y116936D01*
X483411Y116924D01*
X483426Y116913D01*
X483460Y116886D01*
X483501Y116863D01*
X483542Y116840D01*
X483580Y116822D01*
X483615Y116808D01*
X483626Y116802D01*
X483635Y116796D01*
X483641Y116793D01*
X483644D01*
X485209Y116139D01*
Y116092D01*
X483661Y115428D01*
X483623Y115414D01*
X483591Y115396D01*
X483559Y115382D01*
X483533Y115367D01*
X483487Y115341D01*
X483449Y115318D01*
X483423Y115298D01*
X483405Y115283D01*
X483393Y115274D01*
X483391Y115271D01*
X483379Y115257D01*
X483370Y115234D01*
X483361Y115210D01*
X483353Y115184D01*
X483347Y115161D01*
X483341Y115140D01*
X483338Y115126D01*
Y115120D01*
X483286D01*
Y115714D01*
X483338D01*
X483341Y115667D01*
X483347Y115629D01*
X483356Y115597D01*
X483361Y115574D01*
X483367Y115557D01*
X483373Y115545D01*
X483379Y115539D01*
Y115536D01*
X483391Y115522D01*
X483405Y115513D01*
X483428Y115501D01*
X483449Y115496D01*
X483452D01*
X483455D01*
X483478Y115498D01*
X483501Y115504D01*
X483557Y115522D01*
X483580Y115530D01*
X483600Y115536D01*
X483612Y115542D01*
X483618Y115545D01*
X483914Y115670D01*
Y116398D01*
X483644Y116508D01*
X483597Y116526D01*
X483559Y116540D01*
X483525Y116549D01*
X483498Y116558D01*
X483478Y116560D01*
X483463Y116563D01*
X483455D01*
X483452D01*
X483434Y116560D01*
X483420Y116558D01*
X483396Y116543D01*
X483379Y116528D01*
X483376Y116526D01*
X483373Y116523D01*
X483361Y116505D01*
X483356Y116485D01*
X483344Y116435D01*
X483341Y116412D01*
X483338Y116392D01*
Y116374D01*
X483286D01*
Y117113D01*
X483338D01*
X483344Y117073D01*
D02*
G37*
%LPC*%
G36*
X427471Y153732D02*
X425693D01*
Y153440D01*
X427471D01*
Y153732D01*
D02*
G37*
G36*
X427996Y153323D02*
Y152944D01*
X425197D01*
Y153265D01*
X424614Y153178D01*
X424089Y153061D01*
X423652Y152944D01*
X423302Y152769D01*
X423039Y152623D01*
X422835Y152419D01*
Y152303D01*
X429338D01*
Y153148D01*
X428930Y153236D01*
X428492Y153294D01*
X427996Y153323D01*
D02*
G37*
G36*
X430038Y153440D02*
X429834D01*
Y152769D01*
X430038D01*
Y153440D01*
D02*
G37*
G36*
X430533Y152798D02*
Y152303D01*
X431146D01*
Y152390D01*
X431000Y152536D01*
X430825Y152653D01*
X430533Y152798D01*
D02*
G37*
G36*
X422077Y152711D02*
X422048D01*
X421902Y152682D01*
X421814Y152594D01*
X421785Y152478D01*
Y152449D01*
X421814Y152303D01*
X421902Y152244D01*
X422019Y152215D01*
X422048D01*
X422194Y152244D01*
X422252Y152332D01*
X422281Y152419D01*
Y152449D01*
X422252Y152594D01*
X422164Y152682D01*
X422077Y152711D01*
D02*
G37*
G36*
X422660Y150466D02*
X421698D01*
Y149503D01*
X422660D01*
Y150466D01*
D02*
G37*
G36*
X427559Y148279D02*
X424935D01*
Y148104D01*
X427559D01*
Y148279D01*
D02*
G37*
G36*
X431058Y151399D02*
X422893D01*
X422952Y150961D01*
X423156D01*
Y150028D01*
X424381Y148774D01*
X428055D01*
Y147608D01*
X425518D01*
X427209Y145858D01*
X430912Y149707D01*
X431058Y151399D01*
D02*
G37*
G36*
X430825Y148891D02*
X427559Y145509D01*
X430242Y142738D01*
X430825Y148891D01*
D02*
G37*
G36*
X423156Y149299D02*
Y149008D01*
X423098D01*
X423681Y142213D01*
X426859Y145509D01*
X424818Y147608D01*
X424381D01*
Y148045D01*
X423156Y149299D01*
D02*
G37*
G36*
X427209Y145129D02*
X423739Y141543D01*
X423797Y140901D01*
X424031Y140930D01*
X424293Y140901D01*
X424614Y140814D01*
X424935Y140668D01*
X425168Y140493D01*
X425372Y140289D01*
X425576Y139997D01*
X425722Y139647D01*
X425809Y139268D01*
X425780Y139006D01*
X429892D01*
X430183Y142068D01*
X427209Y145129D01*
D02*
G37*
G36*
X424177Y140026D02*
X424031D01*
X423739Y139997D01*
X423535Y139881D01*
X423360Y139764D01*
X423273Y139589D01*
X423214Y139443D01*
X423156Y139297D01*
Y139181D01*
Y139152D01*
X423185Y138860D01*
X423302Y138656D01*
X423418Y138481D01*
X423593Y138393D01*
X423739Y138335D01*
X423885Y138306D01*
X424002Y138277D01*
X424031D01*
X424322Y138306D01*
X424526Y138423D01*
X424701Y138568D01*
X424789Y138714D01*
X424847Y138889D01*
X424876Y139006D01*
X424905Y139122D01*
Y139152D01*
X424876Y139443D01*
X424760Y139647D01*
X424614Y139822D01*
X424468Y139910D01*
X424293Y139968D01*
X424177Y140026D01*
D02*
G37*
G36*
X429717Y138481D02*
X429600D01*
Y137781D01*
X429717D01*
Y138481D01*
D02*
G37*
%LPD*%
G36*
X424235Y139706D02*
X424381Y139647D01*
X424468Y139560D01*
X424526Y139443D01*
X424614Y139239D01*
Y139181D01*
Y139152D01*
X424585Y138947D01*
X424526Y138802D01*
X424439Y138714D01*
X424322Y138656D01*
X424118Y138568D01*
X424031D01*
X423827Y138598D01*
X423681Y138656D01*
X423593Y138743D01*
X423506Y138860D01*
X423448Y139064D01*
Y139122D01*
Y139152D01*
X423477Y139356D01*
X423535Y139502D01*
X423622Y139589D01*
X423739Y139676D01*
X423943Y139735D01*
X424031D01*
X424235Y139706D01*
D02*
G37*
%LPC*%
G36*
X424060Y139239D02*
X423972D01*
X423943Y139210D01*
Y139181D01*
Y139152D01*
Y139093D01*
X423972Y139064D01*
X424031D01*
X424089Y139093D01*
X424118Y139122D01*
Y139152D01*
X424089Y139210D01*
X424060Y139239D01*
D02*
G37*
G36*
X484016Y116354D02*
Y115714D01*
X484773Y116040D01*
X484016Y116354D01*
D02*
G37*
%LPD*%
D10*
X379071Y189803D02*
G03*
X379071Y189803I-394J0D01*
G01*
X176535Y165345D02*
X174436D01*
X175486D01*
Y162196D01*
X173387D02*
Y165345D01*
X171812D01*
X171288Y164820D01*
Y163770D01*
X171812Y163245D01*
X173387D01*
X170238Y161671D02*
X168139D01*
X167089Y164820D02*
X166565Y165345D01*
X165515D01*
X164990Y164820D01*
Y164295D01*
X165515Y163770D01*
X166040D01*
X165515D01*
X164990Y163245D01*
Y162721D01*
X165515Y162196D01*
X166565D01*
X167089Y162721D01*
X163941Y165345D02*
Y163245D01*
X162891Y162196D01*
X161842Y163245D01*
Y165345D01*
X160792Y164820D02*
X160267Y165345D01*
X159218D01*
X158693Y164820D01*
Y164295D01*
X159218Y163770D01*
X159743D01*
X159218D01*
X158693Y163245D01*
Y162721D01*
X159218Y162196D01*
X160267D01*
X160792Y162721D01*
X111492Y163473D02*
X109393D01*
X110443D01*
Y160324D01*
X108344D02*
Y163473D01*
X106770D01*
X106245Y162948D01*
Y161899D01*
X106770Y161374D01*
X108344D01*
X105195Y159799D02*
X103096D01*
X99948Y163473D02*
X102047D01*
Y161899D01*
X100997Y162423D01*
X100472D01*
X99948Y161899D01*
Y160849D01*
X100472Y160324D01*
X101522D01*
X102047Y160849D01*
X98898Y163473D02*
Y161374D01*
X97848Y160324D01*
X96799Y161374D01*
Y163473D01*
X90021Y163254D02*
X87922D01*
X88972D01*
Y160105D01*
X86873D02*
Y163254D01*
X85298D01*
X84774Y162729D01*
Y161680D01*
X85298Y161155D01*
X86873D01*
X83724Y159581D02*
X81625D01*
X80576Y163254D02*
Y161155D01*
X79526Y160105D01*
X78477Y161155D01*
Y163254D01*
X75328Y162729D02*
X75853Y163254D01*
X76902D01*
X77427Y162729D01*
Y160630D01*
X76902Y160105D01*
X75853D01*
X75328Y160630D01*
X72179Y162729D02*
X72704Y163254D01*
X73754D01*
X74278Y162729D01*
Y160630D01*
X73754Y160105D01*
X72704D01*
X72179Y160630D01*
X71130Y159581D02*
X69031D01*
X66407Y163254D02*
X67456D01*
X67981Y162729D01*
Y160630D01*
X67456Y160105D01*
X66407D01*
X65882Y160630D01*
Y162729D01*
X66407Y163254D01*
X64833D02*
Y160630D01*
X64308Y160105D01*
X63258D01*
X62734Y160630D01*
Y163254D01*
X61684D02*
X59585D01*
X60634D01*
Y160105D01*
X48886Y170144D02*
X46787D01*
X47837D01*
Y166995D01*
X45737D02*
Y170144D01*
X44163D01*
X43638Y169619D01*
Y168570D01*
X44163Y168045D01*
X45737D01*
X42589Y166470D02*
X40490D01*
X39440Y170144D02*
Y168045D01*
X38391Y166995D01*
X37341Y168045D01*
Y170144D01*
X34193Y169619D02*
X34717Y170144D01*
X35767D01*
X36292Y169619D01*
Y167520D01*
X35767Y166995D01*
X34717D01*
X34193Y167520D01*
X31044Y169619D02*
X31569Y170144D01*
X32618D01*
X33143Y169619D01*
Y167520D01*
X32618Y166995D01*
X31569D01*
X31044Y167520D01*
X29994Y166470D02*
X27895D01*
X26846Y170144D02*
X25796D01*
X26321D01*
Y166995D01*
X26846D01*
X25796D01*
X24222D02*
Y170144D01*
X22123Y166995D01*
Y170144D01*
X140811Y216404D02*
X138712D01*
X139761D01*
Y213255D01*
X137662D02*
Y216404D01*
X136088D01*
X135563Y215879D01*
Y214829D01*
X136088Y214305D01*
X137662D01*
X134514Y212730D02*
X132414D01*
X129266Y215879D02*
X129791Y216404D01*
X130840D01*
X131365Y215879D01*
Y213780D01*
X130840Y213255D01*
X129791D01*
X129266Y213780D01*
Y214829D01*
X130315D01*
X128216Y213255D02*
Y216404D01*
X126117Y213255D01*
Y216404D01*
X125068D02*
Y213255D01*
X123494D01*
X122969Y213780D01*
Y215879D01*
X123494Y216404D01*
X125068D01*
M02*
