M48
;Layer_Color=9474304
;FILE_FORMAT=2:5
INCH,LZ
;TYPE=PLATED
T1F00S00C0.00591
T2F00S00C0.00787
T3F00S00C0.03543
T5F00S00C0.04134
T7F00S00C0.05512
;TYPE=NON_PLATED
T8F00S00C0.08268
%
T01
X0011811Y0009843
X0007874Y0017717
X0101378Y0015748
X0104331Y0023622
X011939Y0018996
X0121358
X0123327
X0134102
X0138039
X0148815
X0152752
X0163527
X0167464
X0178239
X0182176
X0192952
X0196889
Y0034744
X0192952
X0182176
X0178239
X0167464
X0163527
X0152752
X0148815
X0138039
X0134102
X0123327
X011939
X0207664
X0211601
X0222377
X0226314
X0237089
X0241026
X0251703
X025564
X0266317
X0270254
X0280931
X0284868
X0295545
X0299482
X0310159
X0314096
X0324773
X032871
X0339387
X0343324
X0353902
X0357839
Y0018996
X0353902
X0343324
X0339387
X032871
X0324773
X0314096
X0310159
X0299482
X0295545
X0284868
X0280931
X0270254
X0266317
X025564
X0251703
X0241026
X0237089
X0226314
X0222377
X0211601
X0207664
X0368418
X0372355
X0382933
X038687
X0397449
X0401386
X0411965
X0415902
X042648
X0430417
X0440996
X0444933
X0455511
X0459448
X0460464Y0034744
X0455511
X0444933
X0440996
X0430417
X042648
X0415902
X0411965
X0401386
X0397449
X038687
X0382933
X0372355
X0368418
Y0050492
X0372355
X0382933
X038687
X0397449
X0401386
X0411965
X0415902
X042648
X0430417
X0440996
X0444933
X0454495
X0459448
Y006624
X0454495
X0444933
X0440996
X0430417
X042648
X0415902
X0411965
X0401386
X0397449
X038687
X0382933
X0372355
X0368418
Y0081988
X0372355
X0382933
X038687
X0397449
X0401386
X0411965
X0415902
X042648
X0430417
X0440996
X0444933
X0454495
X0459448
Y0097736
X0454495
X0444933
X0440996
X0430417
X042648
X0415902
X0411965
X0401386
X0397449
X038687
X0382933
X0372355
X0368418
Y0113484
X0372355
X0382933
X038687
X0397449
X0401386
X0411965
X0415902
X042648
X0430417
X0440996
X0444933
X0454495
X0459448
X0423819Y0175296
X0419882
Y0179233
X0423819
X0379921Y0179134
X0375742
X0372047Y02
Y0202559
X0362256Y0162874
X0358268Y015748
X0354331
X0350394
X0350399Y0162087
X0334646Y0161417
Y0165354
X0325787Y0175197
Y0179134
X032185Y0175296
X0339567Y0187992
X0356299
X0332965Y0199803
X033124Y0202287
X03068Y0190838
X0281496Y0179134
X0277559
X0237205
X0233268
X0237205Y0175197
X0219055Y0190945
X020374Y0197835
X0207664Y0113484
X0211601
X0222377
X0226314
X0237089
X0241026
X0251703
X025564
X0266317
X0270254
X0280931
X0284868
X0295545
X0299482
X0310159
X0314096
X0324773
X032871
X0339387
X0343324
X0353902
X0357839
Y0097736
X0353902
X0343324
X0339387
X032871
X0324773
X0314096
X0310159
X0299482
X0295545
X0284868
X0280931
X0270254
X0266317
X025564
X0251703
X0241026
X0237089
X0226314
X0222377
X0211601
X0207664
Y0081988
X0211601
X0222377
X0226314
X0237089
X0241026
X0251703
X025564
X0266317
X0270254
X0280931
X0284868
X0295545
X0299482
X0310159
X0314096
X0324773
X032871
X0339387
X0343324
X0353902
X0357839
Y006624
X0353902
X0343324
X0339387
X032871
X0324773
X0314096
X0310159
X0299482
X0295545
X0284868
X0280931
X0270254
X0266317
X025564
X0251703
X0241026
X0237089
X0226314
X0222377
X0211601
X0207664
Y0050492
X0211601
X0222377
X0226314
X0237089
X0241026
X0251703
X025564
X0266317
X0270254
X0280931
X0284868
X0295545
X0299482
X0310159
X0314096
X0324773
X032871
X0339387
X0343324
X0353902
X0357839
X0196889
X0192952
X0182176
X0178239
X0167464
X0163527
X0152752
X0148815
X0138039
X0134102
X0123327
X011939
Y006624
X0123327
X0134102
X0138039
X0148815
X0152752
X0163527
X0167464
X0178239
X0182176
X0192952
X0196889
Y0081988
X0192952
X0182176
X0178239
X0167464
X0163527
X0152752
X0148815
X0138039
X0134102
X0123327
X011939
Y0097736
X0123327
X0134102
X0138039
X0148815
X0152752
X0163527
X0167464
X0178239
X0182176
X0192952
X0196889
Y0113484
X0192952
X0182176
X0178239
X0167464
X0163527
X0152752
X0148815
X0138039
X0134102
X012221Y0114601
X011939Y0113484
X0071645Y0124221
X0136811Y0160433
Y016437
X0140748
Y0168307
Y0172244
X0136811
Y0168307
X0153543Y0169291
X015748
X0161417
X0165354
X0169291
Y0165354
X0165354
X0161417
X015748
X0153543
X0188976Y0179134
X0192913
X0037992Y0082925
X0033071Y0079134
X0080709Y0212598
X0088583
X0096457
X0104331
X0100394Y0222441
X009252
X0084646
X0076772
X0165354Y0220472
Y0216535
Y022441
X0265748Y0226378
X027559Y0222441
X0285433Y0226378
X0295276Y0222441
X0326772Y0216535
X0330709
X0334646
X032874Y0207677
X0349409Y0212795
Y0217913
X035315Y0222047
X0356299Y0215354
X0372047
Y0212795
Y0210236
Y0207677
Y0205118
Y0220472
Y0223031
X0408465Y0230315
X0412402
X0416339
T02
X0048346Y0051292
X0051102Y0054048
X0053858Y0051292
X0051102Y0048536
X0053858Y0056804
X0051102Y0059559
X0048346Y0056804
X0042835
Y0051292
X0045591Y0054048
Y0048536
Y0059559
T03
X0092618Y0008169
X0104429
X0008268Y0149606
Y0161417
T05
X0207362Y022441
X0217362
X0227362
X0237362
X0247362
T07
X0017323Y0107087
Y0126772
T08
X0036614Y0227165
M30
